<mxfile host="app.diagrams.net" agent="Mozilla/5.0 (Windows NT 10.0; Win64; x64) AppleWebKit/537.36 (KHTML, like Gecko) Chrome/131.0.0.0 Safari/537.36" version="24.7.10">
  <diagram name="PÃ¡gina-1" id="E1MBW4Sy1rRS3_Fki9D6">
    <mxGraphModel dx="905" dy="465" grid="1" gridSize="10" guides="1" tooltips="1" connect="1" arrows="1" fold="1" page="1" pageScale="1" pageWidth="827" pageHeight="1169" math="0" shadow="0">
      <root>
        <mxCell id="0" />
        <mxCell id="1" parent="0" />
        <mxCell id="xbgkux6oHdEF29ycn-ZW-2" value="" style="sketch=0;pointerEvents=1;shadow=0;dashed=0;html=1;strokeColor=none;fillColor=#505050;labelPosition=center;verticalLabelPosition=bottom;outlineConnect=0;verticalAlign=top;align=center;shape=mxgraph.office.clouds.cloud_sharepoint;" vertex="1" parent="1">
          <mxGeometry x="230" y="90" width="101" height="61" as="geometry" />
        </mxCell>
        <mxCell id="xbgkux6oHdEF29ycn-ZW-28" style="edgeStyle=orthogonalEdgeStyle;rounded=0;orthogonalLoop=1;jettySize=auto;html=1;entryX=0.5;entryY=0;entryDx=0;entryDy=0;" edge="1" parent="1" source="xbgkux6oHdEF29ycn-ZW-5" target="xbgkux6oHdEF29ycn-ZW-26">
          <mxGeometry relative="1" as="geometry" />
        </mxCell>
        <mxCell id="xbgkux6oHdEF29ycn-ZW-29" style="edgeStyle=orthogonalEdgeStyle;rounded=0;orthogonalLoop=1;jettySize=auto;html=1;exitX=0.5;exitY=1;exitDx=0;exitDy=0;exitPerimeter=0;entryX=0.5;entryY=0;entryDx=0;entryDy=0;dashed=1;dashPattern=8 8;" edge="1" parent="1" source="xbgkux6oHdEF29ycn-ZW-6" target="xbgkux6oHdEF29ycn-ZW-18">
          <mxGeometry relative="1" as="geometry" />
        </mxCell>
        <mxCell id="xbgkux6oHdEF29ycn-ZW-6" value="&lt;div&gt;&lt;font face=&quot;Verdana&quot; color=&quot;#000000&quot;&gt;&lt;br&gt;&lt;/font&gt;&lt;/div&gt;&lt;font face=&quot;Verdana&quot; color=&quot;#000000&quot;&gt;CMS&lt;/font&gt;&lt;div&gt;&lt;font face=&quot;Verdana&quot; color=&quot;#000000&quot;&gt;ODC&lt;/font&gt;&lt;/div&gt;" style="html=1;outlineConnect=0;fillColor=#E1D5E7;strokeColor=#6881B3;gradientColor=none;gradientDirection=north;strokeWidth=2;shape=mxgraph.networks.cloud;fontColor=#ffffff;" vertex="1" parent="1">
          <mxGeometry x="369" y="92.5" width="90" height="50" as="geometry" />
        </mxCell>
        <mxCell id="xbgkux6oHdEF29ycn-ZW-7" value="" style="endArrow=none;html=1;rounded=0;" edge="1" parent="1" target="xbgkux6oHdEF29ycn-ZW-6">
          <mxGeometry width="50" height="50" relative="1" as="geometry">
            <mxPoint x="332" y="117" as="sourcePoint" />
            <mxPoint x="440" y="160" as="targetPoint" />
          </mxGeometry>
        </mxCell>
        <mxCell id="xbgkux6oHdEF29ycn-ZW-9" value="&lt;font face=&quot;Verdana&quot;&gt;Publicaciones&lt;/font&gt;" style="text;html=1;align=center;verticalAlign=middle;whiteSpace=wrap;rounded=0;" vertex="1" parent="1">
          <mxGeometry x="246" y="122" width="60" height="30" as="geometry" />
        </mxCell>
        <mxCell id="xbgkux6oHdEF29ycn-ZW-10" value="" style="endArrow=none;html=1;rounded=0;entryX=0;entryY=0.5;entryDx=0;entryDy=0;" edge="1" parent="1" source="xbgkux6oHdEF29ycn-ZW-6" target="xbgkux6oHdEF29ycn-ZW-4">
          <mxGeometry width="50" height="50" relative="1" as="geometry">
            <mxPoint x="360" y="180" as="sourcePoint" />
            <mxPoint x="410" y="130" as="targetPoint" />
          </mxGeometry>
        </mxCell>
        <mxCell id="xbgkux6oHdEF29ycn-ZW-20" style="edgeStyle=orthogonalEdgeStyle;rounded=0;orthogonalLoop=1;jettySize=auto;html=1;entryX=0;entryY=0.5;entryDx=0;entryDy=0;exitX=0.5;exitY=1;exitDx=0;exitDy=0;" edge="1" parent="1" source="xbgkux6oHdEF29ycn-ZW-11" target="xbgkux6oHdEF29ycn-ZW-18">
          <mxGeometry relative="1" as="geometry" />
        </mxCell>
        <mxCell id="xbgkux6oHdEF29ycn-ZW-11" value="" style="swimlane;startSize=0;" vertex="1" parent="1">
          <mxGeometry x="229.25" y="207" width="94.5" height="70" as="geometry" />
        </mxCell>
        <mxCell id="xbgkux6oHdEF29ycn-ZW-13" value="" style="shadow=0;dashed=0;html=1;strokeColor=none;fillColor=#EF8F21;labelPosition=center;verticalLabelPosition=bottom;verticalAlign=top;align=center;outlineConnect=0;shape=mxgraph.veeam.ms_sharepoint;" vertex="1" parent="xbgkux6oHdEF29ycn-ZW-11">
          <mxGeometry x="54.5" y="34.06" width="34.3" height="32.4" as="geometry" />
        </mxCell>
        <mxCell id="xbgkux6oHdEF29ycn-ZW-14" value="" style="shape=image;verticalLabelPosition=bottom;labelBackgroundColor=default;verticalAlign=top;aspect=fixed;imageAspect=0;image=data:image/png,iVBORw0KGgoAAAANSUhEUgAAAoAAAAFoCAYAAADHMkpRAABD3ElEQVR4Xu3dB3wU953/f4FbXGInuSROcufz3eUud+n/JHfJ3SU/71KMMbZxN457cDe79GbA9GaaC2AM2pUEEpIAgegdTAch0SUkuoQESAKh3sv3P9/1CaP5LqitVt9Zvb6Px/Nh+6PZ2dFq9jtvz8z3O0FCiCAAAAC0HUoBAAAAgU0pAAAAILApBQAAAAQ2pQAAAIDAphQAAAAQ2JQCAAAAAptSAAAAQGBTCgAAAAhsSgEAAk3B1eL2Vy4W3G34nuFHp45c+sfBz0f/+qPnozqNeD7yKeOfL454PurVj56P7GH8d3fjv+2DX4j+hbHsA4b7Dd813FmUX9revG4AsCKlAACBICku44649ad+Gbf+5COT34p512F3zXba3eudNtcJp81daPy7qEeNsVyusXyS8e+rjddP/WLw2p7G+job6/3pmcSs283vCQBWoRQAwKoqK6qCFk7Z9bPIKTveGfZ0ZLDD5o5z2l2XjABX6SXgNUW5sb50Y73bx74a84XxPq8v/3L/35u3AwB0pxQAwEqK8kpvSdh25nujX13cZczLS8KMcJbmtLnyjbBW7SXA+VKV8T55vTuFnBj76pKZo15b9JezSVn3lhSWtzNvIwDoRikAgBXkZBbcenDb2Z999Fz020YYi3P67ixfU1UYNkx7d8WLB7edeZD7BQHoTCkAgO5Wzz/wg1kD1/Vz2F07nHZXqZcw1lpqjO0pcNiDN7hHb3lz+/Kku8zbDgA6UAoAoKPCwpqgvVtO3jXpvWXd+3YO3W2ErYKvA5cSwnRQ47C7rw7sNn/VhPeX2k8cvXhHcVGN8jsBQGtRCgCgm7SUy3f998+Od3LY3CuMYKXTGb96GdtbbGz3gq5/TvvdpbTcO8y/GwC0BqUAALrIySpsv3xu/K/GvLxkkhGkzpvDlZUY25849f2VI2Lnxv9LRVml8rsCgD8pBQBobTXVNUFLvth2+8SeS/sYwemo8+uzfrpe7m0ouf1Fxu+TMO392Gc3xxy4raaGy8IAWodSAIDWIgPRiYMXvx8+afvzDpsrzmGzfOjzyvi9yo3fb/0qd8KjZxOzvm3+HACgpSkFAGgNyQkXbl0TcuDPjofcC42QlGMOTQEqc/BjEZ+uDTv0u/Mnr9xi/kwAoKUoBQDwp/KS8iB3/6gfj+yxeILT5k5xWv9Sb+PY3BUOu/vw+NeXDo4atZSzgQD8QikAgD8U5ZW2P5eU/eNxr8W87bS55AAP+eSOthX+viF/7yqHzXVs1sD1zxmfy/fLSit4ogiAFqMUAKCl7V578u6wcdt6OG3uVU6LTeviB3nOh9xRMTP3PXpoZ9qt5s8OAHxBKQBASzl9+nRQyJRVv+z/6IIQh919ydl2z/jVp8Zhc5/98Omoj8M+W/7P2dnZymcJAM2hFADA13IyC25J3Jv20wFdwyY4O7gynDZ3lZfQg+vJEdA2d6Wzo+vsoG7zB144k3N/fk4xzxcG4BNKAQB8pSCvJGjbysQff/z20p5Oe3C8EnLQQK4a4/Nb98XgdT2+Wpn43arKKuWzBoDGUAoA4AuTJomgT/tvfLRXx+AVRoi56uRyb3PJzy+zV6fg6BmD4n4fFqZ+5gDQUEoBAJojOyP/jjWhB37znj1yruMhT/CTo3vNYQZNV/XB/wtNd3SOnLxnzYmf5WQWMlAEQKMpBQBoivMns9rtXZfyL73s7pFGSDnr5IxfS5Of7/EPn458b++65H/IvpCr/E0A4EaUAgA0VsaZnG9PfGvJ6077vE1Ou6vCS1hBi3EVOjvMW/FJn5XPFOaW3G7+2wCAN0oBABqioqwyKO9y0Z1zBq//4/BnIzc47K48I4xwubdVuKqNzz9nZI/o8OhpO39p/F3uqKqsVv5mAFBLKQBAfU7sPXXrstl7/9i7g+tTp82dqwYStBI5dUyG8XcZuyX68K9Sj6QqfzsAkJQCANxM/ObTPxrx2LxBRtA4ZgSOSi8hBK2vwmlz7RnfI+zN5ISM75n/hgCgFADArKy0Mujiuat3T/jb0meGPBG+3Qh/RV5CB3Ty9UTSucOfiVw36a3YDsUFZbdXlDN/IICvKQUAqFVWVhaUdPjUPZ/2W/eQESaWGMGCJ3hYkc0zMGdW6IRtfzx+7OQdNTU1yt8aQNuiFACg1pKZO37V/6lZ040Acc4IgAzwsDLP4/dcSQOe+3zstiXH/t78twbQtigFAG1bZUVVUNz6lHunvr/87d4dQ5KM4FCmhAlYl81dOqDr/J3T3l/+/ImDGXdV8lg5oE1SCgDaptOnRdDhvZe/26ub6wUjKOxzcrk30MkBPJuGvx7ZIWF37rcvXVL3CQCBSykAaHsuX8i/fdDrCQ+99qdFc502d4GXsIBAZXNfeOH3K2Z83D/hDyVF5e3N+waAwKQUALQtiz/dde/kN5dNddpdp51y+hBzQEBbUGb8/ZNn9FrZf1PkobvM+wiAwKMUAAS+qqrqdtuWJP7DwEfnv28c+M84v36uLM/ubduMv79LDhQ5NOSx8JeP7Dj3A/N+AyBwKAUAge34/vN3rw5JeMo44K8zDvYlXoIA2jxX4YBH50duXHi4Q2pK1rfM+xAA61MKAAJTYV5p0JfD1v9qZI/oYIfdlaEe9IE65POFT49/PWaGe/SmB8z7EwBrUwoAAosR/G5bOHLZg4O6hox22l1XnF+P7uVyLxpC7idytPCFoY8Gv79q1paflJVU3GLexwBYj1IAEDh2rUq+P2TMlvccNpec1oXn9qI5SnvZXJuWfL7n1QPbzt5t3tcAWItSAGB9iXEZt7pHb+nQt3PISqfdddXLwRxoItflId3D3e7RW//z/Okcpo0BLEopALCuq9lFt08ePuc3Ax+d7zYO1tlOm4vHt8H3bHK0sPvi4McXzJj72YIHC66W3GbeFwHoTSkAsJ68K8Xtd61K+bfxb8QMcNjd55UDNtBCjP3t8Of917xv7H8PlJdWKvsmAD0pBQDWsjEk6dbZA9e/3cvm3m4cjIvNB2igpRn7Xb6x/60PGbn18b0rzjBIBLAApQBAfzXVNUFrVxTe1cOe8Jd+ncOWGwdh+fg2RvaiNdU4be7sgV3nhz32P8m/SzpSfId5vwWgD6UAQG9pJ7Jv3bPmxO962d2zjIOunNbFfCAGWtulQU9EjIrfdOpnWel5nBEENKQUAOiptLgiKHb2/h9N7Ll0kNPmTnByxg86s8nnSru2z3Cuem+N++C95v0ZQOtSCgD0UlFe1a4wr/TOz/uv7d67Y8g+h91d6CT8wRpqjP01r2/n0E0Lp+z8X2M//lZVZbWyjwPwP6UAQB/H95+/a/Hnex522IKjnTZ3qZcDLGANNndeL3vw3A0LD/35zLFLt5r3dQD+pRQAtL7Uo6lBK2bt+PeB3cKmOuzuc07O+CEw1DhsruSRPaIGr5y17cEr568o+z4A/1AKAFpPZXlVUMaZnPtGvbDwg972eQecNneZl4MoYF02z2jhot72ubvHvbLopZLCstsrK6uU7wKAlqUUAPhfSUFZUPK+9L+b9v6qJ5w2V5xy0AQClc21Injkls4p+9Lv5f5AwH+UAgD/OnDgQFD4xO0d+jzkCjUOhpc9Z0jMB0kgUHnOCLrSjf1/VuzcPb9JTk5WviMAfE8pAPCfPWtP/PDDHiEjHXb3WeNgWKkcHIG2o9LZMfjwRy+HO5MTMu4zf1cA+JZSANCyrmQUBqUkXPixwx7sNILfGS8HQqBNM74Xxz58OuKFU4czv59/pUT5DgFoPqUAoGUUF4ugWdPz7vnkg3VPOR8KWerkjB9wQ575Lh8KDZs3bOvDX3xeerv5+wSgeZQCgJYRNmnXv/b4w7Iw48B2wTjAVZsPeAAUlXIapBf/uGrG2vkHf2T+TgFoOqUAwHcupebesmHhoZ/1fyR0lLODK8tpdxH8gEZy2F2VvTu6zwx4JLTP/o2n/vHKhQLluwagcZQCAN9I2nf+ByOfj37LaXPvN3C5F2gu+Xxhm3vzlLeWP30uKes75u8cgIZTCgCa52p20a3BH23u+NFzUTFOm+uqchAD0Bxy2piL41+LmW98z/6zurpG+Q4CqJ9SANB4FWUVQZnnrnzry2Hr/2Pg4wvcxkEq32njPj+gxdjcVcY/cwc/sWDs4k93/TTr3OXbqquZSBpoKKUAoPHWuvf9W3/758McNtcpgh/gR0YQNL53hwbaP3XGbzz5Y/N3E4B3SgFAwx3ZlXrX/PFf9ejd0b3TOBiVKAcnAP5SOPjxBcuN72O31ONZd5i/qwDqUgoAbq6kpCTo8qW8O8c+E/3QoG4LVjptrlyn3cXj24BW56o2vo9Xhj4REfH5uyt/mZOVf0dZWZnyHQZAAAQaJTe76LaQ6bG/69P1y8lOOVGtcgACoIkL/Z6cPWLxvM0/Ly0ub2/+LgNtnVIA4N3asAPfnT1w/TDjwHLIUOHlgANAL6WGvSGjtryza8Xxu8zfaaAtUwoAviGnmDiwKfXb415a/mS/zqG7jINJsZeDDACd2dx5A7vOXz3+rys6nD2aTRAEBAEQuKG05Ow7d61Ktjvs7hgnwQ8IBAX9uoTNO/jV2d9lpuUyUARtmlIA2rqCvNJ2i2bu+/n415ZMctpcZ7wcRABYlmegyJEZvVYOXzw77gHz9x9oK5QC0FZVVlS1Wxd68K6Jb8S877C5k4wDhbx/iNG9QOAxvteuIofdfXDaeyue3LMq5c6qqup25j4BCGRKAWiLkuPSvxc1fddzxgFhh3FwkE8YMB8wAASmUuN7v2rd/EOPnjl6ifsD0WYoBaAtOXEw45blX8b9d79OIfOdNvdlLwcHAG2BzX1p+FMLpy6fs+83F85eYdoYBDylALQFcnTvPEf4/SOfjxrreMiV8n/PFVUPCgDaDpu73OgPjo57ZcmAJWOX3SX7CXPfAQQKpQAEsqKC0vYnD174ycS3Yl932N0ZygEAAAzy/sA5H258/uShC9+vKK9U+hLA6pQCEKgSVh1ov2Ditiec9uBYo3MvMnf4AHA9o5+46uwQvGDZ7D3/e3zHcaVPAaxMKQCBaNeKpO8N6RY81ujUzxuqzR09ANxAlcMenDTymVDnsT2p3zb3LYBVKQUgkCQmXLntTz898nDvju5dDrur0kvnDgA3ZfQdctqYij4d3av+++en/zMzLZdBIrA8pQAEiuP7M+4a0n3B2w6bK93coQNAU/R6KDhp3GuLn0pNzuZJIrA0pQAEgpMHL35v5AuLRjts7ixzBw4AzVBj9CvnJry+zJGVnse8gbAspQBY3cmDF/6hf5ewMDmlg4EneQDwLdmv2NwlQx8Pn3LlYgH3BcKSlAJgZcnxGQ8Ofjw8QumwAcD3qsa9GjM5NTn7R+a+CNCdUgCsKiUh4ycje0S7HXZ3uZeOGgB8zuhvCib8bdnki2evfsfcJwE6UwqAFZ04eOGHg7otcDlt7jJzBw0ALcrmLh7yRMSkK5kFDAyBZSgFwGpOHMy4Y0DXsI+dzO8HoPVUjX5p0VtpKdm3m/soQEdKAbCS5L0X2496ftEbTpsr10uHDAB+5Doz6fUVj2ecvNrO3FcBulEKgFVUVlS1W+M+2Nlpcx83Ol9G+wJobdVGf7Rn3/pTv62prlH6LEAnSgGwio0Rh/7Z6HA3eumEAaA1RR/edpbpYaA1pQBYRf/O7klGR1vhpfMFgNZUPvlvMX8z91mATpQCoLuK8sqgiI93/MHoZHO8dLwA0Or6dQk7uibk4H9UVlYpfRigA6UA6G71woQf9OoYvNbJfX8A9FXxQafgufu3nb7X3IcBOlAKgM6yM/LbT3esfsPoXC976XABQCdpcz7c9HBJUbnSlwGtTSkAuqqpqQlK3p/xgMPulmf/mPMPgO6qjf5qQc6lgrvN/RnQ2pQCoKuqquqgPvZ5PY1OtdJLRwsAOqoY91LU/zP3Z0BrUwqArnbHnr7N+L/pfV46WADQ1uDHwyOObEtvb+7TgNakFABdTX9vzV+cnP0DYDEOm/t8+ISdvzH3aUBrUgqAjq5cKrh1whtLw80dKwDozmF3l34xZP34/Kslt5j7NqC1KAVAR7Fz9/3SYXclmztWALAChz14y+41KQ+a+zagtSgFQEfLv9z/jvF/0XnmThUArMDovy7uWXOiq7lvA1qLUgB0kxSXdm+fh90hTiZ+BmBdNX26hIzOzsi73dzHAa1BKQC6ObYn7ZdOuyvBS4cKABbi2pSVnvd9cx8HtAalAOikvKQ8aI5jYWcnl38BWN+V6DGx/2Lu54DWoBQAnZQUlt3itAf3d3L5F4D11Qx7OuJJcz8HtAalAOikpLD8DqPTXOilIwUAyxn2TOQkcz8HtAalAOjECIB3Oexu7v8DEBA+fDpyhbmfA1qDUgB0knU+7z4jABaYO1EAsKKhT0acLMwrbWfu6wB/UwqATia+vfTn5g4UAKzKYXdlu8Zsvt/c1wH+phQAnUx8c2lHcwcKAFZlBMAc1+jNvzb3dYC/KQVAJxN7LnvZ3IECgFUZATDXNWpzR3NfB/ibUgB0YgTAD8wdKABYlbyn2TVqy1Pmvg7wN6UA6GRSz2UDzB0oAFhYoXvUlh7mvg7wN6UA6GRSz9hhXjpQALAqIwBufc3c1wH+phQAnUzuGTvCSwcKAFZVFDJq6xvmvg7wN6UA6IQACCDAEAChBaUA6IQACCDAEAChBaUA6IQACCDAEAChBaUA6IQACCDAEAChBaUA6IQACCDAEAChBaUA6IQACCDAEAChBaUA6IQA6Dt9O4eKoU9G1GvIE+Gid8cQ5fWtpf8jYco2mvV7OFR5XWM09LPxp4GPzle283oDu81XXmMVch/r20mffczPCIDQglIAdEIA9J3pH6wUJw5cqNeRnali9qB1yutbQx8jJER8vEPZxusl7jsvZg9er7y2MWY4Vonj+9OVdbem2DlxynbWGthtgVjpildeYxXxm06JSW8uU36vNoIACC0oBUAnBEDfmfvhRtGQVlNTI1KMg/TYV5Yo6/C3vg+HivXhh8ybWKeVl1V6QqL5tY0RPGKTqKyoMq+6VdvetSeU7aw1pHuEiN982vwSy7QrFwvEZ33XKL9XG0EAhBaUAqATAqDvNDQAylZVVS22RB8VfTu37mU6AqC6rRIB0NIIgNCCUgB0QgD0ncYEQNmKC8rEzP5rlfX4EwFQ3VaJAGhpBEBoQSkAOiEA+k5jA6Bs55KyxEfPRynr8hcCoLqtEgHQ0giA0IJSAHRCAPSdpgTAivJKsXXxUc+gA/P6/IEAqG6rRAC0NAIgtKAUAJ0QAH2nKQFQttzLRWLeiM2idwd1nS2NAKhuq0QAtDQCILSgFACdEAB9p6kBUI4KTk2+LEY85/9LwToFwLKSCnE8Ll3ErT/pFwtv8jvJOQJXzI0Xx/dnNJucliU/p8T86yqtpKjMc0vAmWOZzXZw21nx8Vuxyu/VRhAAoQWlAOiEAOg7TQ2AtW17bFKzJ1xuLJ0C4NWsQvFp79XKa61uaPcITyCrr506fFEMeqx1bgUIMARAaEEpADohAPpOcwNgYW6pJyiZ19uSCIAtjwDodwRAaEEpADohAPpOfQGwurpG1Eg1NeYfeZr82clDF8X412KUdbcUAmDLIwD6HQEQWlAKgE4IgL5TXwBMS84Wp49eMoJgtflH15r82Y7lx+t9Tq2vEABbHgHQ7wiA0IJSAHRCAPSd+gLg6SOXRMiYLaK0uNz8ozqtpLBMuEZuVtbfEgiALY8A6HcEQGhBKQA6IQD6Tn0BUJ4BHP96jIjbcOqGl4FrW8bpK2LYM5HKe/gaAbDlEQD9jgAILSgFQCcEQN+pLwBePHdVTHxjqZj05jJx+UKB+cd1mnxW8J41J1p8gmgCYMsjAPodARBaUAqATgiAvlNfAMy+kC8mvxkrBnSdLzYuPFxvIMrPKRbzJ2wTvTuGKO/lKwTAlkcA9DsCILSgFACdEAB9p74AmHu5WEx9d7ln2anvrRCXzl01L1KnycvE545nidF/Xay8l68QAFseAdDvCIDQglIAdEIA9J36AmBJYbmY0WvVteVj58SJinpCkQyB8ZtOtdgE0QTAlkcA9DsCILSgFACdEAB9p74AWFZaIT5xfhNw5PNmz5+8bF5MaRXllZ7Rw+b38wUCYMsjAPodARBaUAqATgiAvlNfAKyqrBaf9V1T5zULJmwz6jcPRvIs4NnELDHhjaXKezYXAbDlEQD9jgAILSgFQCcEQN+pLwDKIDer/9o6r5HhIGHzac9TQm7Wvh4VnCKGdA9X3rc5CIAtjwDodwRAaEEpADohAPpOfQFQtrnD1Gf9zh60Tly5ePNpYWSTE0hHTt2pvL45CIAtjwDodwRAaEEpADohAPpOQwJgyOgtyuvktDA7lx/3XCKur102guKIZ303QTQBsOURAP2OAAgtKAVAJwRA32lIAAyfuF15nSSneslKzzUvrjR5GXnfuhM+e1YwAbDlEQD9jgAILSgFQCcEQN9pSACMmnbjS7gLp+wQFeU3D0myFeWXiugZu0Tfzs2fGoYA2PIIgH5HAIQWlAKgEwKg7zQkAC7+dI/yuloyKBzbk2Z+idLkWcD0k5fF5DeXKetoLAJgyyMA+h0BEFpQCoBOCIC+05AAuHTWPuHsoL621uxB6z33+cmQd7NWXV3tmSC6/yNhyjoagwDY8giAfkcAhBaUAqATAqDvNCQAxn4Rd9MAKAPZuvmHRIURuuprMiQuNIJZ75usrz4EwJZHAPQ7AiC0oBQAnRAAfachAXCVK+GmAVAa+eIikZqcbX6p13bhbI74+K1YZR0NRQBseQRAvyMAQgtKAdAJAdB3GhIA14QcaNAZO7muhgwIqaysFnvXnRBDn4xQ1tEQOgVA+T4y+CbHZ7SodQsONfvSeWMQAP2OAAgtKAVAJwRA32lIAFy34GCDAmA/I5htWXys3tAkW1lJhVjy2R7Rp1OIsp766BQA/dUS954XA7v5L2gRAP2OAAgtKAVAJwRA32lIANwUdaRBAVCSz/49m5hZ74AQ2S5fyBcT/9b4ZwXLqWTkPYc3awTA5iEA+h0BEFpQCoBOCIC+4+sA2KdjiFgwaZsozC01r8ZrO7D1rOj3cOMubfY23mOVO8G8qjqNANg8BEC/IwBCC0oB0AkB0Hd8HQCl3h3dYltMomjASUBRVlIuln2xr1ETRHsCoIsA2JIIgH5HAIQWlAKgEwKg77REAJRGvhAtLqbW/5g42S6euyqm91qlrONGCIAtjwDodwRAaEEpADohAPpOSwVAOW2MfIZwSVG5eXVKq66qFvs3nmpwkCAAtjwCoN8RAKEFpQDohADoOw0JgJujmxAADYO6zRdfxTRsVLAcNHKzR85dr3eHELEyON68ijrNXwFQXsJOiksXcetPtahls/eJfl0ad69kcxAA/Y4ACC0oBUAnBEDfaUgA3LY0qUkBUJKjglOPZzd8VHDPhj0rePmc/eaX12n+CoBMBE0A9BECILSgFACdEAB9pyEBcEfs8SYHQHkp2D1qc4MCYFVlldi79oQY/Hi4uh6TZbPjzC+v0wiAzUMA9DsCILSgFACdEAB9p8UDoF1esnWLPWtSPPf63azJkCjvGYz+ZHe9E0TLSaSrKm+8PgJg8xAA/Y4ACC0oBUAnBEDf8UcAlCa8vlSkpVw2r9pru3j2ar0TRMv7BQmALYcA6HcEQGhBKQA6IQD6jr8CoDyjFzl1pyjMq3+CaHkmcMfy48o6rhc1bacn5N2oEQCbhwDodwRAaEEpADohAPqOvwKgNOCR+WLXyuR6LwXLJi8Fzx60XllHrYVTdnieJ3yjRgBsHgKg3xEAoQWlAOiEAOg7/gyAkpwgOjOt/gmia6prRHJ8hvjo+WhlHVL4pO2itPjGcwwSAJuHAOh3BEBoQSkAOiEA+o6/A6Akg9nNLt/WttKicrF0tvfHxIWO3SqK8m98OZkA2DwEQL8jAEILSgHQCQHQd1ojAA55PFzsWpUsquq5FCzvBcw8nysmvxWrrCP4o80iP6fY/JJrjQDYPARAvyMAQgtKAdAJAdB3WiMASpN6LhPnkrIaND9g3PqTyvt/MWSDJ3zdqBEAm4cA6HcEQGhBKQA6IQD6TmsFwN4d3SJ88nZRVnrjgRy1Td7rN/39lXVe/3n/teLyxXzzotcaAbB5CIB+RwCEFpQCoBMCoO+0VgCU5LNtEzafrvcsYHV1jTi845wY2O2boDGj1yqRmZZnXvRaIwA2DwHQ7wiA0IJSAHRCAPSd1gyA0piXF4sLZ3LMb6k0OeAjcuoO0bvj108ImfLOcnHh7I1fRwBsHgKg3xEAoQWlAOiEAOg7rR0APRNET6l/gmh5lvDEgQti1ItfTwsz4Y2l4vyJGz9ZhADYPARAvyMAQgtKAdAJAdB3WjsASkOeiBD7N56qd1RwRXmVWPLZbs9rRr64SJw5lmle5FojADYPAdDvCIDQglIAdEIA9B0dAqA09pUlDboUnJtdJIY9vVAM6R4uUg5cMP/4WiMANg8B0O8IgNCCUgB0QgD0HV0CoCSf7lFRXv8E0SvnxYt+D4eKxL1p5h9dawTA5iEA+h0BEFpQCoBOCIC+o1MAHGwECTkquL6WceqK54zhwa/O3HAEMQGweQiAfkcAhBaUAqATAqDv6BQAJTlBdGrK5RsGO9lkKNsUdUTsXXvihvcNEgCbhwDodwRAaEEpADohAPqObgFQjgqOmrZTFBeUmTejTrt47qpnVDABsGUQAP2OAAgtKAVAJwRA39EtAEqDui0QB7fePHzI4CefEHKjM4UEwOYhAPodARBaUAqATtpiAOz/SJgY1WORmPD6UjHu1Rgx7JlIz9ky83KNpWMAlEb2iBaXLxaYN6XBjQDYPARAvyMAQgtKAdBJWwuA41+LERsXHhbnkrJE7uUiceVCgTi257xY9Mluzxx65uUbQ9cAKJ/4ETVtlygpLDdvToMaAbB5CIB+RwCEFpQCoJO2FAA/fnu5OL4/3eu9biVF5WLXyhTPlCjm1zWUrgFQ+vCpCBG/6bTX372+RgBsHgKg3xEAoQWlAOikrQTA4c9EiiM7zonqau/3uclWXlopVszdf+0ZuY2lcwCUPn4rVmScvmLepHqbvwKgfJ/TRy6JIztT/WbrkmOeS+Tm7fUlAqDfEQChBaUA6KStBMAvBm8QFWX1T4x8NjFLjHlpsfL6htA9AErhE7eJqsrGnQX0VwBsjZZxOsczXY55e32JAOh3BEBoQSkAOmkrAXC1K0E0pOVcKhCzB65TXt8QVgiAcgDM0V03fuqHt0YAbB4CoN8RAKEFpQDopK0EwC2LjomGtPwrxWLesE3K6xvCCgFQmvruCnHx7NUbTvtibgTA5iEA+h0BEFpQCoBO2koAjJ6xWzQk72SezxWfOFYpr28IqwRAOeVN9LRdoii/1Lx5XhsBsHkIgH5HAIQWlAKgk7YSAKe8s1xczS4SN2tygMiRXaliaBOng7FKAJSGGKHkwJYzNx0UU9sIgM1DAPQ7AiC0oBQAnbSVADiga5hYN/+gKCut8HrpU9bk5d+Z/Zt2/59kpQAojXt1ici/WmLeRKURAJuHAOh3BEBoQSkAOmkrAVAa8ni4WBN6QORkFtQJgRXlVSL91BXhHrVFeU1jTHtvhUjcd16RFJcukuMzPBZ/tkd5XWuaP+ErZXvNDu88J2YOaHowlqZ/sNJzdtW87ta2fVmSGPXiImV7fWngo/PFynn7lfc22xR52DNIx/x6NBoBEFpQCoBO2lIAlPp1CRNfDFrvCYJ7VqeIHbFJYsnne8Tkt2JFnybO/1dL3ls3sNsCxWAjeA59MsJjgBEGzK9rTb07upXtVRjb3NxH5Xk+m0e9rLuVyTPD/jgj29/Y78zvbUb48xkCILSgFACdtLUAWKtv51DP5TYZbpo68TMALREAoQWlAOikrQZAAAGLAAgtKAVAJwRAAAGGAAgtKAVAJwRAAAGGAAgtKAVAJwRAAAGGAAgtKAVAJwRAAAGGAAgtKAVAJwRAAAGGAAgtKAVAJwRAAAGGAAgtKAVAJwRAAAGGAAgtKAVAJwRAAAGGAAgtKAVAJwRAAAGGAAgtKAVAJwRAAAGGAAgtKAVAJwRAAAGGAAgtKAVAJwTAwNa7Y4jo/0iYGPTYAjHkiXAP+e+Dui3w1OXPza8BLI4ACC0oBUAnBMDA07dTiBj3yhIxd9hGseTzvWLr4mMifvNpcWRXqjiy45xIMP49bv0psSX6qFj86R4xZ+gGMf71paJPJ8IgAgIBEFpQCoBOCICBo7cR4KZ/sFJsNoLd6aOXRGFeqaiurhY3a/LnBVdLxLmkbE8gHPPSYmW9gMUQAKEFpQDohABofX06hoiRL0SL7cuSRH5OiaisqBI1NTWisS3nUoGY/OYyZf2AxRAAoQWlAOiEAGht/buEiZDRW0TGqSuiuloNfTIM5mYXiXTj52eOZYqThy6K00czRWpytsg6nydKi8uvLSvPGvbtzGVgWB4BEFpQCoBOCIDWFjNrr7iaVSjMraSwXCRsOeO5B3DOkPVi8puxnsu7Hz0fJUb/dZEY/3qM+MS5SsyfsM1zyTjtxGWxNvSAsn7AggiA0IJSAHRCALQmedk3atpOUZRfKmqbvOxbXlohjuxMFTMcq8SQ7hENGuUrRwPLS8hyhLD5Z4AFEQChBaUA6IQAaD1ytG7Y2K0i93KRuL7lZBaI6Om7PIHO/BqgDSEAQgtKAdAJAdB65OXb1OPZ4vomzwTOH7/Nc2bQvDzQxhAAoQWlAOiEAGg9WxcfFdVV30zvUlFeJVYGx4u+D4cqy/pFB7fo/X+Un7UE+T5Nea/abWzKa2ElBEBoQSkAOiEAWsu4V5d4RvbWNjmPnxzsMeyphcqyLUWGqKFPRojJb8V6JpuWk0mvciWIlfP2i4VTdohZA9Z5zlIOfHS+8tqbGf5MpJjw+lIP+Xte/3p52Xv0i4vErIHrRMzMvWL5l/vFKOO/zeu4Xu8OIWLY05Fi6rsrhHvkZs/r5HYu+WyvCB6xWUx5Z7kY2j1CeR0sjwAILSgFQCcEQAsxgtemyCN15vgryC0R7lGb1WVbyKDHwkXklJ1G6DwtstPzRI2XqWfkGUk57cy2pYlithHY+nZu2JnJZbP3eaazkeR0NZ/3W+upyyC4aMYuT628tPLa+8jwaV5HLRnsoqbuFIe2nfVMg2OeFlFu99XMQhG3/qSYN3wT900GFgIgtKAUAJ0QAK1j+LOR4lxSVp0AmHo8y/NsX/OyLWHCG0vFga/OiuKCsgZNNF1VVe0JWRsiDot+Dbg8vW7+wWuvLcovM4LtVs89jTL0yvc0txsFwJE9oj2PvWvIdsq5E/MuF3u20bweWBYBEFpQCoBOCIDWIc9U5V0pFte3la54ZTlf693RLYJHbBJZGfl1ApUMeFcuFYjzJy6Ls8cyPeH0UmquZw7COstVVotD28+JUT1ufsl2xdz9114jw5s807hyXrxnahtvzRwA5ZQ3nzhWiYxTOXXOTMrtyTiTIxL3nfecuZQTYl/NKvJsf22Tl9I3RR1p9GVraIkACC0oBUAnBEDriP0iTpSXfXMJVLZPnKuV5Xxt2nsrRLYR/q5v8qzZjtgk8anx/kOeiPDcFyjP8sl7/6Km7RLnTKOU5X2Lu1en3HSuQXmPXm2ToW3H8uOeS8m1TT6zOGlfuti5Itl47+PKY+vGvrJEnDx44Vr4kwNl0lIui0Wf7PLcL1g7SEWGPHmf4t51Jzzh9Pr1L5iwzRN4zdsGSyEAQgtKAdAJAdAa+nQKFVsWHVPOwMnBGOZlfWnwY+FG6Dp/7T1lk/fULfx4hxGkbnzpecq7y40wdrHO68pKKkT4pO3KsrXkHIa1TQbdrPQ8z/2E8vdMic8QXw7dID56Ptpzv16/LmGegSHXv37b0qRrgU6Gv6S4dGM7Vtww0MnPbvuy49fOBMrPVr5GXkI2LwtLIQBCC0oB0AkB0BrkfX57154Q1zcZxFpy8IIMTktn7ROlxd9cgq0wglnElB0NesKIHH0rHzF3fWi9fCFfDH7c+1nAqKnfBED5Go/qGs9l2/ruc5z05jJRWf7N2dG0lGwx+qWbX3KWZKA8ujP12lnDSiNwho7ZqiwHSyEAQgtKAdAJAdAa5KXT/RtPievbxXNXRf8uLRcA5ePhkuMz6rynvMRqPvN2I/KS67Iv4jxn/mqbDGkRk3coy0rXB8DaJn/H+oKcDKryknBtiJPBUU6KbV7uRuT2yEEntS1uw6kG/47QEgEQWlAKgE4IgNYgz5rJYHJ9u3Amp0UD4OxB60V+zjeDTr4OVl8py93MqB7RnkfU1TY52OLA1jNep4YxB0D5fqvdCcayNw9j8pJtWvI3ZxqvZhV6noNsXu5GJr8ZKzLTcq+9b9b5vAaNWoa2CIDQglIAdEIAtAY5cGH3qhRxfcs8n9tiAVCeAVv2xb46l2+z0vI8EzSbl61PwubT19Yh15eanC3GvLRYWc4cAAvzSjz3/ZmXM5OjgeWglNp2aPtZMaDrfM/v0BDyTOf1g03k1DAf+nFibfgcARBaUAqATgiA1iDPSG2LSRLXN3nZsqXuAZQBas/quoHzyM7UJgWjxZ/tqbMeOaL4sz5rlOXMAVBOKTPtvZXKcmZy9PD1o6PPJmWJVcHxnmllGkLOAZh3uei6dxaeewrN7wPLIABCC0oB0AkB0DrWhB6s8wxgeabqoxeilOV8YfDjC0TinrRr7yWbnJalKfPkfTF4fZ315BphyzyHn2QOgHIqGflYOPNy15P3Ga5fcKjeCZ8b26Z/UH/whLYIgNCCUgB0QgC0jsipO0VxYd0nYshn2pqX8wU56OTU4brTuMgncsjpV8zL1mfqeyvqrEfOt+cevUVZzhwAzyZmifGvxSjLXa/vw6Fi65JjdV7nizapJ2cALYwACC0oBUAnBEDrkJM+X75Yd0LmPatPeJ4RbF62uT58cqHnXr3r25boo0265Dzt/ZV11lOUXyrCxqmDSZoSAOX2bF9W99J4xukcEb/5tIjf1HRDn2z8pW5ogwAILSgFQCcEQOuQI1vlY8yuv9zpmSblrzefJqUp5CTJ545nXXsf2eSTPOqbj8+beSM21VlPQW6JCBmtzrXXlAA44NH5nieDXN/WhBxgGpe2jQAILSgFQCcEQGtZN7/u/W5yjj05kKEhEzM3hpx2JnFv3SeAJMeni+HPRirL1md1SEKd9Vy5WCBm9l+rLNeUACink9kcfbTOZyLvVexTz9QxCGgEQGhBKQA6IQBai5zzrsR0H6CcD/ATxypl2eaQ9/ptijpS533kmbsp7yxXlr0ZOXr51JFv7iWUOe1cUpbn2bzmZZsSAKUln+0V5aXfjAKWl4AHdmv8YBUEDAIgtKAUAJ0QAK1n5/Lj4vomRwMf3Z0mhj3t2/vWQsduFaXF5XXeS07MbF7uZj7tvdoz6KO2yefuyullvF2ibWoAnNlvreesYm2TzwOeNXCdshzaDAIgtKAUAJ0QAK1n8luxnrNc11/2lKEnYdNp8eFTDX8CRn3GvRojzhyte8/h1ezCBl8GHtRNPr84xRP6apu8ZD1rgPdw1tQAONB4n+Nx6XW2MyUhg4EcbRcBEFpQCoBOCIDWFPzRZpGTWVgn9MgzgfLyqhx0MeSJxgVBeS+dtxG+iz7ZLUqLvjkLKN9DPmljxPM3n39QrmvlvP11ziDKbZVPBTEvW6upAVCaPXCdKCu97pnDFVVi34ZTnkfRmZdFwCMAQgtKAdAJAdCa5L11cl7AkuvCWW2Tl1zlc4PDxn/lCVDenrvr0cHtuRdPTsq8bsEhET5xu7LM0O4RRuA7V2f9Mmjt33jqhnPlyTkEV8yL9zzK7fqWceqK5+yleflazQmAvTu6xb51Jz3PGq5tFWWVnqeXfN53jddLztcb9nSk+PLDjWLsK41/1B20QwCEFpQCoBMCoHXJEBg9fZdnXj1zk2fbCvNKPdPEpCRcELtWJYv1EYfEaleC2LjwsGfqFHnZVD4DN+9KsaisrBbJ+9OV95AmGCHswtmrddYvz7BlpuZ6RvjKASijeiwyAmGsiJ6x21jveeXewSuXCoRr5JabBrHmBEBJPqdYjlS+/qxoTXWNZ+7EA1vPiEXGtsnRx5/0Xu25DO0auVnEfhkn9m86LVKTL3vuI5Sfp3m9sBwCILSgFACdEACtb8o7seLwjnOiuKDu6ODGNhmAxr68WFm/NM4IYvI9rh9t25Am702U4UqGLvM6zZobAKWRL0SLuA0nPfcaNqXtXHFc9O+qXgqHpRAAoQWlAOiEABgY5Lx9C6fs8FzyzM8prnMWrCFNni2UT8+4WeD66PloscoVL7Iz8utdv/z51cxCsSP2uJjwt5s/z7eWLwKgJCfMltspz1pePwDlZk1ub97lIrFu/kHPZ2leJyyFAAgtKAVAJwTAwNG7g1sMfyZSzOi1SiybHScObTsnLp3LFeXXDY6QTV4WLSks98wfuH/DSbHk8z3isz5rxIjnouqdUFo+e1c+2zd2zn7PpeXrz7TJTCj/Wz5Cbl3YQWM7VjbqySGfOFZ7Lk3Xkpdnmzq1jbw8Lu9RXPzZHpEcnyGKCso823d9KyuRn8EVcWDLGbF05l4x/f2VnveTn6N5fbAUAiC0oBQAnRAAA5MMMX07hXqCUP8uYUYQCxcfPrXQY0j3cE9N/kzek9eUwONZf+dQMaDrfCM4RnoeRyfPEMr/liGxviDplbFOuT21mrQOk9rtlKOS5e8+sseirz+DJ5r/GUBbBEBoQSkAOiEAAggwBEBoQSkAOiEAAggwBEBoQSkAOpnUM3a4lw4UAKyq0D1q6+vmvg7wN6UA6GRSz2UDvHSgAGBVRgDc0sPc1wH+phQAnUzsuewDLx0oAFiSw+4ucI3a8pS5rwP8TSkAOjEC4CvmDhQArMphc+W6Rm7uaO7rAH9TCoBOJr65tJO5AwUAy7K5ctwjN//a3NcB/qYUAJ1MfHvpL5QOFAAsymF3ZbvGbP6Rua8D/E0pADrJOJPzHYfdXWjuRAHAioZ0jziVe6WovbmvA/xNKQA6KSksv8sIgAfNnSgAWNGHT0euNPdzQGtQCoBOjAB4h9FpRpk7UQCwomHPRE4293NAa1AKgE5KCstucdiDBxkdZ425IwUAi6kZ9nTEM+Z+DmgNSgHQSXlJedDMd+c/bHSc+V46UwCwkpyI4Uv+xdzPAa1BKQC6ObYn7ZdOu+uAl84UACzEtSUrPe8H5j4OaA1KAdDNsb2p33F2CJ7v5DIwAOuqcXR0jTMC4B3mPg5oDUoB0NHyL/e/6+AyMACLMvqvS3vWnOhm7tuA1qIUAB3Fzo37tcPuSjF3qgBgBUb/9dXuNSn/ZO7bgNaiFAAdZWXk3Tb+tZhIc6cKABZQNmvg2km5l4tuMfdtQGtRCoCupr+3uoPRkVZ66VwBQFsOmzs9fOKO35v7NKA1KQVAV9sXnbjNYXfHmztXANDZoMfCow5uSuPxb9CKUgB0VVVVHdTHPu9tJ2cBAVhHxbiXouzm/gxobUoB0FVNTU3Qsd1p/+Swuzc5mRIGgP6qjf4qOist99vm/gxobUoB0Flmen77Ke+vfNPoWHO8dLYAoJP0mYPWP1JcWK70ZUBrUwqA7lZHJNzfq0PweidnAQHoq7JXp2BX/LbT95n7MEAHSgHQXWlJeVDI2K3/Y3SweV46XQBodX07hx6PnbP/1+VllUofBuhAKQBW0b+ze6rR0VaYO14AaGXlk/8W8465zwJ0ohQAq1gbkvBTo6Pd6qXzBYDWFJOw6dS95j4L0IlSAKyioryq/cp58Y86be6TTu4HBND6qo3+KGHXqpT/rK6uUfosQCdKAbCSxF0X2n/0bPTbTpuL+wEBtDLXufGvxD51PiWnnbmvAnSjFACrSYpL+1b/R8JmOOX/fSsdMgD4RdWov0Z/cDYx83ZzHwXoSCkAVnRsb9qP+3UJi3DaGBQCwM9s7rIBXed/mnk+905z3wToSikAVpUUl/4PI56LWuCwu8uVDhoAWoDR3xSOezVm2oXTOd8190mAzpQCYGXH9pz/l0GPLVhk7qQBoAVUjXl5yfQziVk/MfdFgO6UAmB1SfvO/1Ofju5FTpu7ysDoYAC+JfsVm7tiQJewmZdSc79j7oMAK1AKQCBISbjwdyOejZrgsLmvKJ03ADRdjdGvnB/7cky/zLTcu819D2AVSgEIFMf2nL978BMLejlsrgteOnEAaLReDwWnjHll0QtnE7O+Ze5zACtRCkAgObwn8/b//MeDTzjtrv1OpokB0HRVRj+y6b/+LeXPGaevtDf3NYDVKAUgkNTUiKCqqpqgbTHHfjC4a/DHRid+0UkQBNBw1Q578MnhT4UOPLzj7H2yPzH3M4AVKQUgUO1bFndLyJgtzxj/F7/aYXcXe+noAeAao5/IddqDFy2escN2bMsxnu6BgKIUgEBWmFfSPnFv2gMTei57x+jcuTcQgFdG/3B49uD1rxj9xf3lZZVKXwJYnVIA2oLy0sr2s94OfXD4M5HTHA+5zjptXBYG2jybu8LoD1JG9Vg0YuHwxd+tKK/irB8CllIA2pLj+8/fsviz3X/p1zEk2uj8c5QDAoC2webOGvZkxOeLP931+/RTlxnkgYCnFIC26OiOcz+I+HjHyw67e7fTM9rPywECQCAqM77361a5Ep46kZBxj7lvAAKVUgDaKnlZeMWX8d8d89dFAxw292mn3SWfKcyTRIDAY3yvXSUOu+v4xDeWvrgtJvG+ygou96JtUQpAW5efW9IufNquX459efEnTpsr1cvBA4BluaqN73XS1HeXj42YsftB8/cfaCuUAoCvnTmaefdXMYldHHb3CuPAUaIeSABYTGG/LmGhcetP/unCmRye5IE2TSkA+EZ1VXW7vatOf2/kszEv9u0UkuC0uUu9HFQA6MzmLuzfJWzLqGeWdkuJv3Sv+XsOtEVKAYB3K+ft/95nfdaMNg4oiYYK5SADQDfyf9gS5n640bFt6bG7zd9poC1TCgBuLCez8Pbgj5f9sU/XLz8xDixFXg44APRwsV/32WMjZ238dUlR+S3m7zLQ1ikFADdXWFgYdDH1yj0jHot4pH+XsE1Om8sIgi5GCwOtzjPAo2Bg1/nLpr0e+4fM9Ct3lpSUKN9hAARAoFkObTt7V/BHm17p3dEV5/z6cpOXgxIAPyga9Nj8dcb3sfvZY5l3mL+rAOpSCgAab+Wc3T/vb585xmFzneGxcoAf2dxVxvfu6ED7Z4P2rE7+e/N3E4B3SgFA45WXlgelp1y6c+aA1b/t+3BopFOeDbQxiTTQYr7+H63ivl1Cp0Z8vO0XGSkXb6+uqla+mwC8UwoAmicnq/DW2YPWdxn+TORKp82Vpxy4ADRHjfG9yhrz0uLo2YPX/6m6ukb5DgKon1IA4BtHdqbe/9GzUb2cNvcBQ6WXAxmAxrC5KwzbJ/eMffH0kUvfNX/nADScUgDgO+knr9y62p3wK6c9eLLT7spXDmgAGkI+u/eC8T0auntV8r9mpuUp3zUAjaMUALQM19jtP3vpv2KiHHZ3pnFAY6AIUL8q4/uS/tKfYmevdCf82PydAtB0SgFAyyguFkFTx1+9d9q7a15w2tyrjIMbl4WBGzCCX6HzoZCoOYM2PTZ9SgnTugA+phQAtKys1Px2x3adf8BhDx5gHOTOmQ98QFtnfC+Shj4V8erxfRn352YVK98hAM2nFAC0vJqamqDy0sr225cl/eOQZ0MmyctcxoGvynwgBNqQSmeH4OPDeywYcmRX6g8ryirbmb83AHxHKQDwr/379weFjtnapc9DroVOmyuH+QPRpsj93ea6YOz/wYtn7vh9YmKi8h0B4HtKAYD/FeeXBR3dfu6HU95d8ZxxMExQDpJAoLK51swdvukxY///TmVFlfLdANAylAKA1lNaVN7uXFLWD0c8EzGgtz040TPvmfmACViZ54yfu6S3fd6BUT2i3sq7XHxPWWkFl3sBP1MKAFrf2UNng2Kmb/3FwEfDZjrs7vNOzzxoXg6mgLXUOGyukx89Hzly6fRN/5ydmq3s+wD8QykA0MeRXefujpy+8zGHLTjGaXOXejmgAtZgc+f3sgeHrgk90OHEwYxbzfs6AP9SCgD0UlZS0e5qVuG90x2revTuEHLEYXeXODkjCGuoMfbXoj6dQneFjfuqk7Ef31NZUcXlXkADSgGAnkqLyoMWz9jzk3GvxQx32txH5MHVywEX0IPn/lXXnqnvr+i9Yk78feb9GUDrUgoA9HY2KfO27cuS/tjL7p5nHGhzlAMv0PoyBz4ePnH36pRfXkq9eot5HwbQ+pQCAP1VV9cErVic9+1n/mffw307hW5wclkYrU+O7s3t3yVsUZffJf7v4f35d5r3WwD6UAoArGXN3GO3ftZnzQcOm3vP/90faD4wAy3K2O8KjP1v69whG5/etfQUZ/wAC1AKAKwnN7volq1LEv9j3GtLhhkH4wzzARpoKcb+duyTPqv7Gvvfg2Wllcq+CUBPSgGAdWVn5N8xbuDMP/Z7ODTKODjnOW0uLgvD92yuauOfOf0fCZ0za0rIz4z/AbndvC8C0JtSAGB9R/acv3XOhxs79+kUssFpd+UpB3CgyVw5gx9fsNDYv/6UdvJKe/O+B8AalAKAwPHV0sQfB3+0qbfD5oo3Dt6V6sEcaLCyXjbXtqhpO9+M23jqHvO+BsBalAKAwJKfU3x76JDF/9a3Y/AUp91V6Px6tDCXhtEQtftKzoCOc/ovm77hwZKicgZ5AAFAKQAITIW5JUEzB6z57fDnIhc47K5LXg72wPWqjf0kbczLi2d9OWz9g+b9CYC1KQUAge3ontR7YufEvWAc4Dc77S6eLwwvXEUDuoYtWR2S0OVsYibz+QEBSCkACHxVldXtNkUe+af+XcL6Ggf7NDUAoI2qNvaHY4O6zu+ZsPn0j8z7DYDAoRQAtA011TVBlRVV7RZ+vO3741+Lmfl/QZCBIm1TufH3P/Px28uGrQ2Nv0/uFzU1Nco+AyBwKAUAbU92et4dg17Z1/H1P0WHOm1uOVDEHBAQqGzuSy/+IXbWxN77/lhSWM60LkAboRQAtE0pKSIo7qusv+v1qOtVIxjIaWOqlLCAQCLP9m4d9mpk112bc+5LT1f3CQCBSykAaNuKC8va71yR9IOJPWN69+4Ycsppk5cHlfAAq7K5y/o/EhZv/H1fS9yb+t3S4nJlHwAQ+JQCANSKmr7tt/2enD3LaXOlGcFBPv5LDRSwBps8o+s60f/ZmR9vijz8gPlvDaBtUQoAUKu0tDTo8P7ke2f0WfOwESCWO7ksbE02V4Xxz7nuMVv/cuRA0reqq6uVvzWAtkUpAIBZcUFZUFrK5e+MemnRKwO7LYgzwmCJEjKgF5u7Rg7oGdo94quxry7plne5+K7S4grlbwugbVIKAHAze9ed+MnwbvNGGOEi2cm0MbqqcNpc8WOfD3s/KS7978x/QwBQCgBQn6Ttybcu+XT3X3p3cH1hBME8LwEErUOe9bto/F0mr19w4P87k3BG+dsBgKQUAKAhykoqgrIz8u/5rM9q25AnInY47K4ip91V4yWUoMW55HN7Cz58KiJmwYSv/mD8Xe6srKhS/mYAUEspAEBjpZ+6cu/4Nxa/7bTP226EES4L+5URvDvMWzf1g9gXCq6W3G7+2wCAN0oBAJriXPKldjuWJ/6sl909wQgmqU55OVIJK/Ah+fmmDH1qYZ8dy4/9Y2Z6jvI3AYAbUQoA0BwZZ3LujP0y7o/v28IXOB7yPFaO+QN9q7rXQyHZjo7hn29blvTrzPN5t5n/BgBQH6UAAL4werQImuZY/0Svjq71RmiRA0U4I9g88vPLNj7P2EnOvf81b576mQNAQykFAPCV/NzioI1LDv/9pDdj3nfagw95CTVoEDm4JnjzzAFrXtsYc/jvKisZ4AGgeZQCAPhadnrerQe/OvuLvp1CZhhh5rJnkmIl5KCOrydyrjY+r4v9OoeMPJeU9Q9XswtvMX+2ANAUSgEAWsrJkyeDvhy37Df9H5m/0GF3Zzu5LHwjNQ6b+/yQJxd+Gjw15qeZmZnKZwkAzaEUAKClbVuefI975JZXnTa3vD+w1EsAasvynQ+5l0ZP3/1k/Nazt5o/OwDwBaUAAP5QcLXklpMHLz4w6q+LextBMNNLEGpzHDb3yU/7rHnV+Fx+VFpc0c78mQGArygFAPCn0sLSoC97hT8w4rnoaUYQPONsa5eFbe5Kh919fMxLSz5aMHTRd6ura5TPCAB8TSkAQGtI3Jd+W+ycOLvD5l5iBKNcJSgFpqxB3cLnLJ8b/1+pKZcZ4AHAb5QCALSWmpqaoMQ95+8PG//Vyw6bK94RoKOFjd+rwvj9Ni//cv9TJw9evM/8OQBAS1MKANDaKiuq2kV+suXbY19ZPNRhd58wQlO50/qXhuX2lxi/z7GJPWNeXRcRd3dVZTX3+QFoFUoBAHRx5VJh+8Wf7/3tqL8ummEEpwteQpVlGNuf8vHby8cZv8+/lpdVKr8rAPiTUgAA3Zw5lnn3n//9WDeHzb3GCFJl5nClM2N7i43tjur25zN/yjiT8y3z7wYArUEpAICOLmdXt9ux9vh9Y95Y3KNPp5CDRrgqcup7WbjGCH75/buGbR7dc9GjifHn78nJYXQvAH0oBQDQ3fJ5++//rO/qIQ67a6/T7tLpjKARSF2FDnvwV3OHb/xgy5Jjd5u3HQB0oBQAwAouX8y/NW7DyV+MeCbKaQSvBEOll0DmTxWGLVPeXv7Gvg0nflqYV9LevM0AoAulAABWkptddOveDSd+POyFyKdGPBe12GFzZzltrmIjjFV7CWm+VGW8T2HvjiFpI56Pdn/YY2GXlIMXvl9wleAHQH9KAQCsqrKiKihs3Lafh437yvnhkwsjjDB40Gl3ZTl9d3awwljfRWO9e0e/tDjEeJ+3l3y29wHzdgCA7pQCAASCIzvTvrVzRfJvd6443n1SzyV9HXZXsBHgNjttrlNOm2cAiTncmdUYy+UZyycb/77eeP3nMwes6WWs77Gdy5P//eThS7eb3xMArEIpAECguZpVcMvFc1fvNdxv+Kek/Rn/3u+JiD8OfSL88SHdF/x1aPfwnkO6h78ztPuCvxn//aJR79bvyYV/MJb9N8ODhh8a7snPKebyLoCAoBQAAAAQ2JQCAAAAAptSAAAAQGBTCgAAAAhsSgEAAACBTSkAAAAgsP3/zjyeWSBQGPcAAAAASUVORK5CYII=;" vertex="1" parent="xbgkux6oHdEF29ycn-ZW-11">
          <mxGeometry y="34.06" width="56.67" height="31.88" as="geometry" />
        </mxCell>
        <mxCell id="xbgkux6oHdEF29ycn-ZW-15" value="&lt;font face=&quot;Verdana&quot;&gt;Backend&lt;/font&gt;" style="text;html=1;align=center;verticalAlign=middle;whiteSpace=wrap;rounded=0;" vertex="1" parent="xbgkux6oHdEF29ycn-ZW-11">
          <mxGeometry x="20" width="60" height="30" as="geometry" />
        </mxCell>
        <mxCell id="xbgkux6oHdEF29ycn-ZW-16" value="" style="endArrow=classic;html=1;rounded=0;exitX=0.5;exitY=1;exitDx=0;exitDy=0;entryX=0.5;entryY=0;entryDx=0;entryDy=0;" edge="1" parent="1" source="xbgkux6oHdEF29ycn-ZW-9" target="xbgkux6oHdEF29ycn-ZW-11">
          <mxGeometry width="50" height="50" relative="1" as="geometry">
            <mxPoint x="360" y="240" as="sourcePoint" />
            <mxPoint x="410" y="190" as="targetPoint" />
          </mxGeometry>
        </mxCell>
        <mxCell id="xbgkux6oHdEF29ycn-ZW-17" value="Extrae Data" style="edgeLabel;html=1;align=center;verticalAlign=middle;resizable=0;points=[];" vertex="1" connectable="0" parent="xbgkux6oHdEF29ycn-ZW-16">
          <mxGeometry x="-0.4694" y="2" relative="1" as="geometry">
            <mxPoint as="offset" />
          </mxGeometry>
        </mxCell>
        <mxCell id="xbgkux6oHdEF29ycn-ZW-18" value="Bodega de Datos" style="shape=datastore;whiteSpace=wrap;html=1;fillColor=#e1d5e7;strokeColor=#9673a6;" vertex="1" parent="1">
          <mxGeometry x="383" y="277" width="60" height="60" as="geometry" />
        </mxCell>
        <mxCell id="xbgkux6oHdEF29ycn-ZW-22" value="" style="sketch=0;pointerEvents=1;shadow=0;dashed=0;html=1;strokeColor=none;fillColor=#005F4B;labelPosition=center;verticalLabelPosition=bottom;verticalAlign=top;align=center;outlineConnect=0;shape=mxgraph.veeam2.sql_server;" vertex="1" parent="1">
          <mxGeometry x="390" y="340" width="40" height="49" as="geometry" />
        </mxCell>
        <mxCell id="xbgkux6oHdEF29ycn-ZW-27" style="edgeStyle=orthogonalEdgeStyle;rounded=0;orthogonalLoop=1;jettySize=auto;html=1;exitX=0.5;exitY=1;exitDx=0;exitDy=0;entryX=1.014;entryY=0.532;entryDx=0;entryDy=0;entryPerimeter=0;" edge="1" parent="1" source="xbgkux6oHdEF29ycn-ZW-23" target="xbgkux6oHdEF29ycn-ZW-18">
          <mxGeometry relative="1" as="geometry" />
        </mxCell>
        <mxCell id="xbgkux6oHdEF29ycn-ZW-23" value="" style="swimlane;startSize=0;" vertex="1" parent="1">
          <mxGeometry x="510" y="207" width="120" height="70" as="geometry" />
        </mxCell>
        <mxCell id="xbgkux6oHdEF29ycn-ZW-25" value="" style="shape=image;verticalLabelPosition=bottom;labelBackgroundColor=default;verticalAlign=top;aspect=fixed;imageAspect=0;image=data:image/png,iVBORw0KGgoAAAANSUhEUgAAAoAAAAFoCAYAAADHMkpRAABD3ElEQVR4Xu3dB3wU953/f4FbXGInuSROcufz3eUud+n/JHfJ3SU/71KMMbZxN457cDe79GbA9GaaC2AM2pUEEpIAgegdTAch0SUkuoQESAKh3sv3P9/1CaP5LqitVt9Zvb6Px/Nh+6PZ2dFq9jtvz8z3O0FCiCAAAAC0HUoBAAAAgU0pAAAAILApBQAAAAQ2pQAAAIDAphQAAAAQ2JQCAAAAAptSAAAAQGBTCgAAAAhsSgEAAk3B1eL2Vy4W3G34nuFHp45c+sfBz0f/+qPnozqNeD7yKeOfL454PurVj56P7GH8d3fjv+2DX4j+hbHsA4b7Dd813FmUX9revG4AsCKlAACBICku44649ad+Gbf+5COT34p512F3zXba3eudNtcJp81daPy7qEeNsVyusXyS8e+rjddP/WLw2p7G+job6/3pmcSs283vCQBWoRQAwKoqK6qCFk7Z9bPIKTveGfZ0ZLDD5o5z2l2XjABX6SXgNUW5sb50Y73bx74a84XxPq8v/3L/35u3AwB0pxQAwEqK8kpvSdh25nujX13cZczLS8KMcJbmtLnyjbBW7SXA+VKV8T55vTuFnBj76pKZo15b9JezSVn3lhSWtzNvIwDoRikAgBXkZBbcenDb2Z999Fz020YYi3P67ixfU1UYNkx7d8WLB7edeZD7BQHoTCkAgO5Wzz/wg1kD1/Vz2F07nHZXqZcw1lpqjO0pcNiDN7hHb3lz+/Kku8zbDgA6UAoAoKPCwpqgvVtO3jXpvWXd+3YO3W2ErYKvA5cSwnRQ47C7rw7sNn/VhPeX2k8cvXhHcVGN8jsBQGtRCgCgm7SUy3f998+Od3LY3CuMYKXTGb96GdtbbGz3gq5/TvvdpbTcO8y/GwC0BqUAALrIySpsv3xu/K/GvLxkkhGkzpvDlZUY25849f2VI2Lnxv9LRVml8rsCgD8pBQBobTXVNUFLvth2+8SeS/sYwemo8+uzfrpe7m0ouf1Fxu+TMO392Gc3xxy4raaGy8IAWodSAIDWIgPRiYMXvx8+afvzDpsrzmGzfOjzyvi9yo3fb/0qd8KjZxOzvm3+HACgpSkFAGgNyQkXbl0TcuDPjofcC42QlGMOTQEqc/BjEZ+uDTv0u/Mnr9xi/kwAoKUoBQDwp/KS8iB3/6gfj+yxeILT5k5xWv9Sb+PY3BUOu/vw+NeXDo4atZSzgQD8QikAgD8U5ZW2P5eU/eNxr8W87bS55AAP+eSOthX+viF/7yqHzXVs1sD1zxmfy/fLSit4ogiAFqMUAKCl7V578u6wcdt6OG3uVU6LTeviB3nOh9xRMTP3PXpoZ9qt5s8OAHxBKQBASzl9+nRQyJRVv+z/6IIQh919ydl2z/jVp8Zhc5/98Omoj8M+W/7P2dnZymcJAM2hFADA13IyC25J3Jv20wFdwyY4O7gynDZ3lZfQg+vJEdA2d6Wzo+vsoG7zB144k3N/fk4xzxcG4BNKAQB8pSCvJGjbysQff/z20p5Oe3C8EnLQQK4a4/Nb98XgdT2+Wpn43arKKuWzBoDGUAoA4AuTJomgT/tvfLRXx+AVRoi56uRyb3PJzy+zV6fg6BmD4n4fFqZ+5gDQUEoBAJojOyP/jjWhB37znj1yruMhT/CTo3vNYQZNV/XB/wtNd3SOnLxnzYmf5WQWMlAEQKMpBQBoivMns9rtXZfyL73s7pFGSDnr5IxfS5Of7/EPn458b++65H/IvpCr/E0A4EaUAgA0VsaZnG9PfGvJ6077vE1Ou6vCS1hBi3EVOjvMW/FJn5XPFOaW3G7+2wCAN0oBABqioqwyKO9y0Z1zBq//4/BnIzc47K48I4xwubdVuKqNzz9nZI/o8OhpO39p/F3uqKqsVv5mAFBLKQBAfU7sPXXrstl7/9i7g+tTp82dqwYStBI5dUyG8XcZuyX68K9Sj6QqfzsAkJQCANxM/ObTPxrx2LxBRtA4ZgSOSi8hBK2vwmlz7RnfI+zN5ISM75n/hgCgFADArKy0Mujiuat3T/jb0meGPBG+3Qh/RV5CB3Ty9UTSucOfiVw36a3YDsUFZbdXlDN/IICvKQUAqFVWVhaUdPjUPZ/2W/eQESaWGMGCJ3hYkc0zMGdW6IRtfzx+7OQdNTU1yt8aQNuiFACg1pKZO37V/6lZ040Acc4IgAzwsDLP4/dcSQOe+3zstiXH/t78twbQtigFAG1bZUVVUNz6lHunvr/87d4dQ5KM4FCmhAlYl81dOqDr/J3T3l/+/ImDGXdV8lg5oE1SCgDaptOnRdDhvZe/26ub6wUjKOxzcrk30MkBPJuGvx7ZIWF37rcvXVL3CQCBSykAaHsuX8i/fdDrCQ+99qdFc502d4GXsIBAZXNfeOH3K2Z83D/hDyVF5e3N+waAwKQUALQtiz/dde/kN5dNddpdp51y+hBzQEBbUGb8/ZNn9FrZf1PkobvM+wiAwKMUAAS+qqrqdtuWJP7DwEfnv28c+M84v36uLM/ubduMv79LDhQ5NOSx8JeP7Dj3A/N+AyBwKAUAge34/vN3rw5JeMo44K8zDvYlXoIA2jxX4YBH50duXHi4Q2pK1rfM+xAA61MKAAJTYV5p0JfD1v9qZI/oYIfdlaEe9IE65POFT49/PWaGe/SmB8z7EwBrUwoAAosR/G5bOHLZg4O6hox22l1XnF+P7uVyLxpC7idytPCFoY8Gv79q1paflJVU3GLexwBYj1IAEDh2rUq+P2TMlvccNpec1oXn9qI5SnvZXJuWfL7n1QPbzt5t3tcAWItSAGB9iXEZt7pHb+nQt3PISqfdddXLwRxoItflId3D3e7RW//z/Okcpo0BLEopALCuq9lFt08ePuc3Ax+d7zYO1tlOm4vHt8H3bHK0sPvi4McXzJj72YIHC66W3GbeFwHoTSkAsJ68K8Xtd61K+bfxb8QMcNjd55UDNtBCjP3t8Of917xv7H8PlJdWKvsmAD0pBQDWsjEk6dbZA9e/3cvm3m4cjIvNB2igpRn7Xb6x/60PGbn18b0rzjBIBLAApQBAfzXVNUFrVxTe1cOe8Jd+ncOWGwdh+fg2RvaiNdU4be7sgV3nhz32P8m/SzpSfId5vwWgD6UAQG9pJ7Jv3bPmxO962d2zjIOunNbFfCAGWtulQU9EjIrfdOpnWel5nBEENKQUAOiptLgiKHb2/h9N7Ll0kNPmTnByxg86s8nnSru2z3Cuem+N++C95v0ZQOtSCgD0UlFe1a4wr/TOz/uv7d67Y8g+h91d6CT8wRpqjP01r2/n0E0Lp+z8X2M//lZVZbWyjwPwP6UAQB/H95+/a/Hnex522IKjnTZ3qZcDLGANNndeL3vw3A0LD/35zLFLt5r3dQD+pRQAtL7Uo6lBK2bt+PeB3cKmOuzuc07O+CEw1DhsruSRPaIGr5y17cEr568o+z4A/1AKAFpPZXlVUMaZnPtGvbDwg972eQecNneZl4MoYF02z2jhot72ubvHvbLopZLCstsrK6uU7wKAlqUUAPhfSUFZUPK+9L+b9v6qJ5w2V5xy0AQClc21Injkls4p+9Lv5f5AwH+UAgD/OnDgQFD4xO0d+jzkCjUOhpc9Z0jMB0kgUHnOCLrSjf1/VuzcPb9JTk5WviMAfE8pAPCfPWtP/PDDHiEjHXb3WeNgWKkcHIG2o9LZMfjwRy+HO5MTMu4zf1cA+JZSANCyrmQUBqUkXPixwx7sNILfGS8HQqBNM74Xxz58OuKFU4czv59/pUT5DgFoPqUAoGUUF4ugWdPz7vnkg3VPOR8KWerkjB9wQ575Lh8KDZs3bOvDX3xeerv5+wSgeZQCgJYRNmnXv/b4w7Iw48B2wTjAVZsPeAAUlXIapBf/uGrG2vkHf2T+TgFoOqUAwHcupebesmHhoZ/1fyR0lLODK8tpdxH8gEZy2F2VvTu6zwx4JLTP/o2n/vHKhQLluwagcZQCAN9I2nf+ByOfj37LaXPvN3C5F2gu+Xxhm3vzlLeWP30uKes75u8cgIZTCgCa52p20a3BH23u+NFzUTFOm+uqchAD0Bxy2piL41+LmW98z/6zurpG+Q4CqJ9SANB4FWUVQZnnrnzry2Hr/2Pg4wvcxkEq32njPj+gxdjcVcY/cwc/sWDs4k93/TTr3OXbqquZSBpoKKUAoPHWuvf9W3/758McNtcpgh/gR0YQNL53hwbaP3XGbzz5Y/N3E4B3SgFAwx3ZlXrX/PFf9ejd0b3TOBiVKAcnAP5SOPjxBcuN72O31ONZd5i/qwDqUgoAbq6kpCTo8qW8O8c+E/3QoG4LVjptrlyn3cXj24BW56o2vo9Xhj4REfH5uyt/mZOVf0dZWZnyHQZAAAQaJTe76LaQ6bG/69P1y8lOOVGtcgACoIkL/Z6cPWLxvM0/Ly0ub2/+LgNtnVIA4N3asAPfnT1w/TDjwHLIUOHlgANAL6WGvSGjtryza8Xxu8zfaaAtUwoAviGnmDiwKfXb415a/mS/zqG7jINJsZeDDACd2dx5A7vOXz3+rys6nD2aTRAEBAEQuKG05Ow7d61Ktjvs7hgnwQ8IBAX9uoTNO/jV2d9lpuUyUARtmlIA2rqCvNJ2i2bu+/n415ZMctpcZ7wcRABYlmegyJEZvVYOXzw77gHz9x9oK5QC0FZVVlS1Wxd68K6Jb8S877C5k4wDhbx/iNG9QOAxvteuIofdfXDaeyue3LMq5c6qqup25j4BCGRKAWiLkuPSvxc1fddzxgFhh3FwkE8YMB8wAASmUuN7v2rd/EOPnjl6ifsD0WYoBaAtOXEw45blX8b9d79OIfOdNvdlLwcHAG2BzX1p+FMLpy6fs+83F85eYdoYBDylALQFcnTvPEf4/SOfjxrreMiV8n/PFVUPCgDaDpu73OgPjo57ZcmAJWOX3SX7CXPfAQQKpQAEsqKC0vYnD174ycS3Yl932N0ZygEAAAzy/sA5H258/uShC9+vKK9U+hLA6pQCEKgSVh1ov2Ditiec9uBYo3MvMnf4AHA9o5+46uwQvGDZ7D3/e3zHcaVPAaxMKQCBaNeKpO8N6RY81ujUzxuqzR09ANxAlcMenDTymVDnsT2p3zb3LYBVKQUgkCQmXLntTz898nDvju5dDrur0kvnDgA3ZfQdctqYij4d3av+++en/zMzLZdBIrA8pQAEiuP7M+4a0n3B2w6bK93coQNAU/R6KDhp3GuLn0pNzuZJIrA0pQAEgpMHL35v5AuLRjts7ixzBw4AzVBj9CvnJry+zJGVnse8gbAspQBY3cmDF/6hf5ewMDmlg4EneQDwLdmv2NwlQx8Pn3LlYgH3BcKSlAJgZcnxGQ8Ofjw8QumwAcD3qsa9GjM5NTn7R+a+CNCdUgCsKiUh4ycje0S7HXZ3uZeOGgB8zuhvCib8bdnki2evfsfcJwE6UwqAFZ04eOGHg7otcDlt7jJzBw0ALcrmLh7yRMSkK5kFDAyBZSgFwGpOHMy4Y0DXsI+dzO8HoPVUjX5p0VtpKdm3m/soQEdKAbCS5L0X2496ftEbTpsr10uHDAB+5Doz6fUVj2ecvNrO3FcBulEKgFVUVlS1W+M+2Nlpcx83Ol9G+wJobdVGf7Rn3/pTv62prlH6LEAnSgGwio0Rh/7Z6HA3eumEAaA1RR/edpbpYaA1pQBYRf/O7klGR1vhpfMFgNZUPvlvMX8z91mATpQCoLuK8sqgiI93/MHoZHO8dLwA0Or6dQk7uibk4H9UVlYpfRigA6UA6G71woQf9OoYvNbJfX8A9FXxQafgufu3nb7X3IcBOlAKgM6yM/LbT3esfsPoXC976XABQCdpcz7c9HBJUbnSlwGtTSkAuqqpqQlK3p/xgMPulmf/mPMPgO6qjf5qQc6lgrvN/RnQ2pQCoKuqquqgPvZ5PY1OtdJLRwsAOqoY91LU/zP3Z0BrUwqArnbHnr7N+L/pfV46WADQ1uDHwyOObEtvb+7TgNakFABdTX9vzV+cnP0DYDEOm/t8+ISdvzH3aUBrUgqAjq5cKrh1whtLw80dKwDozmF3l34xZP34/Kslt5j7NqC1KAVAR7Fz9/3SYXclmztWALAChz14y+41KQ+a+zagtSgFQEfLv9z/jvF/0XnmThUArMDovy7uWXOiq7lvA1qLUgB0kxSXdm+fh90hTiZ+BmBdNX26hIzOzsi73dzHAa1BKQC6ObYn7ZdOuyvBS4cKABbi2pSVnvd9cx8HtAalAOikvKQ8aI5jYWcnl38BWN+V6DGx/2Lu54DWoBQAnZQUlt3itAf3d3L5F4D11Qx7OuJJcz8HtAalAOikpLD8DqPTXOilIwUAyxn2TOQkcz8HtAalAOjECIB3Oexu7v8DEBA+fDpyhbmfA1qDUgB0knU+7z4jABaYO1EAsKKhT0acLMwrbWfu6wB/UwqATia+vfTn5g4UAKzKYXdlu8Zsvt/c1wH+phQAnUx8c2lHcwcKAFZlBMAc1+jNvzb3dYC/KQVAJxN7LnvZ3IECgFUZATDXNWpzR3NfB/ibUgB0YgTAD8wdKABYlbyn2TVqy1Pmvg7wN6UA6GRSz2UDzB0oAFhYoXvUlh7mvg7wN6UA6GRSz9hhXjpQALAqIwBufc3c1wH+phQAnUzuGTvCSwcKAFZVFDJq6xvmvg7wN6UA6IQACCDAEAChBaUA6IQACCDAEAChBaUA6IQACCDAEAChBaUA6IQACCDAEAChBaUA6IQACCDAEAChBaUA6IQACCDAEAChBaUA6IQA6Dt9O4eKoU9G1GvIE+Gid8cQ5fWtpf8jYco2mvV7OFR5XWM09LPxp4GPzle283oDu81XXmMVch/r20mffczPCIDQglIAdEIA9J3pH6wUJw5cqNeRnali9qB1yutbQx8jJER8vEPZxusl7jsvZg9er7y2MWY4Vonj+9OVdbem2DlxynbWGthtgVjpildeYxXxm06JSW8uU36vNoIACC0oBUAnBEDfmfvhRtGQVlNTI1KMg/TYV5Yo6/C3vg+HivXhh8ybWKeVl1V6QqL5tY0RPGKTqKyoMq+6VdvetSeU7aw1pHuEiN982vwSy7QrFwvEZ33XKL9XG0EAhBaUAqATAqDvNDQAylZVVS22RB8VfTu37mU6AqC6rRIB0NIIgNCCUgB0QgD0ncYEQNmKC8rEzP5rlfX4EwFQ3VaJAGhpBEBoQSkAOiEA+k5jA6Bs55KyxEfPRynr8hcCoLqtEgHQ0giA0IJSAHRCAPSdpgTAivJKsXXxUc+gA/P6/IEAqG6rRAC0NAIgtKAUAJ0QAH2nKQFQttzLRWLeiM2idwd1nS2NAKhuq0QAtDQCILSgFACdEAB9p6kBUI4KTk2+LEY85/9LwToFwLKSCnE8Ll3ErT/pFwtv8jvJOQJXzI0Xx/dnNJucliU/p8T86yqtpKjMc0vAmWOZzXZw21nx8Vuxyu/VRhAAoQWlAOiEAOg7TQ2AtW17bFKzJ1xuLJ0C4NWsQvFp79XKa61uaPcITyCrr506fFEMeqx1bgUIMARAaEEpADohAPpOcwNgYW6pJyiZ19uSCIAtjwDodwRAaEEpADohAPpOfQGwurpG1Eg1NeYfeZr82clDF8X412KUdbcUAmDLIwD6HQEQWlAKgE4IgL5TXwBMS84Wp49eMoJgtflH15r82Y7lx+t9Tq2vEABbHgHQ7wiA0IJSAHRCAPSd+gLg6SOXRMiYLaK0uNz8ozqtpLBMuEZuVtbfEgiALY8A6HcEQGhBKQA6IQD6Tn0BUJ4BHP96jIjbcOqGl4FrW8bpK2LYM5HKe/gaAbDlEQD9jgAILSgFQCcEQN+pLwBePHdVTHxjqZj05jJx+UKB+cd1mnxW8J41J1p8gmgCYMsjAPodARBaUAqATgiAvlNfAMy+kC8mvxkrBnSdLzYuPFxvIMrPKRbzJ2wTvTuGKO/lKwTAlkcA9DsCILSgFACdEAB9p74AmHu5WEx9d7ln2anvrRCXzl01L1KnycvE545nidF/Xay8l68QAFseAdDvCIDQglIAdEIA9J36AmBJYbmY0WvVteVj58SJinpCkQyB8ZtOtdgE0QTAlkcA9DsCILSgFACdEAB9p74AWFZaIT5xfhNw5PNmz5+8bF5MaRXllZ7Rw+b38wUCYMsjAPodARBaUAqATgiAvlNfAKyqrBaf9V1T5zULJmwz6jcPRvIs4NnELDHhjaXKezYXAbDlEQD9jgAILSgFQCcEQN+pLwDKIDer/9o6r5HhIGHzac9TQm7Wvh4VnCKGdA9X3rc5CIAtjwDodwRAaEEpADohAPpOfQFQtrnD1Gf9zh60Tly5ePNpYWSTE0hHTt2pvL45CIAtjwDodwRAaEEpADohAPpOQwJgyOgtyuvktDA7lx/3XCKur102guKIZ303QTQBsOURAP2OAAgtKAVAJwRA32lIAAyfuF15nSSneslKzzUvrjR5GXnfuhM+e1YwAbDlEQD9jgAILSgFQCcEQN9pSACMmnbjS7gLp+wQFeU3D0myFeWXiugZu0Tfzs2fGoYA2PIIgH5HAIQWlAKgEwKg7zQkAC7+dI/yuloyKBzbk2Z+idLkWcD0k5fF5DeXKetoLAJgyyMA+h0BEFpQCoBOCIC+05AAuHTWPuHsoL621uxB6z33+cmQd7NWXV3tmSC6/yNhyjoagwDY8giAfkcAhBaUAqATAqDvNCQAxn4Rd9MAKAPZuvmHRIURuuprMiQuNIJZ75usrz4EwJZHAPQ7AiC0oBQAnRAAfachAXCVK+GmAVAa+eIikZqcbX6p13bhbI74+K1YZR0NRQBseQRAvyMAQgtKAdAJAdB3GhIA14QcaNAZO7muhgwIqaysFnvXnRBDn4xQ1tEQOgVA+T4y+CbHZ7SodQsONfvSeWMQAP2OAAgtKAVAJwRA32lIAFy34GCDAmA/I5htWXys3tAkW1lJhVjy2R7Rp1OIsp766BQA/dUS954XA7v5L2gRAP2OAAgtKAVAJwRA32lIANwUdaRBAVCSz/49m5hZ74AQ2S5fyBcT/9b4ZwXLqWTkPYc3awTA5iEA+h0BEFpQCoBOCIC+4+sA2KdjiFgwaZsozC01r8ZrO7D1rOj3cOMubfY23mOVO8G8qjqNANg8BEC/IwBCC0oB0AkB0Hd8HQCl3h3dYltMomjASUBRVlIuln2xr1ETRHsCoIsA2JIIgH5HAIQWlAKgEwKg77REAJRGvhAtLqbW/5g42S6euyqm91qlrONGCIAtjwDodwRAaEEpADohAPpOSwVAOW2MfIZwSVG5eXVKq66qFvs3nmpwkCAAtjwCoN8RAKEFpQDohADoOw0JgJujmxAADYO6zRdfxTRsVLAcNHKzR85dr3eHELEyON68ijrNXwFQXsJOiksXcetPtahls/eJfl0ad69kcxAA/Y4ACC0oBUAnBEDfaUgA3LY0qUkBUJKjglOPZzd8VHDPhj0rePmc/eaX12n+CoBMBE0A9BECILSgFACdEAB9pyEBcEfs8SYHQHkp2D1qc4MCYFVlldi79oQY/Hi4uh6TZbPjzC+v0wiAzUMA9DsCILSgFACdEAB9p8UDoF1esnWLPWtSPPf63azJkCjvGYz+ZHe9E0TLSaSrKm+8PgJg8xAA/Y4ACC0oBUAnBEDf8UcAlCa8vlSkpVw2r9pru3j2ar0TRMv7BQmALYcA6HcEQGhBKQA6IQD6jr8CoDyjFzl1pyjMq3+CaHkmcMfy48o6rhc1bacn5N2oEQCbhwDodwRAaEEpADohAPqOvwKgNOCR+WLXyuR6LwXLJi8Fzx60XllHrYVTdnieJ3yjRgBsHgKg3xEAoQWlAOiEAOg7/gyAkpwgOjOt/gmia6prRHJ8hvjo+WhlHVL4pO2itPjGcwwSAJuHAOh3BEBoQSkAOiEA+o6/A6Akg9nNLt/WttKicrF0tvfHxIWO3SqK8m98OZkA2DwEQL8jAEILSgHQCQHQd1ojAA55PFzsWpUsquq5FCzvBcw8nysmvxWrrCP4o80iP6fY/JJrjQDYPARAvyMAQgtKAdAJAdB3WiMASpN6LhPnkrIaND9g3PqTyvt/MWSDJ3zdqBEAm4cA6HcEQGhBKQA6IQD6TmsFwN4d3SJ88nZRVnrjgRy1Td7rN/39lXVe/3n/teLyxXzzotcaAbB5CIB+RwCEFpQCoBMCoO+0VgCU5LNtEzafrvcsYHV1jTi845wY2O2boDGj1yqRmZZnXvRaIwA2DwHQ7wiA0IJSAHRCAPSd1gyA0piXF4sLZ3LMb6k0OeAjcuoO0bvj108ImfLOcnHh7I1fRwBsHgKg3xEAoQWlAOiEAOg7rR0APRNET6l/gmh5lvDEgQti1ItfTwsz4Y2l4vyJGz9ZhADYPARAvyMAQgtKAdAJAdB3WjsASkOeiBD7N56qd1RwRXmVWPLZbs9rRr64SJw5lmle5FojADYPAdDvCIDQglIAdEIA9B0dAqA09pUlDboUnJtdJIY9vVAM6R4uUg5cMP/4WiMANg8B0O8IgNCCUgB0QgD0HV0CoCSf7lFRXv8E0SvnxYt+D4eKxL1p5h9dawTA5iEA+h0BEFpQCoBOCIC+o1MAHGwECTkquL6WceqK54zhwa/O3HAEMQGweQiAfkcAhBaUAqATAqDv6BQAJTlBdGrK5RsGO9lkKNsUdUTsXXvihvcNEgCbhwDodwRAaEEpADohAPqObgFQjgqOmrZTFBeUmTejTrt47qpnVDABsGUQAP2OAAgtKAVAJwRA39EtAEqDui0QB7fePHzI4CefEHKjM4UEwOYhAPodARBaUAqATtpiAOz/SJgY1WORmPD6UjHu1Rgx7JlIz9ky83KNpWMAlEb2iBaXLxaYN6XBjQDYPARAvyMAQgtKAdBJWwuA41+LERsXHhbnkrJE7uUiceVCgTi257xY9Mluzxx65uUbQ9cAKJ/4ETVtlygpLDdvToMaAbB5CIB+RwCEFpQCoJO2FAA/fnu5OL4/3eu9biVF5WLXyhTPlCjm1zWUrgFQ+vCpCBG/6bTX372+RgBsHgKg3xEAoQWlAOikrQTA4c9EiiM7zonqau/3uclWXlopVszdf+0ZuY2lcwCUPn4rVmScvmLepHqbvwKgfJ/TRy6JIztT/WbrkmOeS+Tm7fUlAqDfEQChBaUA6KStBMAvBm8QFWX1T4x8NjFLjHlpsfL6htA9AErhE7eJqsrGnQX0VwBsjZZxOsczXY55e32JAOh3BEBoQSkAOmkrAXC1K0E0pOVcKhCzB65TXt8QVgiAcgDM0V03fuqHt0YAbB4CoN8RAKEFpQDopK0EwC2LjomGtPwrxWLesE3K6xvCCgFQmvruCnHx7NUbTvtibgTA5iEA+h0BEFpQCoBO2koAjJ6xWzQk72SezxWfOFYpr28IqwRAOeVN9LRdoii/1Lx5XhsBsHkIgH5HAIQWlAKgk7YSAKe8s1xczS4SN2tygMiRXaliaBOng7FKAJSGGKHkwJYzNx0UU9sIgM1DAPQ7AiC0oBQAnbSVADiga5hYN/+gKCut8HrpU9bk5d+Z/Zt2/59kpQAojXt1ici/WmLeRKURAJuHAOh3BEBoQSkAOmkrAVAa8ni4WBN6QORkFtQJgRXlVSL91BXhHrVFeU1jTHtvhUjcd16RFJcukuMzPBZ/tkd5XWuaP+ErZXvNDu88J2YOaHowlqZ/sNJzdtW87ta2fVmSGPXiImV7fWngo/PFynn7lfc22xR52DNIx/x6NBoBEFpQCoBO2lIAlPp1CRNfDFrvCYJ7VqeIHbFJYsnne8Tkt2JFnybO/1dL3ls3sNsCxWAjeA59MsJjgBEGzK9rTb07upXtVRjb3NxH5Xk+m0e9rLuVyTPD/jgj29/Y78zvbUb48xkCILSgFACdtLUAWKtv51DP5TYZbpo68TMALREAoQWlAOikrQZAAAGLAAgtKAVAJwRAAAGGAAgtKAVAJwRAAAGGAAgtKAVAJwRAAAGGAAgtKAVAJwRAAAGGAAgtKAVAJwRAAAGGAAgtKAVAJwRAAAGGAAgtKAVAJwRAAAGGAAgtKAVAJwRAAAGGAAgtKAVAJwRAAAGGAAgtKAVAJwRAAAGGAAgtKAVAJwRAAAGGAAgtKAVAJwTAwNa7Y4jo/0iYGPTYAjHkiXAP+e+Dui3w1OXPza8BLI4ACC0oBUAnBMDA07dTiBj3yhIxd9hGseTzvWLr4mMifvNpcWRXqjiy45xIMP49bv0psSX6qFj86R4xZ+gGMf71paJPJ8IgAgIBEFpQCoBOCICBo7cR4KZ/sFJsNoLd6aOXRGFeqaiurhY3a/LnBVdLxLmkbE8gHPPSYmW9gMUQAKEFpQDohABofX06hoiRL0SL7cuSRH5OiaisqBI1NTWisS3nUoGY/OYyZf2AxRAAoQWlAOiEAGht/buEiZDRW0TGqSuiuloNfTIM5mYXiXTj52eOZYqThy6K00czRWpytsg6nydKi8uvLSvPGvbtzGVgWB4BEFpQCoBOCIDWFjNrr7iaVSjMraSwXCRsOeO5B3DOkPVi8puxnsu7Hz0fJUb/dZEY/3qM+MS5SsyfsM1zyTjtxGWxNvSAsn7AggiA0IJSAHRCALQmedk3atpOUZRfKmqbvOxbXlohjuxMFTMcq8SQ7hENGuUrRwPLS8hyhLD5Z4AFEQChBaUA6IQAaD1ytG7Y2K0i93KRuL7lZBaI6Om7PIHO/BqgDSEAQgtKAdAJAdB65OXb1OPZ4vomzwTOH7/Nc2bQvDzQxhAAoQWlAOiEAGg9WxcfFdVV30zvUlFeJVYGx4u+D4cqy/pFB7fo/X+Un7UE+T5Nea/abWzKa2ElBEBoQSkAOiEAWsu4V5d4RvbWNjmPnxzsMeyphcqyLUWGqKFPRojJb8V6JpuWk0mvciWIlfP2i4VTdohZA9Z5zlIOfHS+8tqbGf5MpJjw+lIP+Xte/3p52Xv0i4vErIHrRMzMvWL5l/vFKOO/zeu4Xu8OIWLY05Fi6rsrhHvkZs/r5HYu+WyvCB6xWUx5Z7kY2j1CeR0sjwAILSgFQCcEQAsxgtemyCN15vgryC0R7lGb1WVbyKDHwkXklJ1G6DwtstPzRI2XqWfkGUk57cy2pYlithHY+nZu2JnJZbP3eaazkeR0NZ/3W+upyyC4aMYuT628tPLa+8jwaV5HLRnsoqbuFIe2nfVMg2OeFlFu99XMQhG3/qSYN3wT900GFgIgtKAUAJ0QAK1j+LOR4lxSVp0AmHo8y/NsX/OyLWHCG0vFga/OiuKCsgZNNF1VVe0JWRsiDot+Dbg8vW7+wWuvLcovM4LtVs89jTL0yvc0txsFwJE9oj2PvWvIdsq5E/MuF3u20bweWBYBEFpQCoBOCIDWIc9U5V0pFte3la54ZTlf693RLYJHbBJZGfl1ApUMeFcuFYjzJy6Ls8cyPeH0UmquZw7COstVVotD28+JUT1ufsl2xdz9114jw5s807hyXrxnahtvzRwA5ZQ3nzhWiYxTOXXOTMrtyTiTIxL3nfecuZQTYl/NKvJsf22Tl9I3RR1p9GVraIkACC0oBUAnBEDriP0iTpSXfXMJVLZPnKuV5Xxt2nsrRLYR/q5v8qzZjtgk8anx/kOeiPDcFyjP8sl7/6Km7RLnTKOU5X2Lu1en3HSuQXmPXm2ToW3H8uOeS8m1TT6zOGlfuti5Itl47+PKY+vGvrJEnDx44Vr4kwNl0lIui0Wf7PLcL1g7SEWGPHmf4t51Jzzh9Pr1L5iwzRN4zdsGSyEAQgtKAdAJAdAa+nQKFVsWHVPOwMnBGOZlfWnwY+FG6Dp/7T1lk/fULfx4hxGkbnzpecq7y40wdrHO68pKKkT4pO3KsrXkHIa1TQbdrPQ8z/2E8vdMic8QXw7dID56Ptpzv16/LmGegSHXv37b0qRrgU6Gv6S4dGM7Vtww0MnPbvuy49fOBMrPVr5GXkI2LwtLIQBCC0oB0AkB0BrkfX57154Q1zcZxFpy8IIMTktn7ROlxd9cgq0wglnElB0NesKIHH0rHzF3fWi9fCFfDH7c+1nAqKnfBED5Go/qGs9l2/ruc5z05jJRWf7N2dG0lGwx+qWbX3KWZKA8ujP12lnDSiNwho7ZqiwHSyEAQgtKAdAJAdAa5KXT/RtPievbxXNXRf8uLRcA5ePhkuMz6rynvMRqPvN2I/KS67Iv4jxn/mqbDGkRk3coy0rXB8DaJn/H+oKcDKryknBtiJPBUU6KbV7uRuT2yEEntS1uw6kG/47QEgEQWlAKgE4IgNYgz5rJYHJ9u3Amp0UD4OxB60V+zjeDTr4OVl8py93MqB7RnkfU1TY52OLA1jNep4YxB0D5fqvdCcayNw9j8pJtWvI3ZxqvZhV6noNsXu5GJr8ZKzLTcq+9b9b5vAaNWoa2CIDQglIAdEIAtAY5cGH3qhRxfcs8n9tiAVCeAVv2xb46l2+z0vI8EzSbl61PwubT19Yh15eanC3GvLRYWc4cAAvzSjz3/ZmXM5OjgeWglNp2aPtZMaDrfM/v0BDyTOf1g03k1DAf+nFibfgcARBaUAqATgiA1iDPSG2LSRLXN3nZsqXuAZQBas/quoHzyM7UJgWjxZ/tqbMeOaL4sz5rlOXMAVBOKTPtvZXKcmZy9PD1o6PPJmWJVcHxnmllGkLOAZh3uei6dxaeewrN7wPLIABCC0oB0AkB0DrWhB6s8wxgeabqoxeilOV8YfDjC0TinrRr7yWbnJalKfPkfTF4fZ315BphyzyHn2QOgHIqGflYOPNy15P3Ga5fcKjeCZ8b26Z/UH/whLYIgNCCUgB0QgC0jsipO0VxYd0nYshn2pqX8wU56OTU4brTuMgncsjpV8zL1mfqeyvqrEfOt+cevUVZzhwAzyZmifGvxSjLXa/vw6Fi65JjdV7nizapJ2cALYwACC0oBUAnBEDrkJM+X75Yd0LmPatPeJ4RbF62uT58cqHnXr3r25boo0265Dzt/ZV11lOUXyrCxqmDSZoSAOX2bF9W99J4xukcEb/5tIjf1HRDn2z8pW5ogwAILSgFQCcEQOuQI1vlY8yuv9zpmSblrzefJqUp5CTJ545nXXsf2eSTPOqbj8+beSM21VlPQW6JCBmtzrXXlAA44NH5nieDXN/WhBxgGpe2jQAILSgFQCcEQGtZN7/u/W5yjj05kKEhEzM3hpx2JnFv3SeAJMeni+HPRirL1md1SEKd9Vy5WCBm9l+rLNeUACink9kcfbTOZyLvVexTz9QxCGgEQGhBKQA6IQBai5zzrsR0H6CcD/ATxypl2eaQ9/ptijpS533kmbsp7yxXlr0ZOXr51JFv7iWUOe1cUpbn2bzmZZsSAKUln+0V5aXfjAKWl4AHdmv8YBUEDAIgtKAUAJ0QAK1n5/Lj4vomRwMf3Z0mhj3t2/vWQsduFaXF5XXeS07MbF7uZj7tvdoz6KO2yefuyullvF2ibWoAnNlvreesYm2TzwOeNXCdshzaDAIgtKAUAJ0QAK1n8luxnrNc11/2lKEnYdNp8eFTDX8CRn3GvRojzhyte8/h1ezCBl8GHtRNPr84xRP6apu8ZD1rgPdw1tQAONB4n+Nx6XW2MyUhg4EcbRcBEFpQCoBOCIDWFPzRZpGTWVgn9MgzgfLyqhx0MeSJxgVBeS+dtxG+iz7ZLUqLvjkLKN9DPmljxPM3n39QrmvlvP11ziDKbZVPBTEvW6upAVCaPXCdKCu97pnDFVVi34ZTnkfRmZdFwCMAQgtKAdAJAdCa5L11cl7AkuvCWW2Tl1zlc4PDxn/lCVDenrvr0cHtuRdPTsq8bsEhET5xu7LM0O4RRuA7V2f9Mmjt33jqhnPlyTkEV8yL9zzK7fqWceqK5+yleflazQmAvTu6xb51Jz3PGq5tFWWVnqeXfN53jddLztcb9nSk+PLDjWLsK41/1B20QwCEFpQCoBMCoHXJEBg9fZdnXj1zk2fbCvNKPdPEpCRcELtWJYv1EYfEaleC2LjwsGfqFHnZVD4DN+9KsaisrBbJ+9OV95AmGCHswtmrddYvz7BlpuZ6RvjKASijeiwyAmGsiJ6x21jveeXewSuXCoRr5JabBrHmBEBJPqdYjlS+/qxoTXWNZ+7EA1vPiEXGtsnRx5/0Xu25DO0auVnEfhkn9m86LVKTL3vuI5Sfp3m9sBwCILSgFACdEACtb8o7seLwjnOiuKDu6ODGNhmAxr68WFm/NM4IYvI9rh9t25Am702U4UqGLvM6zZobAKWRL0SLuA0nPfcaNqXtXHFc9O+qXgqHpRAAoQWlAOiEABgY5Lx9C6fs8FzyzM8prnMWrCFNni2UT8+4WeD66PloscoVL7Iz8utdv/z51cxCsSP2uJjwt5s/z7eWLwKgJCfMltspz1pePwDlZk1ub97lIrFu/kHPZ2leJyyFAAgtKAVAJwTAwNG7g1sMfyZSzOi1SiybHScObTsnLp3LFeXXDY6QTV4WLSks98wfuH/DSbHk8z3isz5rxIjnouqdUFo+e1c+2zd2zn7PpeXrz7TJTCj/Wz5Cbl3YQWM7VjbqySGfOFZ7Lk3Xkpdnmzq1jbw8Lu9RXPzZHpEcnyGKCso823d9KyuRn8EVcWDLGbF05l4x/f2VnveTn6N5fbAUAiC0oBQAnRAAA5MMMX07hXqCUP8uYUYQCxcfPrXQY0j3cE9N/kzek9eUwONZf+dQMaDrfCM4RnoeRyfPEMr/liGxviDplbFOuT21mrQOk9rtlKOS5e8+sseirz+DJ5r/GUBbBEBoQSkAOiEAAggwBEBoQSkAOiEAAggwBEBoQSkAOpnUM3a4lw4UAKyq0D1q6+vmvg7wN6UA6GRSz2UDvHSgAGBVRgDc0sPc1wH+phQAnUzsuewDLx0oAFiSw+4ucI3a8pS5rwP8TSkAOjEC4CvmDhQArMphc+W6Rm7uaO7rAH9TCoBOJr65tJO5AwUAy7K5ctwjN//a3NcB/qYUAJ1MfHvpL5QOFAAsymF3ZbvGbP6Rua8D/E0pADrJOJPzHYfdXWjuRAHAioZ0jziVe6WovbmvA/xNKQA6KSksv8sIgAfNnSgAWNGHT0euNPdzQGtQCoBOjAB4h9FpRpk7UQCwomHPRE4293NAa1AKgE5KCstucdiDBxkdZ425IwUAi6kZ9nTEM+Z+DmgNSgHQSXlJedDMd+c/bHSc+V46UwCwkpyI4Uv+xdzPAa1BKQC6ObYn7ZdOu+uAl84UACzEtSUrPe8H5j4OaA1KAdDNsb2p33F2CJ7v5DIwAOuqcXR0jTMC4B3mPg5oDUoB0NHyL/e/6+AyMACLMvqvS3vWnOhm7tuA1qIUAB3Fzo37tcPuSjF3qgBgBUb/9dXuNSn/ZO7bgNaiFAAdZWXk3Tb+tZhIc6cKABZQNmvg2km5l4tuMfdtQGtRCoCupr+3uoPRkVZ66VwBQFsOmzs9fOKO35v7NKA1KQVAV9sXnbjNYXfHmztXANDZoMfCow5uSuPxb9CKUgB0VVVVHdTHPu9tJ2cBAVhHxbiXouzm/gxobUoB0FVNTU3Qsd1p/+Swuzc5mRIGgP6qjf4qOist99vm/gxobUoB0Flmen77Ke+vfNPoWHO8dLYAoJP0mYPWP1JcWK70ZUBrUwqA7lZHJNzfq0PweidnAQHoq7JXp2BX/LbT95n7MEAHSgHQXWlJeVDI2K3/Y3SweV46XQBodX07hx6PnbP/1+VllUofBuhAKQBW0b+ze6rR0VaYO14AaGXlk/8W8465zwJ0ohQAq1gbkvBTo6Pd6qXzBYDWFJOw6dS95j4L0IlSAKyioryq/cp58Y86be6TTu4HBND6qo3+KGHXqpT/rK6uUfosQCdKAbCSxF0X2n/0bPTbTpuL+wEBtDLXufGvxD51PiWnnbmvAnSjFACrSYpL+1b/R8JmOOX/fSsdMgD4RdWov0Z/cDYx83ZzHwXoSCkAVnRsb9qP+3UJi3DaGBQCwM9s7rIBXed/mnk+905z3wToSikAVpUUl/4PI56LWuCwu8uVDhoAWoDR3xSOezVm2oXTOd8190mAzpQCYGXH9pz/l0GPLVhk7qQBoAVUjXl5yfQziVk/MfdFgO6UAmB1SfvO/1Ofju5FTpu7ysDoYAC+JfsVm7tiQJewmZdSc79j7oMAK1AKQCBISbjwdyOejZrgsLmvKJ03ADRdjdGvnB/7cky/zLTcu819D2AVSgEIFMf2nL978BMLejlsrgteOnEAaLReDwWnjHll0QtnE7O+Ze5zACtRCkAgObwn8/b//MeDTzjtrv1OpokB0HRVRj+y6b/+LeXPGaevtDf3NYDVKAUgkNTUiKCqqpqgbTHHfjC4a/DHRid+0UkQBNBw1Q578MnhT4UOPLzj7H2yPzH3M4AVKQUgUO1bFndLyJgtzxj/F7/aYXcXe+noAeAao5/IddqDFy2escN2bMsxnu6BgKIUgEBWmFfSPnFv2gMTei57x+jcuTcQgFdG/3B49uD1rxj9xf3lZZVKXwJYnVIA2oLy0sr2s94OfXD4M5HTHA+5zjptXBYG2jybu8LoD1JG9Vg0YuHwxd+tKK/irB8CllIA2pLj+8/fsviz3X/p1zEk2uj8c5QDAoC2webOGvZkxOeLP931+/RTlxnkgYCnFIC26OiOcz+I+HjHyw67e7fTM9rPywECQCAqM77361a5Ep46kZBxj7lvAAKVUgDaKnlZeMWX8d8d89dFAxw292mn3SWfKcyTRIDAY3yvXSUOu+v4xDeWvrgtJvG+ygou96JtUQpAW5efW9IufNquX459efEnTpsr1cvBA4BluaqN73XS1HeXj42YsftB8/cfaCuUAoCvnTmaefdXMYldHHb3CuPAUaIeSABYTGG/LmGhcetP/unCmRye5IE2TSkA+EZ1VXW7vatOf2/kszEv9u0UkuC0uUu9HFQA6MzmLuzfJWzLqGeWdkuJv3Sv+XsOtEVKAYB3K+ft/95nfdaMNg4oiYYK5SADQDfyf9gS5n640bFt6bG7zd9poC1TCgBuLCez8Pbgj5f9sU/XLz8xDixFXg44APRwsV/32WMjZ238dUlR+S3m7zLQ1ikFADdXWFgYdDH1yj0jHot4pH+XsE1Om8sIgi5GCwOtzjPAo2Bg1/nLpr0e+4fM9Ct3lpSUKN9hAARAoFkObTt7V/BHm17p3dEV5/z6cpOXgxIAPyga9Nj8dcb3sfvZY5l3mL+rAOpSCgAab+Wc3T/vb585xmFzneGxcoAf2dxVxvfu6ED7Z4P2rE7+e/N3E4B3SgFA45WXlgelp1y6c+aA1b/t+3BopFOeDbQxiTTQYr7+H63ivl1Cp0Z8vO0XGSkXb6+uqla+mwC8UwoAmicnq/DW2YPWdxn+TORKp82Vpxy4ADRHjfG9yhrz0uLo2YPX/6m6ukb5DgKon1IA4BtHdqbe/9GzUb2cNvcBQ6WXAxmAxrC5KwzbJ/eMffH0kUvfNX/nADScUgDgO+knr9y62p3wK6c9eLLT7spXDmgAGkI+u/eC8T0auntV8r9mpuUp3zUAjaMUALQM19jtP3vpv2KiHHZ3pnFAY6AIUL8q4/uS/tKfYmevdCf82PydAtB0SgFAyyguFkFTx1+9d9q7a15w2tyrjIMbl4WBGzCCX6HzoZCoOYM2PTZ9SgnTugA+phQAtKys1Px2x3adf8BhDx5gHOTOmQ98QFtnfC+Shj4V8erxfRn352YVK98hAM2nFAC0vJqamqDy0sr225cl/eOQZ0MmyctcxoGvynwgBNqQSmeH4OPDeywYcmRX6g8ryirbmb83AHxHKQDwr/379weFjtnapc9DroVOmyuH+QPRpsj93ea6YOz/wYtn7vh9YmKi8h0B4HtKAYD/FeeXBR3dfu6HU95d8ZxxMExQDpJAoLK51swdvukxY///TmVFlfLdANAylAKA1lNaVN7uXFLWD0c8EzGgtz040TPvmfmACViZ54yfu6S3fd6BUT2i3sq7XHxPWWkFl3sBP1MKAFrf2UNng2Kmb/3FwEfDZjrs7vNOzzxoXg6mgLXUOGyukx89Hzly6fRN/5ydmq3s+wD8QykA0MeRXefujpy+8zGHLTjGaXOXejmgAtZgc+f3sgeHrgk90OHEwYxbzfs6AP9SCgD0UlZS0e5qVuG90x2revTuEHLEYXeXODkjCGuoMfbXoj6dQneFjfuqk7Ef31NZUcXlXkADSgGAnkqLyoMWz9jzk3GvxQx32txH5MHVywEX0IPn/lXXnqnvr+i9Yk78feb9GUDrUgoA9HY2KfO27cuS/tjL7p5nHGhzlAMv0PoyBz4ePnH36pRfXkq9eot5HwbQ+pQCAP1VV9cErVic9+1n/mffw307hW5wclkYrU+O7s3t3yVsUZffJf7v4f35d5r3WwD6UAoArGXN3GO3ftZnzQcOm3vP/90faD4wAy3K2O8KjP1v69whG5/etfQUZ/wAC1AKAKwnN7volq1LEv9j3GtLhhkH4wzzARpoKcb+duyTPqv7Gvvfg2Wllcq+CUBPSgGAdWVn5N8xbuDMP/Z7ODTKODjnOW0uLgvD92yuauOfOf0fCZ0za0rIz4z/AbndvC8C0JtSAGB9R/acv3XOhxs79+kUssFpd+UpB3CgyVw5gx9fsNDYv/6UdvJKe/O+B8AalAKAwPHV0sQfB3+0qbfD5oo3Dt6V6sEcaLCyXjbXtqhpO9+M23jqHvO+BsBalAKAwJKfU3x76JDF/9a3Y/AUp91V6Px6tDCXhtEQtftKzoCOc/ovm77hwZKicgZ5AAFAKQAITIW5JUEzB6z57fDnIhc47K5LXg72wPWqjf0kbczLi2d9OWz9g+b9CYC1KQUAge3ontR7YufEvWAc4Dc77S6eLwwvXEUDuoYtWR2S0OVsYibz+QEBSCkACHxVldXtNkUe+af+XcL6Ggf7NDUAoI2qNvaHY4O6zu+ZsPn0j8z7DYDAoRQAtA011TVBlRVV7RZ+vO3741+Lmfl/QZCBIm1TufH3P/Px28uGrQ2Nv0/uFzU1Nco+AyBwKAUAbU92et4dg17Z1/H1P0WHOm1uOVDEHBAQqGzuSy/+IXbWxN77/lhSWM60LkAboRQAtE0pKSIo7qusv+v1qOtVIxjIaWOqlLCAQCLP9m4d9mpk112bc+5LT1f3CQCBSykAaNuKC8va71yR9IOJPWN69+4Ycsppk5cHlfAAq7K5y/o/EhZv/H1fS9yb+t3S4nJlHwAQ+JQCANSKmr7tt/2enD3LaXOlGcFBPv5LDRSwBps8o+s60f/ZmR9vijz8gPlvDaBtUQoAUKu0tDTo8P7ke2f0WfOwESCWO7ksbE02V4Xxz7nuMVv/cuRA0reqq6uVvzWAtkUpAIBZcUFZUFrK5e+MemnRKwO7LYgzwmCJEjKgF5u7Rg7oGdo94quxry7plne5+K7S4grlbwugbVIKAHAze9ed+MnwbvNGGOEi2cm0MbqqcNpc8WOfD3s/KS7978x/QwBQCgBQn6Ttybcu+XT3X3p3cH1hBME8LwEErUOe9bto/F0mr19w4P87k3BG+dsBgKQUAKAhykoqgrIz8u/5rM9q25AnInY47K4ip91V4yWUoMW55HN7Cz58KiJmwYSv/mD8Xe6srKhS/mYAUEspAEBjpZ+6cu/4Nxa/7bTP226EES4L+5URvDvMWzf1g9gXCq6W3G7+2wCAN0oBAJriXPKldjuWJ/6sl909wQgmqU55OVIJK/Ah+fmmDH1qYZ8dy4/9Y2Z6jvI3AYAbUQoA0BwZZ3LujP0y7o/v28IXOB7yPFaO+QN9q7rXQyHZjo7hn29blvTrzPN5t5n/BgBQH6UAAL4werQImuZY/0Svjq71RmiRA0U4I9g88vPLNj7P2EnOvf81b576mQNAQykFAPCV/NzioI1LDv/9pDdj3nfagw95CTVoEDm4JnjzzAFrXtsYc/jvKisZ4AGgeZQCAPhadnrerQe/OvuLvp1CZhhh5rJnkmIl5KCOrydyrjY+r4v9OoeMPJeU9Q9XswtvMX+2ANAUSgEAWsrJkyeDvhy37Df9H5m/0GF3Zzu5LHwjNQ6b+/yQJxd+Gjw15qeZmZnKZwkAzaEUAKClbVuefI975JZXnTa3vD+w1EsAasvynQ+5l0ZP3/1k/Nazt5o/OwDwBaUAAP5QcLXklpMHLz4w6q+LextBMNNLEGpzHDb3yU/7rHnV+Fx+VFpc0c78mQGArygFAPCn0sLSoC97hT8w4rnoaUYQPONsa5eFbe5Kh919fMxLSz5aMHTRd6ura5TPCAB8TSkAQGtI3Jd+W+ycOLvD5l5iBKNcJSgFpqxB3cLnLJ8b/1+pKZcZ4AHAb5QCALSWmpqaoMQ95+8PG//Vyw6bK94RoKOFjd+rwvj9Ni//cv9TJw9evM/8OQBAS1MKANDaKiuq2kV+suXbY19ZPNRhd58wQlO50/qXhuX2lxi/z7GJPWNeXRcRd3dVZTX3+QFoFUoBAHRx5VJh+8Wf7/3tqL8ummEEpwteQpVlGNuf8vHby8cZv8+/lpdVKr8rAPiTUgAA3Zw5lnn3n//9WDeHzb3GCFJl5nClM2N7i43tjur25zN/yjiT8y3z7wYArUEpAICOLmdXt9ux9vh9Y95Y3KNPp5CDRrgqcup7WbjGCH75/buGbR7dc9GjifHn78nJYXQvAH0oBQDQ3fJ5++//rO/qIQ67a6/T7tLpjKARSF2FDnvwV3OHb/xgy5Jjd5u3HQB0oBQAwAouX8y/NW7DyV+MeCbKaQSvBEOll0DmTxWGLVPeXv7Gvg0nflqYV9LevM0AoAulAABWkptddOveDSd+POyFyKdGPBe12GFzZzltrmIjjFV7CWm+VGW8T2HvjiFpI56Pdn/YY2GXlIMXvl9wleAHQH9KAQCsqrKiKihs3Lafh437yvnhkwsjjDB40Gl3ZTl9d3awwljfRWO9e0e/tDjEeJ+3l3y29wHzdgCA7pQCAASCIzvTvrVzRfJvd6443n1SzyV9HXZXsBHgNjttrlNOm2cAiTncmdUYy+UZyycb/77eeP3nMwes6WWs77Gdy5P//eThS7eb3xMArEIpAECguZpVcMvFc1fvNdxv+Kek/Rn/3u+JiD8OfSL88SHdF/x1aPfwnkO6h78ztPuCvxn//aJR79bvyYV/MJb9N8ODhh8a7snPKebyLoCAoBQAAAAQ2JQCAAAAAptSAAAAQGBTCgAAAAhsSgEAAACBTSkAAAAgsP3/zjyeWSBQGPcAAAAASUVORK5CYII=;" vertex="1" parent="xbgkux6oHdEF29ycn-ZW-23">
          <mxGeometry x="24.45" y="30" width="71.1" height="40" as="geometry" />
        </mxCell>
        <mxCell id="xbgkux6oHdEF29ycn-ZW-26" value="&lt;font face=&quot;Verdana&quot;&gt;Backend PolÃ­tica de Drogas&lt;/font&gt;" style="text;html=1;align=center;verticalAlign=middle;whiteSpace=wrap;rounded=0;" vertex="1" parent="xbgkux6oHdEF29ycn-ZW-23">
          <mxGeometry x="10" width="100" height="30" as="geometry" />
        </mxCell>
        <mxCell id="xbgkux6oHdEF29ycn-ZW-32" value="&lt;p style=&quot;language:es-CO;margin-top:0pt;margin-bottom:0pt;margin-left:0in;&lt;br/&gt;text-align:left;direction:ltr;unicode-bidi:embed;mso-line-break-override:none;&lt;br/&gt;word-break:normal;punctuation-wrap:hanging&quot;&gt;&lt;/p&gt;&lt;div style=&quot;text-align: justify;&quot;&gt;&lt;font face=&quot;Verdana&quot;&gt;&lt;span style=&quot;font-size: 10pt; background-color: initial;&quot;&gt;Extrae&amp;nbsp;&lt;/span&gt;&lt;span style=&quot;background-color: initial; font-size: 10pt;&quot;&gt;Data&lt;/span&gt;&lt;/font&gt;&lt;/div&gt;&lt;font face=&quot;Verdana&quot;&gt;&lt;span style=&quot;font-size: 10pt;&quot;&gt;&lt;div style=&quot;text-align: justify;&quot;&gt;&lt;span style=&quot;background-color: initial; font-size: 10pt;&quot;&gt;Reportes&lt;/span&gt;&lt;/div&gt;&lt;/span&gt;&lt;span style=&quot;font-size: 10pt;&quot;&gt;&lt;div style=&quot;text-align: justify;&quot;&gt;&lt;span style=&quot;background-color: initial; font-size: 10pt;&quot;&gt;de &lt;/span&gt;&lt;span style=&quot;background-color: initial; font-size: 10pt;&quot;&gt;Analisys&lt;/span&gt;&lt;span style=&quot;background-color: initial; font-size: 10pt;&quot;&gt; &lt;/span&gt;&lt;span style=&quot;background-color: initial; font-size: 10pt;&quot;&gt;Services&lt;/span&gt;&lt;/div&gt;&lt;div style=&quot;text-align: justify;&quot;&gt;&lt;span style=&quot;background-color: initial; font-size: 10pt;&quot;&gt;Power&lt;/span&gt;&lt;span style=&quot;background-color: initial; font-size: 10pt;&quot;&gt; Bi&lt;/span&gt;&lt;/div&gt;&lt;/span&gt;&lt;/font&gt;&lt;p style=&quot;text-align: justify; margin-top: 0pt; margin-bottom: 0pt; margin-left: 0in; direction: ltr; unicode-bidi: embed;&quot;&gt;&lt;span style=&quot;font-size: 10pt;&quot;&gt;&lt;font face=&quot;Verdana&quot;&gt;Publicaciones&lt;/font&gt;&lt;/span&gt;&lt;/p&gt;" style="text;html=1;align=center;verticalAlign=middle;whiteSpace=wrap;rounded=0;" vertex="1" parent="1">
          <mxGeometry x="420" y="190" width="80" height="30" as="geometry" />
        </mxCell>
        <mxCell id="xbgkux6oHdEF29ycn-ZW-33" value="" style="group" vertex="1" connectable="0" parent="1">
          <mxGeometry x="515" y="100" width="110" height="60" as="geometry" />
        </mxCell>
        <mxCell id="xbgkux6oHdEF29ycn-ZW-4" value="&lt;font face=&quot;Verdana&quot;&gt;PolÃ­tica de Drogas&lt;/font&gt;&lt;div&gt;&lt;br&gt;&lt;/div&gt;" style="html=1;whiteSpace=wrap;" vertex="1" parent="xbgkux6oHdEF29ycn-ZW-33">
          <mxGeometry width="110" height="35" as="geometry" />
        </mxCell>
        <mxCell id="xbgkux6oHdEF29ycn-ZW-5" value="" style="shape=image;verticalLabelPosition=bottom;labelBackgroundColor=default;verticalAlign=top;aspect=fixed;imageAspect=0;image=data:image/png,iVBORw0KGgoAAAANSUhEUgAABkAAAAZACAMAAAAW0n6VAAAAAXNSR0IArs4c6QAAAARnQU1BAACxjwv8YQUAAAMAUExURbccHL28vOrGvd0sAO3n5e3t7ezZ1O3h3+zd2gAAAAD/AP//AAAA//8A/wD//////wAAAAAAAAAAAAAAAAAAAAAAAAAAAAAAAAAAAAAAAAAAAAAAAAAAAAAAAAAAAAAAAAAAAAAAAAAAAAAAAAAAAAAAAAAAAAAAAAAAAAAAMwAAZgAAmQAAzAAA/wAzAAAzMwAzZgAzmQAzzAAz/wBmAABmMwBmZgBmmQBmzABm/wCZAACZMwCZZgCZmQCZzACZ/wDMAADMMwDMZgDMmQDMzADM/wD/AAD/MwD/ZgD/mQD/zAD//zMAADMAMzMAZjMAmTMAzDMA/zMzADMzMzMzZjMzmTMzzDMz/zNmADNmMzNmZjNmmTNmzDNm/zOZADOZMzOZZjOZmTOZzDOZ/zPMADPMMzPMZjPMmTPMzDPM/zP/ADP/MzP/ZjP/mTP/zDP//2YAAGYAM2YAZmYAmWYAzGYA/2YzAGYzM2YzZmYzmWYzzGYz/2ZmAGZmM2ZmZmZmmWZmzGZm/2aZAGaZM2aZZmaZmWaZzGaZ/2bMAGbMM2bMZmbMmWbMzGbM/2b/AGb/M2b/Zmb/mWb/zGb//5kAAJkAM5kAZpkAmZkAzJkA/5kzAJkzM5kzZpkzmZkzzJkz/5lmAJlmM5lmZplmmZlmzJlm/5mZAJmZM5mZZpmZmZmZzJmZ/5nMAJnMM5nMZpnMmZnMzJnM/5n/AJn/M5n/Zpn/mZn/zJn//8wAAMwAM8wAZswAmcwAzMwA/8wzAMwzM8wzZswzmcwzzMwz/8xmAMxmM8xmZsxmmcxmzMxm/8yZAMyZM8yZZsyZmcyZzMyZ/8zMAMzMM8zMZszMmczMzMzM/8z/AMz/M8z/Zsz/mcz/zMz///8AAP8AM/8AZv8Amf8AzP8A//8zAP8zM/8zZv8zmf8zzP8z//9mAP9mM/9mZv9mmf9mzP9m//+ZAP+ZM/+ZZv+Zmf+ZzP+Z///MAP/MM//MZv/Mmf/MzP/M////AP//M///Zv//mf//zP///8NKiIgAAAAodFJOU//+/////////wD///////8AAAAAAAAAAAAAAAAAAAAAAAAAAAAAAAAFbxJWAAAACXBIWXMAAA7DAAAOwwHHb6hkAAB2yUlEQVR4Xu3d62Icu3Zka9vbltTv/8JNsoYkkuKlKmcmEJgY35/TtvdaRAETETt5yfNf/0+SpAMsEEnSIRaIJOkQC0SSdIgFIkk6xAKRJB1igUiSDrFAJEmHWCCSpEMsEEnSIRaIJOkQC0SSdIgFIkk6xAKRJB1igUiSDrFAJEmHWCCSpEMsEEnSIRaIJOkQC0SSdIgFIkk6xAKRJB1igUiSDrFAJEmHWCCSpEMsEEnSIRaIJOkQC0SSdIgFIkk6xAKRJB1igUiSDrFAJEmHWCCSpEMsEEnSIRaIJOkQC0SSdIgFIkk6xAKRJB1igUiSDrFAJEmHWCCSpEMsEEnSIRaIJOkQC0SSdIgFIkk6xAKRJB1igUiSDrFAJEmHWCCSpEMsEEnSIRaIJOkQC0SSdIgFIkk6xAKRJB1igUiSDrFAJEmHWCCSpEMsEEnSIRaIJOkQC0SSdIgFIkk6xAKRJB1igUiSDrFAJEmHWCCSpEMsEEnSIRaI9Jn/5v8r6UMWiPSx/37B/yDpXxaI9IFbe9zwv5L0jgUivUdxvML/QdJrFoj0BpXxD/7Pkv6wQKS/KItP8B+SdGOBSKAmvsR/VNITC0R6RkHcgX9AkgUiPdAeN/xj0uYsEG2PVngM/6y0MwtEe6MPjuDfIG3LAtHGaILj+PdIe7JAtCs6oIh/mbQjC0RbIv5Pwb9S2o4Fov0Q/CfiXyztxQLRZoj80/GvlzZigWgnhP1F+CLSLiwQ7YOcvxJfSdqCBaJNkPDX4+tJ/Vkg2gHZPgpfVWrOAlF7pPpYfG2pMwtEvZHnM7ACqS0LRI2R5POwDqknC0RdkeGzsRqpIQtELZHeGViT1I0FooYI7iAsTGrFAlE3RHYclif1YYGoFcI6FIuUmrBA1AcxHY2lSh1YIGqCgF4AC5aWZ4GoA6J5FaxaWpwFouWRymth7dLKLBCtjTxeEZ9AWpYFopURxcviY0hrskC0LEJ4cXwYaUEWiNZE/LbAR5JWY4FoQQRvI3wwaSkWiFZD5LbDx5PWYYFoKYRtU3xIaREWiNZBzLbGR5VWYIFoEQTsBvjAUjwLREsgW3fBp5ayWSDKR6ruhc8uBbNAFI483RE7IKWyQJSMJN0X+yBFskAUiwzdHbsh5bFAlIn01DP2RApjgSgQuam/2BkpiQWiNCSm3mF7pBwWiLKQlvoIeySFsEAUhJzU59gpKYEFohQkpL7DfknTWSCKQDbqPuyaNJcFovlIRT2CvZMmskA0GXmox7GD0iwWiGYiCXUU+yhNYYFoGjJQNeymNJ4FokmIP52ALZUGs0A0A8Gn07Cx0kgWiIYj8nQytlcaxgLRWISdLsEmS2NYIBqImNOF2GppAAtEoxBwuhwbLl3NAtEQRJsGYdulS1kguh6hpqHYfOk6FoiuRp5pPE5AuogFokuRZJqEY5AuYYHoOoSYpuIwpPNZILoI8aUAHIl0MgtEVyC4FIODkc5kgeh0RJbCcDzSaSwQnYuwauG//sP/ow0OSTqHBaIzkVMd/Nd/nv3Xf/E/tsFJSSewQHQaEqqDW3s8+a9n/C/b4LykKgtE5yCbOvjTHk9eCuQJ/6c2ODWpxALRCUilDl63xxP64xn/gTY4O+k4C0RV5FEL1MZflAf4T7XBCUoHWSAqIYlaoDPeoDn+4j/bBucoHWGB6DgyqAUK4z1q4zX+gT44TelhFogOIn1aePeDj1cojXf4x/rgTKXHWCA6hODp4PP2eEJj/It/uA8OVnqABaLHETkdfNkeT6iLD/Gv6IPjle5lgehBhE0H37XHE7riM/yL+uCQpbtYIHoEMdPBHe3xhKL4Av+6Pjhq6XsWiO5GwLRAP3yLlvga/842OG/pOxaI7kO2tEA53IOK+Bb/5jY4delLFojuQKq0QDPciX64B//+Njh76XMWiL5DnrRw3w8+XqEc7sRXaYMJkD5hgehrREkHD7fHE5rhfnytNhgD6SMWiL5AiHRwpD2eUAsP4Su2wTBI/7BA9Bnio4OD7fGETngUX7cNRkJ6ywLRhwiODo63xxMK4QC+ehsMhvSKBaJ/ERktUARH0QbHsIQ2GA/pNwtE7xAWLdACBVTBYSykDYZEemGB6DViogUqoIYeqGA5bTAqkgWiVwiIFko/+HiFEihiUW0wMNqeBSKQDR2c1R5PaIAyVtYHU6O9WSB6Rip0cGJ7PCH/z8D6+mB2tDELRLbHFwj/k7DKPpgg7coC2R1J0MHp7fGE5D8Pa+2DOdKWLJCtkQEtkPgnI/ZPxYL7YJq0HwtkX9z+Foj785H5Z2PZbTBS2o0Fsikufgtk/SUI/Auw+DYYLG3FAtkRV76FK37w8Qppfw0+QhuMl/ZhgeyH297Bxe3xhKi/DB+kDWZMm7BANsM97+D69nhCzl+Jj9MGk6YdWCA74YZ3MKQ9nhDyF+NDtcG8qT0LZBvc7Q5GtccTEv56fLQ2mDr1ZoHsgVvdAtE+BvE+BJ+vDWZPjVkgG+A+t0CuD0O2j8KnbIMJVFcWSHfc5BYI9ZEI9oH4rG0wh2rJAmmNO9zCwB98vEKqj8UnboNpVD8WSGNc3w7mtMcTIn04PncbjKSasUC64uJ2MK09npDnM/Dp22Aw1YkF0hJXtoOZ7fGEMJ+DLeiD8VQbFkg/XNYOJrfHE6J8GjaiD4ZUPVggzXBNWyDDpyLHZ2I3+mBU1YAF0gkXtAUCfDZCfDL2pA8GVquzQNrgarYw/1tXv5Hg87EzfTC2WpoF0gOXsoWc9nhCfEdgf9pgdrUwC6QDLmQHUe3xhOxOwS61wQBrVRbI8riKHaS1xxOCOwh71QZjrCVZIGvjEnYQ2B5PSO0s7FgbDLPWY4EsjOvXAnkdh8iOw7a1wUhrMRbIqrh4LRDWicjrRGxeGwy2VmKBLIkr1wJJHYqwDsUWtsF4axkWyHq4bC1k/uDjFZI6FxvZBkOuNVggi+GatRDfHk+I6WhsZxuMuhZggSyFG9bBCu3xhIxOx6a2wbwrnQWyDu5WB4u0xxMCegFsbRtMvaJZIIvgVnWwTns8IZ3XwAa3wewrlwWyAu5TCwTzKojmZbDLbXADFMoCicdNaoFUXgi5vBC2ug/ugRJZINm4Qy0QyWshldfChvfBbVAcCyQYt6eFpX7w8QqRvBy2vQ/uhLJYIKm4Ny2s2h7/+c///DeBvCA2vw9uhoJYIJm4Mh2s2x5P/m/hAnnCEfTB9VAKCyQQl6WDpdvjP//57/97+ghr4yDa4I4ogwWShnvSweLt8eT/1i+QJxxHG9wUBbBAonBDWiCDV/bfzwXSoEHsEF3EAsnB3WiBBF7c/7YpkCe3g+mDW6OpLJAQ3IoWiN/lPT2APBdIlwaxQ3Q6CyQB96GF9X/w8cfPbgXy5OWMGuEGaRILZDpuQguN2uP2ANKuQJ68nFQj3CPNYIFMxiXooFV7PPnxu0C6NYgdorNYIDMx/h10aw8eQJoWyJOXD9YIV0pjWSDTMPgd9GuPJ//zt0BaNogdojoLZA5GvgUCt5uX/mhdIE9uH68PrpdGsUAmYNhbIG37uT2AUCB9G8QOUYUFMhpj3gJZ29KtPzYokCd8yDa4arqeBTIUA95Cyx98/MEDyO8Cad4g7SrEDhnEAhmI2e6gd3s8oT92KZAnfNA+uHW6kgUyClPdQfv2+P07vE/4yDs0iB2ih1kgQzDPHWzQHk+oj80K5Amftg9uoK5hgVyPSe5gj/Z49QDyt0B2aRA7RA+wQC7GDLdAum7gf6mPLQvkCR+5DS6jTmeBXInxbYFo3cLfB5BNC+QJn7oNrqTOZYFchsFtgWDdxS/a4wkb8Ixk3Qefuw0upk5kgVyDkW1hlx98/PHqAWTrAnnCR2+D66mzWCBXYFo72K49nvz+I8JnbMMLQnUzfPg2uKM6hQVyOua0gx3b4wnd8YKdeEGi7ofP3wY3VXUWyLmY0A42bY+3DyBvCmTfBrFD9DEL5ETMZgfbtscTquOG/bghTDfFJrTBrVWFBXIWprIFknRPbx5A3hbI5g1ih+g9C+QUzGML5Oi2aA6wKSBHd8ZOtMEN1jEWSB2T2AIhurHXv8P7hH35jRTdG3vRBvdYB1ggRcxgCzv/4OMPiuM3tuY3InR7bEcb3GY9ygIpYfw6sD1evHsAeV8gNsgfbEgbXGk9xAI5jsHrwPb47e9rFG/YoD9ITz1hS/rgYut+FshBjFwHtsdf7x9A/ikQG+QNNqUPrrfuZIEcwbB1YHu88ZPe+INt+ovk1G/sSx9cct3DAnkYY9YCsSn88wBigdyDremDq65vWSCPYcBaIDT11w9q4y/26hVCU2+wOX1w4fU1C+QBjFYLfuvqI7TGK2zXKySm3mN/2uDW6ysWyL2YqhZsj4+9fYvJC3bsNfJS/2KH2uDu61MWyH0YqA5sj09RGq+xaa8RlvoQm9QGAaCPWSB3YJQ6sD2+8MEDyEcFYoN8g21qgxjQByyQ7zBEHdgeX6Mz3mDr3iAn9Tl2qg3CQO9ZIF9ifFogJfWZf3+H9wmb9xYpqa+wV20QCXrDAvkcg9MCGakvUBlvsX9vEZH6BtvVBsGgvyyQTzAyLRCQ+tKHDyAfF4gNcjc2rA3iQbBAPsKwtOAPPu70/jWKN+ziO6Sj7sGetUFI6JkF8g/GpAXb424fP4B8UiA2yGPYtTaIClkg7zEhHdgej/j4AcQCOQsb1wZ5sTsL5DVmowPb4zGfPIBYICdi79ogNbZmgfzBVHRgezzsF4XxHjv6DzJRj2H32iA79mWB3DAPLRCJesBnDyAWyNnYvz5IkE1ZIE+YhBYIRD3mo7eYvGBb/0Ue6nHsYB/kyI4sEGagBdJQD6Mu/sXO/osw1CFsYh+kyXY2LxBOvwV/8HHcpw8gnxeIDVLENvZBpuxl5wLh3FuwPUpoiw+wvx8gB3UcO9kGwbKTfQuEM+/A9ij6/AHkiwKxQc7AXrZBumxj0wLhtDuwPeooi4+wyx8hAlXEdrZBxuxhxwLhnDuwPc7w6e/wPmGjP0QAqowNbYOk2cB2BcIJt0D+qYiu+BBb/SHST2dgT9sgb7rbq0A42xYIP5V99QDyZYHYIOdiV9sgdVrbqEA41RaIPp3hk9co3rDhHyP4dBo2tg2yp69dCoTzbMEffJzqyweQrwvEBrkAW9sGCdTUFgXCSbZge5ztJ1XxMbb9E2SezsXutkEOdbRBgXCIHdge5/v6AcQCmYQNboMwaqd7gXB8Hdgel/hBU3yCzf8McacLsMVtEEm9tC4QDq4D2+MqFMVn2P/PkHW6BrvcBsHUSN8C4chaIOt0vi/eYvKCE/gUSaersM9tEE9dNC0QDqsFkk6XoCc+xSF8ipjThdjqNgipFjoWCMfUAjGni3z3APJtgdggI7DXfRBV62tXIBxQC/7g43LUxOc4is8RcboY290HgbW4XgXC0bRgewzwze/wPuE0vkDA6XJseB/E1so6FQin0oHtMQYt8QUO5Aukm0Zgz/sgu5bVpkA4jw5sj1G+fwC5o0BskLHY9TYIsEX1KBCOogPbY6AvX6N4w7F8hWDTMGx8G8TYihoUCIfQAsGmIe54ALmnQGyQCdj6Ngiz5axeIGx/C8SaRvn6NYo3nM2XyDSNxe63QaStZekCYeNbINM0zj0PIBZINA6gDYJtIesWCFvegj/4mOGb1yjecEJfI840AUfQBvG2ikULhM1uwfaY464HEAtkAZxCG4TcEpYsEPa5A9tjmm/fYvKCc/oGSaZZOIc2SLp86xUIO9yB7TETDfENjuobxJgm4ijaIO/CLVYg7G0Htsdc9z2A3FkgNkgEDqMNUi/ZSgXCrrZAimkaCuI7nNd3SDDNxnm0QfbFWqZA2M8WiDBNdOcDyL0FYoPk4ETaIAEzrVEg7GQLBJjmoh++xal9i/BSBA6lDXIw0AIFwh624A8+Qtz3O7xPOLjvEV0KwbG0QRqmSS8Qdq8F2yMH9fA9zu575JZicDB9kIlRsguEjevA9khy9wPI/QVigwTiaPogGHMEFwhb1oHtEeaO97iDE7wDmaUsnE4fxGOI1AJhszqwPeLc/wBigTTAAfVBSCaILBC2qQUiS0l+0Q534BjvQVwpEEfUBkk5X16BsEMtkFfK8sADiAXSBqfUBnk5WViBsDct+K2rVPf+EeEzDvMuJJVScU5tkJozJRUIu9KC7RGMbrgL53kXYkrBOKo2yM5pYgqE/WjB9oj2yAPIQwVigyyBw2qDBJ0jpEDYig5sj3RUw3041fuQUErHebVBjE6QUCBsQge2R76HHkAeKxAbZB2cWBuE6WjTC4SP3wIJpWg0w5042jsRTloCh9YGkTrU3ALhg7dAPCncI7/D+4TTvRfRpEVwbG0QrONMLBA+cguEk/JRDPfigO9FLmkdnFwbxOsgswqED9uCP/hYyIMPII8WiA2yIs6uDUJ2hCkFwsdswfZYy/2vUbzhmO9GJGkxHF8bRO3lJhQIn7AD22M1jz6APFwgNsiyOMA2yNtrjS4QPlsHtseCftILd+Ow70caaUWcYRNk7qWGFgifqwPbY0kPP4BYIJvhFFsgdi81rkD4UC0QR1rND2rhfpz4A0girYpzXB/Je6lBBcInaoEs0oJohQdw6A8ghrQwjnJxhO+lhhQIn6cDgkhLeuwtJi8490cQQloah7ky4vdSFsgD/MHH4iiFR3D0jyCBtDrOc1nE76UskHvZHss78ABypEBskD440TURv5eyQO5ie3RAJzyEAXgI4aMWONT1kL7XskC+Z3v08Pjv8D5hBh5D9KgJjnUxpO+1LJBv2B5tUAmPYQweQ+6oD052JaTvtSyQLxE9auDQA8ixArFBOuJsl0H6XmtIgSzaIASPenj0NYo3zMKDiBw1w/GugfC9lgXyCVJHXRx7ADlYIDZIWxzwAgjfa1kgH/EHH/0cewCxQPQPzjgd4XstC+QftkdHBx9ALBB9hGOORvheywJ5y/Zo6heF8Cjm4mEEjdrioGORvRezQF6xPdo6+gBigehznHUmsvdiFshvtkdnR95i8oLpeBwZo9447UBk78UskBtyRk1RB49jPh5HwKg9DjwN2XuxMQUS3iCEjNo6/AByvEBskH1w4lmI3otZIESMOqMNDmBKDiBctAUOPQjRe7HNC8QffGzh+ANIoUBskM1w7CmI3ovtXCC2xy4ogyOYlSPIFe2Dk49A9F5s2wKxPfZx+Hd4nzAuh5Aq2glnPx3Je7U9C8T22ApdcAgTcwiRos1w/HORvFfbsEBsj81UHkBKBWKDbIsBmIjkvdp2BUKoaB8HX6N4w9gcQ5poR8zALCTv1QYVSEiDkCjaSekBpFYgNsjemIIpCN6rbVQg5Ik285MqOIbhOYgg0bYYhPEI3qvtUiD+4GNXtQcQC0RVzMJgBO/VtigQ22NjP2iCgxiho8gQ7Y1pGIngvVr/ArE99kYRHMUUHUWAaHsMxCjk7uWaF4jtsbvCW0xeMEiHER/S0A4hdy/XuUBsD1UfQCwQnYmpuB65e7m+BUKAaGvVB5Bygdggeou5uBi5e7mmBUJ8aHfUwHEM1HHEhvQHo3ElcvdyowpkZIOQHVLxd3ifMFMFhIb0CsNxGWL3cu0KxB986C9aoICxKiAxpDcYj4sQu5frVSC2h16rP4CcUCA2iD7BgFyB2L1cowKxPfRO6TWKNwxXBWkh/YsZOR2xe7kuBWJ76B8nPICcUSA2iL7ClJyK1L1ejwIhMKTXaq9RvGHCSggK6RMMynlI3es1KBDSQnrrjAcQC0RjMCsnIXWvt3qBkBXSP4qvUbxhzmrICOkrTMsZSN3rDSuQKxrEH3zoc6c8gFggGomBKSN0r7dugdge+lL5LSYvmLYi4kH6FiNTQ+heb9ECsT30HRqgiIErIhuk7zEzJYTu9VYsENtD3zvnAeSkArFBdDdGpoTQvd5yBWJ76C4UQBVjV0U2SN9iZCrI3AEWKxDCQfrGSQ8gZxWIDaJ7MTEVZO4AaxUI4SB9h/wvY/LKCAfpO0xMBZk7gAWijs75Hd4nTF4d6SB9g4GpIHMHGFcgZzQI6SB9g/ivY/LqSAfpa8xLCZE7gAWihk57ADmvQGwQ3YVxKSFyB7BA1NAJ73EHk3cC8kH6EuNSQuQOsFaB+Du8usd5DyAnFogNonswLSVE7gAWiPr5RfqfgMk7AwEhfYVpqSBxR1irQPwelu5w4gOIBaLBmJYKEncEC0TtnPVHhM8YvFOQENIXGJYKEncEC0TtkP2nYPBOQUJIX2BYKkjcEQYWyBkNQkJInzvzAeTUArFB9C1GpYTAHcECUTdE/zkYvHOQEdKnGJUSAncEC0TNnPoAcm6B2CD6DpNSQuCOsFiB+Hu8+g7JfxIG7ySEhPQZJqWEwB3BAlEvZ/4O7xMG7yykhPQJBqWCvB1isQLxe1j6BsF/FubuLKSE9AkGpYK8HcICUSsnP4CcXSA2iL7GnFSQt0NYIGrlvNco3jB3pyEmpI8xJxXk7RAjC+SMBiEmpA+d/QByeoHYIPoKU1JC3A5hgaiTn+T+aZi78xAU0keYkhLidggLRI2c/gBigWgopqSEuB1itQLx93j1hR/E/nmYuxORFNIHGJIS4nYIC0SNkPonYu5ORFJIH2BIKkjbMVYrEL+Hpc+d+xaTF4zdmYgK6V/MSAVpO4YFoj4I/TMxdmciKqR/MSMVpO0YFojauOAB5IoCsUH0KUakgrQdwwJRG2T+qRi7U5EV0ntMSAlpO8bQAjmjQcgK6b3zf4f3CWN3LtJCeocBKSFsx7BA1AWRfy7G7lykhfQOA1JC2I5hgaiJSx5ArikQG0QfYz5KCNsxlisQ/xBEHyPxT8bYnYy4kN5iPkoI2zGWKxAfQfShax5ALioQG0QfYjwqyNpBLBD1cPZ73MHUnY28kN5gPCrI2kEsELVw0QOIBaKRGI8KsnYQC0Qt/CLwz8bUnY7AkF5jOirI2kHGFsgZDUJgSK9c9QBigWgghqOEqB3EAlEHV7zF5AVTdz4iQ/qL2SghagexQNQBcX8+pu58RIb0F7NRQtQOsl6B+Icg+sdlDyDXFYgNon8wGiVE7SAWiBog7S/A1F2AzJD+YDQqSNpR1isQv4el9657ALmwQGwQvcdkVJC0o1ggWh9hfwWG7gqEhvQbk1FB0o5igWh5l/0O7xOG7hKkhgQGo4KkHWVwgZzRIKSGBLL+EgzdJUgN6Ya5KCFoR7FAtLorH0AuLRAbRG8wFiUE7SgWiFZ30WsUbxi6a5Ab0gvGooSgHWXBAvH3ePXapQ8g1xaIDaLXmIoSgnYUC0SL+0nUX4OhuwjBIT1jKirI2WEWLBC/h6VXrn0AsUA0DlNRQc4OY4FobT9I+oswc1chOaQnDEUFOTuMBaK1EfRXYeauQnJITxiKCnJ2mNEFckaDkBzSpW8xecHMXYbokFb8GboForWR85dh5i5DdkgWyD34nBVEh3T5A8jlBWKD6DcmooSYHWbFAvH3ePUbMX8dZu46hIfERJQQs8NYIFrYxb/D+4SZuxDpoe0xEBWk7DgrFojfwxJI+QsxchciPbQ9BqKClB3HAtG6rn8AGVAgNohumIcKUnYcC0TruvQ1ijeM3JWID+2OeaggZccZXiBnNAjxoc0NeAAZUSA2iJ4xDSWE7DgWiJY14AHEAtEoTEMJITuOBaJVjXgAsUA0CtNQQsiOs2SB+Hu8enLxaxRvGLlrkSDaGsNQQsiOY4FoUUMeQCwQjcIwVJCxAy1ZIH4PSwPeYvKCibsYEaKdMQsVZOxAFogWRcJfjIm7GBGinTELFWTsQBaI1jTmAWRQgdggskDuw0ctIUO0MQL+akzc1cgQ7YtJKCFjBxpfIGc0CBmifQ16ABlVIDbI9hiEEiJ2IAtESyLfL8fEXY4U0bYYhBIidiALRCsa8zu8T5i46xEj2hVzUELEDrRmgfiHILsj3q/HxF2PGNGumIMSInagNQvER5DNDXsAGVcgNsjmGIMKEnYkC0QLGvEaxRsGbgByRJtiDCpI2JEsEK1n3APIwAKxQfbGFFSQsCNZIFrPL9J9AAZuBIJEe2IKKkjYkSYUyBkNQpBoSwMfQCwQjcEQlBCwI1kgWs6Q97iDgRuCKNGOmIESAnYkC0TLIduHYOCGIEq0I2aghIAdadEC8Q9BNjbqLSYvGLgxyBJtiBEoIWBHskC0GqJ9DAZuDLJEG2IEKsjXoRYtEL+Hta+hDyBjC8QG2RcTUEG+DmWBaDEk+yDM2yCEifbDBFSQr0NZIFrLyN/hfcK8jUKaaDsMQAX5OtSMAjmjQUgTbYdgH4V5G4U00W44/xLidSgLREsZ/AAyukBskE1x/CXE61AWiJYy7jWKN8zbMOSJNsPxlxCvQ61aIP4e755GP4AMLxAbZE+cfgnxOpQFopX8JNeHYd7GIVC0F06/gnQda9UC8XtYWxr+AGKBaAhOv4J0HcsC0UJGvkbxhnEbiETRVjj8CtJ1LAtECyHVB2LcBiJRtBUOv4J0HWtKgZzRICSKdjL2LSYvGLeRiBRthKMvIVzHskC0DkJ9JMZtJDJFG+HoSwjXsSwQLWPCA8iMArFB9sPJlxCuYy1bIP4e737I9KEYt6EIFe2Dky8hXMeyQLSKGQ8gUwrEBtkOB19Btg62bIH4PaztEOljMW1jkSraBgdfQbYOZoFoEeP/iPAZ0zYYsaJdcO4VZOtgFogWQaIPxrQNRqxoF5x7Bdk62JwCOaNBiBVtYs4DyKQCsUH2wqmXEK2DWSBaw+j3uINpG41g0R449RKidTALREuY9ABigWgATr2EaB1s3QLx93i38otAH41pG45k0RY49BKidTALRCuY9QBigWgADr2CZB1t3QLxe1g7mfJHhM8YtvGIFu2AM68gWUezQLQC4nw8hm08okU74MwrSNbRLBAtYNoDyLwCsUE2wpFXkKyjWSBaAGk+AcM2Admi/jjxEpJ1tEkFckaDkC3qb94DyMQCsUG2wYGXEKyjWSDKR5jPwLDNQLqoPQ68hGAdzQJRvGm/w/uEYZuCeFF3nHcJwTrawgXiH4LsgiyfgmGbgnhRd5x3CcE62sIF4iPIJmY+gEwtEBtkExx3Bbk6nAWidJNeo3jDrM1Bvqg5jruCXB3OAlG4qQ8gcwvEBtkDp11Brg5ngSjcT6J8DmZtEgJGvXHaFeTqcLMK5IwGIWDU2twHEAtEl+OwS4jV4SwQZftBkk/CrM1CxKgzzrqEWB3OAlE2gnwWZm0WIkadcdYlxOpwKxeIfwiygYlvMXnBrE1DxqgxjrqEWB3OAlE0cnwaZm0aMkaNcdQVpOp4KxeI38Pqb/YDyPQCsUH646QrSNXxLBAlI8bnYdTmIWTUFyddQaqOZ4Eo2OTf4X3CqE1EyqgtDrqCVB1vWoGc0SCkjNoixSdi1CYiZdQV51xCqI5ngSjX/AeQgAKxQZrjmEsI1fEsEOWa+hrFG0ZtJnJGTXHMJYTqeEsXiL/H21vAA0hCgdggvXHKJYTqeBaIYgU8gFgguhqnXEGmTrB0gfg9rNYSHkAsEF2NU64gUyewQJRq8msUb5i0uUgatcQhV5CpE1ggChXxAGKB6GoccgWZOsG8AjmjQYgadTT9LSYvmLTJiBo1xBGXEKkTWCAKRYJPxqRNRtaoIY64hEidwAJRpowHkJACsUH64oRLiNQJ1i4Qf4+3LwJ8NiZtNsJG/XDCJUTqBBaIIoU8gKQUiA3SFgdcQaLOsHaB+D2stsjv6Ri06UgbtcMBV5CoM1ggSpTxO7xPGLT5iBt1w/lWkKgzWCBKRHzPx6DNR9yoG863gkSdYWKBnNEgxI2aiXkAySkQG6QnTreEQJ3BAlGghNco3jBoAQgc9cLplhCoM1ggypPzABJUIDZISxxuCYE6w+IF4u/xtvSL9A7AoCUgcdQKh1tCoM5ggShO0AOIBaJrcbgV5OkUixeI38PqKOI97mDOIhA56oSzrSBPp7BAFIfsjsCcRSBy1AlnW0GeTmGBKE3KW0xeMGcZyBw1wtFWkKdTWCBKQ3RnYM4ykDnqg5MtIU+nmFkgZzQImaM+oh5AsgrEBmmHgy0hTqewQBSG5A7BnIUgddQGB1tCnE5hgShL0u/wPmHOUhA76oJzLSFOp1i9QPxDkG4I7hTMWQpiR11wriXE6RSrF4iPIM2EPYCkFYgN0gzHWkGazmGBKErOaxRvGLMY5I6a4FgrSNM5LBAlSXsAiSsQG6QXTrWCNJ3DAlGSn+R2DMYsB8GjHjjVCtJ0jqkFckaDEDxqIe4BxALRlTjUEsJ0DgtEQZJeo3jDmAUhetQBZ1pCmM5hgSgIqR2EMQtC9KgDzrSEMJ1j+QLxD0EayXqLyQvGLAnZowY40hLCdA4LRDkI7SBMWRSyRw1wpBVk6STLF4jfw+oj8AHkP6f8d8STET5aHydaQZZOYoEoBqEd5H8sEF2JE60gSyexQJQi8QHkP+d8m/pkpI+Wx4FWkKWTzC2QMxqE9NHyCO0g/2OB6EqcZwlROokFohB5f0T49ADyVCA2iK7CcZYQpZNYIApBaAd5egCxQHQhjrOEKJ1k/QLx93h7CHwAef4vJ2dd85O9xI9Wx2mWEKWTWCDKkPYe9//7v1/Pyzrrmp/sJX60Ok6zgiSdZf0C8XtYLYQ+gLwUSGCDvCxLq+M0K0jSWSwQRfhFauf435d1nXXPz/ayLi2Ow6wgSWexQJQg9QHEAtGFOMwKknSWyQVyRoO83HOtLfKPCJ+ddtHPdluYVsZRlhCks1ggSkBoB2GuzrvpJ7stTCvjKEsI0lksEAWIfQChQGwQXYCTLCFIZ2lQIP4e7/oI7SDPf0T47MSrfjJWpnVxkiUE6SwWiObLfQD5XSA2iM7HQVaQo9M0KBC/h7U8QjvI7wcQC0TX4SAryNFpLBBNl/kaxRuuug2i83GOFeToNBaIpiO0g/x5ALFAdB3OsYIcnWZ2gZzRIFx1LSr2jwifcdWfMG1JWJnWxCmWEKPTWCCaLe81ij9Y2RPu+hOmLQkr05o4xRJidBoLRJNFP4C8KhAbROfiEEuI0Wk6FIi/x7u0n6R2jp+s7Bl3/RnjloSVaUkcYgkxOo0FormyH0AsEF2GQ6wgRefpUCB+D2tlP0jtHLf3uIO7/oJxS8LKtCLOsIIUnccC0VykdpA388Rdf8G4JWFlWhFnWEGKzmOBaKrgt5i84K7fMG9JWJkWxBFWkKLzWCCaitAO8nacuOs3zFsSVqYFcYQVpOg80wvkjAbhrms96Q8gbwvEBtF5OMASQnQeC0QzEdpB/r7F5AWXHQxcElam5XCAJYToPBaIJkp+jeINl/03Ji4JK9NqOL8SQnSeFgXiH4KsitAO8u4BxALRVTi/EkJ0nhYF4iPIovIfQN4XiA2is3B8FWToRBaI5ol+jeINl/0PJi4JK9NiOL4KMnQiC0TThL/F5AWX/S9GLgkr01o4vQoydCILRNPkPYC8fo3iDZf9L0YuCSvTWji9CjJ0ovkFckaDcNm1lBUeQCwQXYTDKyFCJ7JANMsvUjvHm9co3nDbX2HmkrAyrYSzKyFCJ7JANMkSDyAWiC7C2ZUQoRP1KBD/EGRB8W8xecFtf42hS8LKtBCOroQIncgC0SSEdpCPnmS57a8xdElYmRbC0VWQoDP1KBC/h7WeNR5APioQG0Qn4OQqSNCZLBDNQWgHef8Wkxfc9jcYuiSsTOvg5CpI0JksEE2xyAPIhwVig6iOg6sgQWcKKJAzGoTbrmUQ2kE+fACxQHQNzq2EAJ3JAtEMC7xG8Ybr/g5jl4SVaREcWwkBOpMFohkI7SAfP4BYILoGx1ZCgM7UpED8Pd61rPFHhM+47u8xd0lYmdbAqZUQoDNZIJog7zWKv1jZe1z395i7JKxMa+DUKsjPqZoUiN/DWso6DyCfFYgNohoOrYL8nMoC0XhLvEbxhuv+D+YuCSvTEji0CvJzKgtEwy30AGKB6BocWgX5OVVCgZzRIFx3reAHqZ3j0weQTwvEBlEFR1ZCfE5lgWg4UjvI5/PDff8Xg5eElWkBHFkJ8TmVBaLRVnmLyQvu+weYvCSsTPk4sRLic6ouBeLv8a6D0A7yxX//4L5/gMlLwsqUjxMrIT6nskA02FIPIF8UiA2i4ziwCtJzri4F4vewlkFoB/nkLSYvuO8fYfKSsDLF48AqSM+5LBCNtcxrFG+47x9i9JKwMqXjvCpIz7ksEI1FaAf56gHEAtElOK8K0nOuiAI5o0G47wq32APIlwVig+ggTquE8JzLAtFQea9R/MHKPsaF/xizl4SVKRunVUJ4zmWBaKSV3mLyggv/CYYvCStTNA6rhPCcq02B+Hu8S/hJauf4yco+wYX/BMOXhJUpGodVQnjOZYFooOUeQCwQXYHDqiA7J2tTIH4PawUrvUbxhgv/GYYvCStTMs6qguyczALROOs9gFggugJnVUF2TmaBaJy13mLyggv/KaYvCStTMI6qguyczALROIR2kG/Hhgv/KaYvCStTMI6qguycLKNAzmgQLrxyLfgA8m2B2CB6HAdVQnROZoFoGEI7yJdvMXnBjf8c45eElSkWB1VCdE5mgWiUFR9Avi8QG0QP45xKiM7J+hSIfwiSjtAO8v0DiAWiC3BOFSTnbH0KxEeQcKu9RvGGG/8V5i8JK1MojqmC5JzNAtEghHaQOx5ALBBdgGOqIDlns0A0xoJ/RPiMG/8lBjAJK1MmTqmC5JzNAtEYee9x/8XKvsSN/xIDmISVKROnVEFyzhZSIGc0CDdekRZ9ALmrQAIbhIUpEodUQnDOZoFoiF+kdo7vXqN4w5X/GhOYhJUpEWdUQnDOZoFohFUfQCwQnY8zKiE4Z2tUIP4hSLAl/4jwGVf+G4xgElamQBxRCcE5mwWiEQjtIHc+sXLlv8EIJmFlCsQRVZCb0zUqEL+HlWvZB5A7C8QG0QM4oQpyczoLRAMQ2kHu+SPCZ1z57zCCSViZ8nBCFeTmdBaIrrfuA8i9BWKD6H4cUAW5OV1KgZzRIFx5xSG0g9z7AGKB6HScTwmxOZ0Fosut+RrFG+789xjCJKxMYTieEmJzOgtElyO0g9z9AGKB6HQcTwmxOV2nAvH3eDMt+0eEz7jzd2AKk7AyZeF0SojN6SwQXS3vNYo/WNkduPN3YAqTsDJl4XQqSM35OhWI38OKtPQDyAMFYoPoPhxOBak5nwWii/0ktXP8ZGX34M7fgylMwsoUhcOpIDXns0B0rbUfQCwQnY7DqSA154spkDMahDuvJD9I7Rz3vccd3Pm7MIZJWJmCcDQlhOZ8FoiuRWoHeWhOuPR3YQyTsDIF4WhKCM35LBBdauG3mLzg0t+HOUzCypSDkykhNOdrVSD+Hm8eQjvIY/89g0t/H+YwCStTDk6mhNCczwLRlVZ/AHmsQGwQfY+DqSAzA7QqEL+HFYfQDnL/W0xecOnvxBwmYWWKwcFUkJkBLBBdaOXXKN5w6e/FICZhZUrBuVSQmQEsEF2I0A7y4AOIBaKzcS4VZGaAnAI5o0G49Aqx/gPIowVig+gbnEoJkRnAAtF1ln6N4g23/m5MYhJWpgycSgmRGcAC0WUWf4vJC279/RjFJKxMETiUEiIzQK8C8fd4o+Q9gDzyGsUbbv39GMUkrEwROJQSIjOABaKrdHgAsUB0Mg6lgsRM0KtA/B5Wkl+kdo6HXqN4w61/AKOYhJUpAWdSQWImsEB0kRYPIBaITsaZVJCYCSwQXWT5t5i84NY/gllMwsoUgCOpIDETWCC6CKEd5Mh4cOsfwSwmYWUKwJFUkJgJggrkjAbh1mu+Hg8gRwrEBtHnOJASAjOBBaJrENpBHn2LyQuu/UMYxiSsTNNxICUEZgILRJdo8gByqEBsEH2K8yghMBM0KxD/ECQFoR3k0AOIBaJzcR4V5GWEZgXiI0iIBq9RvOHaP4hpTMLKNBnHUUFeRrBAdAVCO8ixBxALROfiOCrIywgWiC7Q448In3HtH8U4JmFlmovTqCAvI1ggukDeaxR/sbJHce0fxTgmYWWai9OoIC8jJBXIGQ3CtddUfR5AjhaIDaIPcRYlxGUEC0Tna/EaxRvu/cOYxySsTDNxFiXEZQQLRKdr9ABigehUnEUJcRmhW4H4hyABfpDaOQ4/gBwuEBtEH+EoSojLCBaITkdqBzn+ZMq9fxwDmYSVaSKOooK0zNCtQPwe1nxd3mLygnt/AAOZhJVpHk6igrTMYIHobIR2kMJUcO8PYCCTsDLNw0lUkJYZLBCdrNUDSKFAbBD9i4OoIC0zRBXIGQ3Cvdc0hHaQg28xecG9P4KJTMLKNAvnUEJYZrBAdK42r1G84eIfwkgmYWWahGMoISwzWCA6F6EdpPIAYoHoTBxDCWGZoV2B+Hu8czV7ACkViA2idziFEsIygwWiU+W9RvEHKzuGi38MM5mElWkOTqGCrAzRrkD8HtZUnd5i8oKLfxAzmYSVaQoOoYKsDGGB6Ew/Se0cP1nZQVz8g5jJJKxMU3AIFWRlCAtEJ2r3AGKB6EwcQgVZGSKrQM5oEC6+Zuj0GsUbLv5RDGUSVqYJOIISojKEBaLz9HsAsUB0Io6ghKgMYYHoPL3eYvKCm38YU5mElWk8TqCEqAzRr0D8Pd55CO0g5f8+wc0/jKlMwso0HidQQlSGsEB0moYPIOUCsUH0FwdQQVKm6Fcgfg9rGkI7SOktJi+4+ccxlUlYmYbjACpIyhQWiM7S8QGkXiA2iP5g/ytIyhQWiM5CaAepP4BYIDoR+19BUqYIK5AzGoSbr8G6vUbxhptfwVwmYWUai90vIShTWCA6CaEd5IQHEAtE52H3SwjKFBaIztHwjwifcfVLGMwkrExDsfklBGWKhgXi7/FOkfce91+srISrX8JgJmFlGorNLyEoU1ggOkXTB5BTCiSwQViYhmLzK8jJGA0LxO9hzfCL1M5RfY3iDVe/hsFMwso0EntfQU7GsEB0hq4PIBaIzsPeV5CTMSwQnaHlHxE+4+oXMZlJWJkGYusryMkYFojOQGgHOWkMuPpFTGYSVqaB2PoKcjJGWoGc0SBcfY3T9gHkpAKxQXTOEBCTMSwQnYDQDnLGHxE+4+5XMZpJWJmGYeNLiMkYFojq+j6AnFUgNogskBHYpwr/EGQ0QjvIWQ8gFohOw75XkJI5OhaIjyCD9XyN4g13v47ZTMLKNAjbXkFK5rBAVEZoBzntAcQC0WnY9gpSMocFoqq2f0T4jLt/AoYzCSvTGOx6BSmZwwJRVd5rFH+wshNw90/AcCZhZRqDXa8gJXPEFcgZDcLd1xCtH0BOLBAbZHPseQkhmcMCUdFPUjvHT1Z2Bi7/GZjOJKxMI7DnJYRkDgtENb0fQCwQnYU9LyEkc7QsEP8QZKAfpHaOc97jDi7/KRjPJKxMA7DlJYRkDgtENaR2kFOfQLn8p2A8k7AyDcCWV5CRQVoWiN/DGqfxW0xecPnPwXgmYWW6HjteQUYGsUBUQmgHOff0ufznYDyTsDJdjx2vICODWCCq6P4Acm6B2CA7Y8MryMggeQVyRoNw+XU5QjvIeW8xecHlPwnzmYSV6WrsdwkRGcQCUUHn1yjecPvPwoAmYWW6GNtdQkQGsUBUQGgHOfkBxALRSdjuEiIySM8C8fd4x+j/AHJ2gdgg22K3S4jIIBaIjmv9GsUbbv9pmNAkrEzXYrcrSMgkPQvE72EN0fwtJi+4/edhQpOwMl2Kza4gIZNYIDos7wHkzNco3nD7z8OEJmFluhSbXUFCJrFAdNQODyAWiE7CZleQkEkCC+SMBuH260q/SO0cp75G8YbbfyJGNAkr04XY6hICMokFooO2eACxQHQOtrqEgExigeig9m8xecH1PxMzmoSV6TrsdAkBmaRpgfh7vNcjtINc8d8buP5nYkaTsDJdh50uISCTWCA6Zo8HkCsKxAbZERtdQT5GaVogfg/rcoR2kLPfYvKC638qZjQJK9Nl2OgK8jGKBaJDNnkAuaRAbJANsc8V5GMUC0SHENpBLnkAsUB0Dva5gnyMklggZzQI118X2eA1ijdc/5MxpUlYma7BLpcQj1EsEB1BaAe55gHEAtEp2OUS4jGKBaID9vgjwmfc/7MxpklYmS7BJpcQj1G6Foi/x3upvNco/mJlZ+P+n40xTcLKdAk2uYR4jGKB6HH7PIBcVSA2yGbY4wrSMUvXAvF7WFf6SWrnuOA1ijfc/9MxpklYma7AHleQjlksED1sowcQC0SnYI8rSMcsFoge9oPUznHZA8hlBWKD7IUtriAds1ggehipHeS64+b+n485TcLKdAG2uIJ0zBJZIGc0CPdf59vlLSYvuP8XYFCTsDKdjg0uIRyzWCB6FKEd5MLTJgAuwKAmYWU6HRtcQjhmsUD0oK0eQC4sEBtkI+xvCeGYpW2B+IcgVyG0g1z0FpMXBMAVmNQkrExnY38ryMYwbQvER5CLbPMaxRsC4BJMahJWppOxvRVkYxgLRI8htINc+QBigegMbG8F2RjGAtFDNnsAubRAbJBtsLsVZGMYC0QPyXuN4g9Wdg0C4BqMahJWpnOxuxVkY5jMAjmjQQgAnWqnt5i8IAAuwqwmYWU6E3tbQjSGsUD0iLzXKP5kZRchAS7CrCZhZToTe1tCNIaxQPSA7R5ALBCdgL0tIRrD9C0Q/xDkAju9RvGGBLgKw5qElelEbG0J0RjGAtH99nsAsUB0Ara2gmRM07dA/B7W+fZ6i8kLEuAyDGsSVqbzsLMVJGMaC0T3I7SDXH7KJMBlGNYkrEznYWcrSMY0FojutuEDyOUFYoPsgI2tIBnThBbIGQ1CAug0hHaQS99i8oIEuA7TmoSV6SzsawnBmMYC0b12fAC5vkBskP7Y1hKCMY0FonsR2kGufwCxQFTHtpYQjGkaF4i/x3uu3V6jeEMEXIl5TcLKdA52tYRgTGOB6E6EdpABDyAWiOrY1QpyMU7jAvF7WKfa8I8InxEBl2Jek7AynYJNrSAX41gguk/ee9x/sbJLEQGXYl6TsDKdgk2tIBfjWCC6y6YPIEMKJLBBWJhOwaZWkItxUgvkjAYhAnSGX6R2jqtfo3hDBFyLgU3CynQCtrSEWIxjgegeuz6AWCAqY0tLiMU4FojuseUfET4jAy7GxCZhZapjR0uIxTidC8Tf4z0PoR1k0H8/IAMuxsQmYWWqY0dLiMU4FojusO0DyKACsUE6Y0MrSMU8nQvE72GdhtAOMuKPCJ+RAVdjYpOwMpWxoRWkYh4LRN/b9wFkVIHYII2xnxWkYh4LRN8jtIOMegCxQFTGflaQinliC+SMBiEDVLTnaxRvyIDrMbNJWJlq2M0SQjGPBaJvEdpBhj2AWCCqYjdLCMU8Foi+s+0fET4jBAZgaJOwMpWwmSWEYp7WBeLv8Z4i7zWKP1jZAITAAAxtElamEjazhFDMY4HoG1s/gAwsEBukKfaygkwM1LpA/B7WGX6S2jl+srIRCIERGNokrEwV7GUFmRjIAtHX9n4AsUBUxV5WkImBLBB97QepnWPMe9xBCAzB1CZhZSpgKyvIxEAWiL5GagcZeqyEwBBMbRJWpgK2soJMDJRbIGc0CCGg4zZ+i8kLQmAMxjYJK9NhbGQJkRjIAtGXCO0gY0+VFBiDsU3CynQYG1lCJAayQPSV3R9AxhaIDdIQ+1hCJAbqXSD+IUgVoR1k3FtMXpACgzC3SViZjmIfK0jERL0LxEeQop1fo3hDCozC3CZhZTqIbawgERNZIPoCoR1k8AOIBWKBFLGNFSRiIgtEn/MBZHSB2CDtsIsVJGIiC0Sf2/o1ijekwDAMbhJWpmPYxQoSMVFwgZzRIKSADtn8LSYvSIFxmNwkrExHsIclBGIiC0SfynsAGfkaxRtiYBwmNwkr0xHsYQmBmMgC0Wd8AHlCDIzD5CZhZTqCPSwhEBM1LxD/EKTgF6mdY+hrFG+IgYEY3SSsTAewhSUEYiILRJ/wAeQZMTAQo5uElekAtrCCPIzUvED8HtZx27/F5AUxMBKjm4SV6XHsYAV5GMkC0ScI7SAzTpMYGInRTcLK9Dh2sII8jGSB6GM+gLwgBoZidpOwMj2MDawgDyMlF8gZDUIM6GGEdpDRbzF5QQwMxewmYWV6FPtXQhxGskD0IR9AbsiBsRjeJKxMD2L7SojDSBaIPkRoB5nyAGKBgJXpQWxfCXEYqXuB+Hu8x/gaRZADgzG9SViZHsPulRCHkSwQfYTQDjLnAcQC+Y2V6THsXgVpmKl7gfg9rEP8I8LfyIHRmN4krEwPYfMqSMNMFog+kPcaxV+sbDRyYDSmNwkr00PYvArSMJMFon/5APIHOTAc45uElekR7F0FaZgpukDOaBByQI/4SWrnmPAaxRtyYDjGNwkr0wPYuhLCMJMFon/4APIXQTAc45uElekBbF0JYZjJAtE/fpDaOaY9gEwrEBukBXauhDDM1L5A/D3ex5HaQeb99wCCYDzmNwkr0/3YuRLCMJMFovd8i8krBMEEDHASVqa7sXEVZGGo9gXi97AeRmgHmXiIBMEEzG8SVqa7sXEVZGEoC0Tv+ADyGkEwAwOchJXpXuxbBVkYygLRO4R2kElvMXlBEMzAACdhZboX+1ZBFobKLpAzGoQg0J18jeIbBMEUTHASVqb7sGslRGEoC0RvEdpBZj6AWCBvsTLdh10rIQpDWSB6wweQt0iCORjhJKxMd2HTSojCUP0LxN/jfUjeaxR/sLI5SII5GOEkrEx3YdNKiMJQFohe8y0m75AEkzDDSViZ7sGeVZCEqfoXiN/DekTeaxR/srJJSIJJGOEkrEz3YM8qSMJUFohe8QHkPZJgEkY4CSvTPdizCpIwlQWiV3yN4nskwSzMcBJWpjuwZRUkYSoLRH/5APIPkmAWZjgJK9Md2LIKkjBVeIGc0SAkgb7nW0z+QRJMwxAnYWX6FhtWQhCmskD0F6EdZPrpEQXTMMRJWJm+xYaVEISpLBD94QPIv4iCeZjiJKxM32G/SgjCVBsUiH8Ici9CO8jUt5i8IArmYYqTsDJ9h/2qIAdjbVAgPoLcyQeQDxAFEzHFSViZvsF2VZCDsSwQ/UZoB5n/AGKBfISV6RtsVwU5GMsCEXyN4keIgpkY4ySsTF9jtyrIwVgWiEBoBwl4ALFAPsTK9DV2q4IcjJVeIGc0CFGgLwU+gCRghvQWCamvsFclxGAsC0Q3ee9xj8AM6S0iUl9hr0qIwVgWiF74APIxZkjvkJH6AltVQgzG2qFA/EOQO/wiMPUWM6R3yEh9ga0qIQZjWSB65gPIJ5ghvUNG6gtsVQUpmGuHAvF7WN8L/CPCDIyQ3iMk9Tl2qoIUzGWB6BlxqfcYIb1HSOpz7FQFKZjLAtETH0A+wwjpH6SkPsVGVZCCueIL5IwGISX1KdJS/2CE9A9SUp9hn0oIwVwWiHwA+QIjpH+Rk/oE21RCCOayQOQDyBcYIf2LnNQn2KYSQjDXFgXi7/F+zd/h/RwjpA8QlPoYu1RCCOayQOQDyBcYIX2AoNTH2KUKMjDYFgXi97C+5APIF5ggfYSk1IfYpAoyMJgFIl+j+AUmSB8hKfUhNqmCDAxmgWzPB5CvMEH6EFGpj7BHFWRgsPwCOaNBiEp95CdRqY8wQfoQUakPsEUlRGAwC2R3PoB8iQnSh8hKfYAtKiECg1kgu/tBUupDTJA+RljqX+xQCREYbI8C8fd4P0dQ6mNMkD5GWOpf7FAJERjMAtmcbzH5GhOkT5CW+gcbVEECJtujQPwe1qfISX2CAdInSEv9gw2qIAGTWSB78wHkGwyQPkNc6j32p4IETGaB7I2Y1GcYIH2GuNR77E8FCZhsgQI5o0GIS73j7/B+hwHSp8hLvcXulBCAySyQrZGS+hQDpE8RmHqL3SkhAJNZIDvzAeRbDJA+R2LqDTanhABMtkmB+Hu8HyIk9TkGSJ8jMfUGm1NCACazQDbmA8j3GCB9gcjUa+xNBfkXbZMC8XtYH/E97t9jfvQFIlOvsTcV5F80C2RfPoDcgfnRF4hMvcbeVJB/0SyQff0iI/UF5kdfITP1CltTQf5Fs0C25QPIPZgffYXM1CtsTQX5F22FAjmjQQhN/eVbTO7B/OhLhKb+YGNKiL9oFsi2SEh9ifnRl0hN/cHGlBB/0SyQXfkAchfmR18jNvUb+1JC/EXbpUD8Q5D3CEh9jfnR14hN/ca+VJB+2XYpEB9B3vEB5D6Mj75BbgpsSwXpl80C2RT5qG8wPvoGuSmwLRWkXzYLZE/+Du+dGB99h+DUDbtSQfpls0D2RDzqO4yPvkNw6oZdqSD9si1RIGc0CMGpFz6A3Ivx0bdITj1jT0oIv2wWyJZ8jeK9GB99i+jUM/akhPDLZoHsyAeQuzE++h7ZqSdsSQnhl22bAvEPQV75STrqW4yPvkd26glbUkL4ZbNANuQDyP0YH32P7NQTtqSC7Au3TYH4Pay/fhCO+h7TozsQnrJAwrClJYSn/B3eRzA9ugPhKQskDFtaQnjKt5g8gunRPUhPWSBh2NMK0lM+gDyC6dE9SE+xHyVEXzgLZDs+gDyC6dFdyM/tsR0lRF84C2Q7JKPuwvToLuTn9tiOEqIv3D4F4u/x3vg7vA9henQfAnR37EYJ0RfOAtkNwaj7MD26DwG6O3ajguRLt0+B+D2sFz6APIbh0Z1I0M2xGRUkXzoLZDO+RvExDI/uRIJujs2oIPnSWSB78QHkQQyP7kWE7o29qCD50i1SIGc0CBG6Nx9AHsTw6F5E6NbYihKCL50FshUfQB7F8OheZOjW2IoSgi+dBbIVX6P4KIZHdyNEd8ZOlBB86TYqEH+P1weQxzE8uhshujN2ooTgS2eB7MS3mDyM4dH9SNGNsREV5F68jQrE72H5R4SPY3Z0P1J0Y2xEBbkXzwLZiA8gj2N29ABidF/sQwW5F88C2QiZqAcwO3oAMbov9qGC3Iu3SoGc0SDE6LZ8ADmA2dEjyNFtsQ0VxF48C2QfRKIewezoEeTortiFEmIvngWyDX+H9whmRw8hSTfFJpQQe/F2KpDNf4+XRNRDmB09hCTdFJtQQuzFs0B24QPIIcyOHkOU7ok9qCD18u1UIHt/D8vXKB7C6OgxROme2IMKUi+fBbIJH0COYXT0ILJ0S2xBBamXzwLZxC8CUY9hdPQgsnRLbEEFqZdvmQI5o0HI0h35AHIQo6MHkaVbYgsqCL18FsgefI/7QYyOHkWYbogNKCH08lkgeyAO9ShGR48iTTfEBpQQevkskC34FpOjGB09jDjdD5+/hNDLt1WB7PuHIKShHsbo6GHE6X74/BVk3gK2KpBtH0F8ADmMydHjyNPt8PEryLwFWCA7IAz1OCZHjyNPt8PHryDzFmCBbMDf4T2OydEBBOpu+PQVZN4CLJANkIU6gMnRAQTqbvj0FWTeAtYpkDMahEDdjA8gBUyOjiBR98JnLyHyFmCB9OdrFAuYHB1BpO6Fz15C5C3AAmnPB5AKJkeHkKlb4aOXEHkL2KtAtvxDkJ9EoY5gcnQImboVPnoJkbcAC6Q7H0BKmBwdQqZuhY9eQeKtYK8C2fF7WL5GsYTB0TGE6k745BUk3goskO4IQh3D4OgYQnUnfPIKEm8FFkhzvsWkhsHRQaTqRvjgFSTeChYqkDMahFTdCDmogxgcHUSq7oPPXULgrcAC6c0HkCIGR0eRq9vgY5cQeCuwQHojBnUUg6OjyNVt8LFLCLwVbFYgu/0erw8gVQyODiNYd8GnLiHwVmCBtEYK6jAGR4cRrLvgU1eQd0vYrEA2+x6Wf0RYxtzoOJJ1E3zoCvJuCRZIZ4SgjmNudBzJugk+dAV5twQLpDEfQOqYGxUQrXvgM1eQd0tYqUDOaBCidQ++x72OuVEB0boFPnIJcbcEC6QvH0BOwNyogGzdAh+5hLhbggXS1y8yUAXMjSoI1x3wiUuIuyXsViAb/R6vDyBnYG5UQbjugE9cQtwtwQJpyz8iPANzoxLSdQN84ArSbg27FchG38MiAVXC2KiEdN0AH7iCtFuDBdKVDyCnYGxUQ7z2x+etIO3WYIF0RQCqhrFRDfHaH5+3grRbw1IFckaDEK/t+QByDsZGReRre3zcCsJuDRZIU+SfihgbFZGv3fFpSwi7NVggPfk7vCdhbFRFwjbHhy0h7NawXYFs8nu8xJ+qGBtVkbDN8WFLCLs1WCAt+QByFsZGZURsb3zWCrJuEdsVyB7fw/I1imdhalRGxPbGZ60g6xZhgXTkA8hpmBrVkbGt8VEryLpFWCAd/ST9VMbUqI6MbY2PWkHWLWKtAjmjQcjYznwAOQ9TozoytjU+agVRtwgLpKEfhJ/qmBqdgJBtjA9aQtQtwgJpiOzTCZganYCUbYwPWkLULcIC6ce3mJyIqdEZiNm++JwlRN0i9iuQ/n8IQvTpDEyNzkDM9sXnrCDpVrFfgbR/BPEB5EwMjU5BzrbFx6wg6VZhgbRD8ukUDI1OQc62xcesIOlWYYF04+/wnoqh0TkI2q74lBUk3SoskG4IPp2DodE5CNqu+JQVJN0qFiuQMxqEoG3KB5BzMTQ6CUnbE5+xhKBbhQXSjK9RPBdDo5MQtT3xGUsIulVYIL34AHIyhkZnIWtb4iOWEHSr2LBAWv8hiA8gJ2NodBaytiU+YglBtwoLpBUfQM7G0OgsZG1LfMQKcm4ZGxZI5+9h/SL2dBZmRqchbDviE1aQc8uwQDrxAeR0zIxOQ9h2xCesIOeWYYF04ltMTsfM6DykbUN8wApybhmrFcgZDULaNkTo6TzMjM5D2vbD5ysh5pZhgTTiA8j5mBmdiLxth49XQswtwwJphMwL8j+sbF1kw7oY+iSsrB0+Xgkxt4wdC6Tr7/EGPoCwsoWRDQtj6pOwsm74dCXE3DIskD4I7SDrP4BYIFdgZd3w6SpIuXXsWCBNv4cV+Du8rGxlZMPKmPokrKwZPlwFKbcOC6QNQjtIgwcQC+QSrKwZPlwFKbcOC6SLwAeQDhtNNiyNsU/Cynrhs1WQcutYrkDOaBCyoZe81yj+YmVLIxuWxtgnYWWt8NFKCLl1WCBN+AByDcJhbcx9ElbWCZ+shJBbhwXSRN5rFP+Xla2NcFgbc5+ElXXCJysh5NaxZYE0/D1eH0AuQjisjblPwso64ZOVEHLrsEB6+EFqB2FliyMcFsfgJ2FljfDBKsi4hWxZIA2/h0VoB2myyYTD4pj7JKysET5YBRm3EAukBd9ichXCYXUMfhJW1gefq4KMW4gF0gKhHaTDHxE+IxxWx+AnYWV98LkqyLiFrFcgZzQI4dCGDyCXIRyWx+QnYWVt8LEqiLiFWCAdENpBujyAWCDXYWVd8KlKiLiFWCAN+BrF65AO62P0k7CyJvhQJUTcQvYskGa/x0toB2nzAGKBXIiVNcGHKiHiFmKBrM8/IrwQ6dAAs5+ElfXAZ6og4VayZ4H0+h5W3msUf7CyBkiHBhj9JKysBz5TBQm3EgtkeT6AXIl06IDZT8LKWuAjVZBwK7FAlveT1M7xk5V1QDp0wOwnYWUt8JEqSLiVLFggZzQI6dCBDyCXIh06YPaTsLIW+EgVBNxKLJDV5b1Gscd73EE6tMDwJ2FlDfCBSgi4lVggqyO1g7T6BiHx0ALDn4SVNcAHKiHgVmKBLM63mFyLeOiB6U/CytbH5ykh4FayaYH0+UMQQjtIqwcQC+RirGx9fJ4K8m0pmxZIm5DzAeRixEMTTH8SVrY8Pk4F+bYUC2RthHaQPm8xeUE8NMH0J2Fly+PjVJBvS7FAluYDyNWIhy4Y/ySsbHV8mgrybSkWyNII7SDNHkAskMuxstXxaSrIt6WsWCBnNAjxsDjf43454qEN5j8JK1sbn6WEeFuKBbIyQjtIo9co3pAPbTD/SVjZ2vgsJcTbUiyQhfkWk+uRD31wAZKwsqXxUUqIt6XsWiAt/hAk7z3uv1hZH+RDH1yAJKxsaXyUEuJtKRbIunwAGYB86IMLkISVLY2PUkG6rWXXAumQdL9I7RytXqN4Qz40wgVIwspWxiepIN3WYoEsyweQEciHRrgASVjZyvgkFaTbWiyQZflHhCOQD51wA5KwsoXxQSpIt7UsWSBnNAj5sDBCO0jDBxALZAhWti4+RwnhthYLZFU+gAxBQLTCFUjCypbFxygh3NZigayK0A7S7S0mLwiIVrgCSVjZsvgYJYTbWrYtkNV/j9cHkDEIiF64A0lY2ar4FCWE21oskEUR2kFaPoBYIIOwslXxKSrItsVsWyCLfw/L1ygOQkA0wx1IwsoWxYeoINsWY4GsidAO0vMBxAIZhZUtig9RQbYtxgJZkn9EOAoB0Q2XIAkrWxOfoYJsW8yaBXJGgxAQa/I1iqMQEN1wCZKwsiXxEUqItsVYICvyAWQYEqIdbkESVrYiPkEJ0bYYC2RFP0ntHA1fo3hDQrTDLUjCylbEJygh2hazb4Es/Hu8PoCMQ0K0wy1IwspWxCcoIdoWY4Es6AepnaPtA0jbArFBzsQHqCDZVrNvgSz835lJ7SBtH0AskIFY2YL4ABUk22oskPX4FpOBSIiGuAZJWNl6WH8FybYaC2Q9hHaQvg8gFshIrGw9rL+CZFvNogVyRoOQEMvxAWQkEqIj7kESVrYcll9BsK3GAlkOoR2k6VtMXpAQHXEPkrCy1bD6EoJtNRbIanyN4lBEREtchCSsbDEsvoRgW83GBbLo7/ES2kE6P4BYIGOxssWw+BKCbTUWyGJ8ABmLiOiJm5CEla2FtVeQa8vZuEDW/B5W3msUf7CynoiInrgISVjZWlh7Bbm2HAtkLb7FZDAioiluQhJWthSWXkGuLccCWUveA8hPVtYUEdEUNyEJK1sKS68g15azaoGc0SBExEp8ABmNiGiKm5CElS2FpVcQa8uxQJbyi9TO0fc1ijdERFdchSSsbCEsvIRYW44FshIfQIYjI7riKiRhZQth4SXE2nIskJX4FpPhyIi2uAtJWNk6WHcJsbacnQtkvT8EIbSDdH8AsUDGY2XrYN0VpNp6di6Q5cLPB5DxyIi+uAtJWNkyWHYFqbYeC2QhhHaQ1m8xeUFG9MVdSMLKlsGyK0i19Vgg6/ABZAIyojEuQxJWtgpWXUGqrccCWQehHaT/A4gFMgMrWwWrriDV1rNsgZzRIGTEInyN4gxkRGfchiSsbA2suYRQW48FsgxCO8gGDyAWyBSsbA2suYRQW48Fsgr/iHAKQqI1rkMSVrYEllxCqK1n6wJZ6g9B8l6j+IuVtUZItMZ1SMLKlsCSSwi19Vggi/ABZA5CojfuQxJWtgJWXEGmLWjrAlkpAX2N4hyERG9chySsbAWsuIJMW5AFsgYfQCYhJHrjOiRhZStgxRVk2oIskDX8ILWDsLLmCInmuA9JWNkCWHAFmbagdQvkjAYhJBZAaAfZ4wHEApmFleVjvSVE2oIskCX4FpNZSInuuBBJWFk8lltCpC3IAlkCoR1khz8ifEZKdMeFSMLK4rHcEiJtQXsXyCq/x+sDyDSkRHvciCSsLB2rLSHSFmSBrIDQDrLLA4gFMg8rS8dqK0i0Fe1dIIt8D8vXKM5DSvTHjUjCysKx2AoSbUUWyAII7SDbPIBYIBOxsnAstoJEW5EFks8/IpyIlNgAVyIJK8vGWitItBUtXCBnNAgpkS3vNYo/WNkGSIkNcCWSsLJoLLWEQFuRBRLPB5CZiIkdcCeSsLJkrLSEQFuRBRLvJ6md4ycr2wExsQPuRBJWloyVlhBoK9q8QBb4PV4fQKYiJnbAnUjCypKx0hICbUUWSLq81yju8R53EBNb4FIkYWXBWGgFebakzQsk/79L+wAyFzGxBe5EElYWjIVWkGdLskDC+RaTuYiJPXApkrCyXKyzgjxbkgUSjtAOstUDiAUyGSvLxToryLMlrVwgZzQIMRHLB5DJiIlNcCuSsLJYLLOCOFuSBZKN0A6yz1tMXhATm+BWJGFlqVhlCXG2JAskmg8gs5ETu+BaJGFloVhkCXG2pN0LJPz3eAntIJs9gFgg07GyUCyyhDhbkgWSzPe4T0dObIN7kYSVZWKNFaTZmnYvkOzvYRHaQTZ6jeINObENrkUSVpaJNVaQZmuyQIL5R4TzkRP74F4kYWWRWGIFabYmCyRY3nvcf7GyfZAT++BeJGFlkVhiBWm2pqUL5IwGIScS+QASgJzYB/ciCSuLxBIrCLM1WSC5fpHaObZ6jeINObERLkYSVhaIBZYQZmuyQGL5AJKAoNgIFyMJKwvEAksIszVZILH8I8IEBMVOuBlJWFke1ldCmK1p+wLJ/UMQQjvIhg8gFkgEVpaH9VWQZYvavkBiQ9EHkAgExVa4GUlYWRyWV0GWLcoCISjiENpBdnuLyQuCYivcjCSsLA7LqyDLFmWBEBRpfADJQFDshauRhJWlYXUVZNmiLBCCIg2hHWTLBxALJAQrS8PqKsiyRa1dIGc0CEERxtcohiAoNsPdSMLKsrC2EqJsURYIQRGG0A6y5wOIBZKClWVhbSVE2aIsEIIii39EmIKk2A2XIwkri8LSSoiyRVkgkX8I4msUU5AUu+FyJGFlUVhaCVG2KAsksUB8AIlBUmyH25GElSVhZRUk2aoskMRk/Elq59jwNYo3JMV2uBxJWFkSVlZBkq3KAgksEB9AcpAU2+FyJGFlSVhZBUm2KgskMBp/kNo5tn0A2bZAbJB7sLAKkmxVixfIGQ1CUgQhtYNs+wBigQRhZTlYVwlBtioLJC8bfYtJEKJiQ1yPJKwsBssqIchWZYHkFQihHWTfBxALJAkri8GySgiyVVkgcb/H6wNIEqJiR9yPJKwsBasqIchWZYHEFQihHWTTt5i8ICp2xP1IwspSsKoKcmxZFkja97B8jWIUomJL3I8krCwEi6ogx5ZlgaQVCKEdZOcHEAskCysLwaIqyLFlWSBhBeIDSBaiYk9ckCSsLANrqiDHlrV6gZzRIERFhrzXKP5gZXsiKvbEBUnCyiKwpBJibFkWSFaB+BaTMGTFprghSVhZAlZUQowtywLJKpC8B5CfrGxTZMWmuCFJWFkCVlRCjC3LAnkaSbIigA8gaciKTXFDkrCyBKyohBhblgUSVSC/SO0c+75G8Yas2BVXJAkrC8CCKkixdVkgT8iK+XwAiUNW7IobkoSVBWBBFaTYuiyQJ2TFfL7FJA5ZsS2uSBJWNh/rqSDF1mWBPCEr5iO0g+z+AGKB5GFl87GeClJsXcsXyBkNQlZM5wNIHrJiX9yRJKxsOpZTQYitywJ5QlZMR2gH2fotJi/Iin1xR5KwstlYTQkhti4L5AlZMZsPIIEIi41xSZKwsslYTAkhti4L5EnI7/ES2kF8ALFALJDPsJgSQmxdFsiTjALxNYqJCIudcUuSsLK5WEsFGbYwC+QZYTEXoR3EBxAL5AmXJAkrm4u1VJBhC7NAnhEWU/lHhJEIi61xS5KwsqlYSgUZtjAL5BlhMVXeaxR/sbKtERZb45YkYWVTsZQKMmxh6xfIGQ1CWMzkA0gmwmJvXJMkrGwmVlJBhC3MAnlGWMz0k9TOsftrFG8Ii71xTZKwsolYSAkRtjAL5BlhMZEPIKFIi71xTZKwsolYSAkRtjAL5BlhMdEPUjsIK9scabE57kkSVjYP6yghwhZmgTyb/4cghHYQH0BekBab454kYWXzsI4KEmxlFsgL0mIa32KSirTYHfckCSubhmVUkGArs0BekBbTENpB/CPCG9Jid9yTJKxsGpZRQYKtzAJ5QVrM4gNILNJie1yUJKxsFlZRQYKtzAJ5QVrMQmgH8QEEpMX2uChJWNksrKKCBFtZgwI5o0FIi0l8jWIu0kLclCSsbA7WUEKArcwCeUFaTEJoB/EB5DfiQtyUJKxsDtZQQoCtzAJ5QVrM4QNIMOJCNshbLKGEAFuZBfJi6h+C5L1G8QcrkwXyB1clCSubgiWUEGArs0BezCwQ32KSjLiQDfIWK6ggv5ZmgdwQFzPkvUbxJyuTBfIKVyUJK5uBFVSQX0uzQG6Iiwl8AIlGXMgCeYsVVJBfS7NAboiLCfJeo+h73F8hLvSEu5KElU3AAirIr6V1KJAzGoS4GM8HkGzEhZ5wV5KwsvH4+iXE19IskBviYjzfYpKNvNAzLksSVjYcX76E+FqaBXJDXIxHaAfxAeQ18kLPuCxJWNlwfPkS4mtpFsjNrN/j9QEkHHmhF9yWJKxsNL56CfG1NAvkZlaBENpBfIvJG+SFXnBbkrCy0fjqFaTX2iwQkBeD+QCSjrzQDbclCSsbjC9eQXqtzQIBeTEYoR3EB5C3yAvdcFuSsLLB+OIVpNfaLBCQF2P5GsV45IXAdUnCysbia1eQXmtrUSBnNAh5MRahHcTXKL5DXghclySsbCi+dAnhtTYLBOTFUP4RYT4CQ79xX5KwspH4yiWE19osEJAXQ+W9x/0XK9NvBIZ+474kYWUj8ZVLCK+1WSCY8Hu8PoAsgMDQb9yXJKxsJL5yCeG1NgsEEwrkF6mdw9co/oPA0B9cmCSsbCC+cAXZtTgL5DcCYxwfQFZAYOgP7ksSVjYQX7iC7FqcBfIbgTGOf0S4AgJDf3FhkrCycfi6FWTX4iyQ3wiMcQjtID6A/IvA0F9cmCSsbBy+bgXZtbgeBXJGgxAYw/gAsgQCQ69wY5KwsmH4shVE1+IskN8IjGEI7SC+xeQDBIZe4cYkYWWj8FVLiK7FWSC/ERij+ACyBhJDr3FlkrCyQfiiJUTX4iyQ3wb/Hi+hHcQHkI+QGHqNK5OElQ3CFy0huhZngfw2tkB8jeIiSAy9wZ1JwsrG4GtWkFyrs0D+IDHGILSD+ADyIRJDb3BlkrCyMfiaFSTX6iyQP0iMIfwjwlWQGHqLO5OElQ3Bl6wguVZngfxBYgzhaxRXQWLoLe5MElY2BF+yguRaXZMCOaNBSIwRfABZBomhd7g0SVjZCHzFCoJrdRbIHyTGCD9J7Ry+RvETJIbe4dIkYWUD8AVLCK7VWSB/kBgD+ACyDiJD73BpkrCyAfiCJQTX6iyQP0iMAX6Q2jl8APkMkaH3uDVJWNn1+HolBNfqLJA/xv0hCKkdxAeQzxAZeo9bk4SVXY+vV0FuLc8C+YvIuJxvMVkIkaF/cGuSsLLL8eUqyK3lWSB/ERmXI7SD+ADyKSJD/+DWJGFll+PLVZBby7NA/iIyruYDyEqIDP2La5OElV2Nr1ZBbi3PAvmLyLgaoR3Et5h8jsjQv7g2SVjZ1fhqFeTW8roUyBkNQmRczNcoLoXI0Ae4N0lY2bX4WiXE1vIskL+IjIsR2kF8APkCmaEPcG+SsLJr8bVKiK3lWSB/ERnX8gFkLWSGPsLFScLKLsWXKiG2lmeB/DXkD0HyXqP4g5XpI2SGPsLFScLKLsWXKiG2lmeB/DWiQHyLyWLIDH2Im5OElV2Jr1RBaq3PAnmFzJD+IDOkP4iLClJrfRbIK2SG9AeZIf1BXFSQWuuzQF4hM6Q/yAzpD+KigtRaX5sCOaNByAzpDzJD+o20KCG01meBvEJmSH8QGtJvpEUJobU+C+QVMkP6g9CQfiMtSgit9Vkgr4z7/yOIVkFoSL+RFiWE1voskFcsEL1HaEi/kRYVZFYDFshrhIb0G6Eh/UZYVJBZDVggrxEa0m+EhvQbYVFBZjVggbxGaEi/ERrSb4RFBZnVQJ8COaNBCA3pN0JDAllRQmQ1YIG8RmhIv5EaEsiKEiKrAQvkNUJD+o3UkEBWlBBZDVggr/l7vHqH1JBAVpQQWQ1YIK9ZIHqH1JBAVlSQWB1YIG+QGhJIDQlERQWJ1YEF8gapIYHUkEBUVJBYHVggb5AaEkgNCURFBYnVQaMCOaNBSA0JpIYEoqKCwOrAAnmD1JBAakg3JEUJgdWBBfIGqSGB2JBuSIoSAqsDC+QNf49XbxEb0g1JUUJgdWCBvGGB6C1iQ7ohKSrIqxYskLeIDemG2JBuCIoK8qoFC+QtYkO6ITakG4KigrxqwQJ5i9iQbogN6YagqCCvWuhUIGc0CLEh3RAb0g1BUUFctWCBvEVsSDfEhvSCnCghrlqwQN4iNqQbckN6QU6UEFctWCBvERvSDbkhvSAnSoirFiyQt/xDEL1BbkgvyIkK0qoHC+QdckN6QW5IL4iJCtKqBwvkHXJDekFuSC+IiQrSqgcL5B1yQ3pBbkjPSIkS0qoHC+QdckN6QXBI59SHBRKME6ogN6QXRId0Un9YILk4oQpyQ3pBdmh7BEQdYdWDBfKOv8er10gPbY54OANh1YMF8g8rRH+RH9oa0XAKsqoJC+QDZIdkgejU+rBAknFEdaSHtkeGaFtEwmnIqiYskE+QH9ocKaJdkQfnIauasEA+449C9IQY0Z4IgzORVU30KpBTG8QKkQWyNYLgXERVExbIV6yQ7REl2g8hcDaiqgkL5GvEiHZFmGg3BMD5iKomLJDvECTaE3GivXD5r0BUNWGBfI8o0Y4IFG2Fm38FkqoLC+QehIn2Q6JoI9z6a5BUXVggd/Gn6bsiU7QNrvxVSKouLJA7WSF7IlW0Ca77dUiqLpoVyIUN4vextkSuaAtc9SsRVF1YIA8gU7QRkkU74J5fiqDqwgJ5CKmibRAt6o87fjGCqgsL5EHkijZBuKg77vflCKouLJBH+dP0rRAv6o3LfT1yqg0L5HFWyEYIGHXGxR6BnGrDAjmCcFF/RIz64lKPQU61YYEcQ7yoO0JGbXGjByGn2uhWIMMaxArZAymjprjNwxBTbVggxxEx6oycUUvc5IGIqTYskAJ/mt4fSaOGuMZDEVNtWCAlVkh3ZI3a4QoPRky1YYEUkTNqirRRM1zf0UipPiyQMpJGLZE36oW7Oxwp1YcFcgKyRg0ROOqEezsBKdWHBXIK0kbtEDnqgzs7BSnVR7sCmdQg/jS9KUJHXXBhJyGk+rBAzmKFtETsqAcu6zSEVB8WyHmskIYIHnXARZ2IkOrDAjkToaM+iB41wC2diZDqwwI5F7GjLsgeLY8bOhUZ1YgFcjaCRz2QPloct3MyMqoRC+R8RI86IH+0NG7mdGRUIxbIBfxpeh8kkBbGtQxARjVigVzCCumCDNK6uJMJyKhG+hVIRoP4fawmCCGtivuYgIBqxQK5DAmkpRFDWhN3MQHx1IwFciEySAsjiLQi7mECwqkdC+RSpJCWRRRpPdzBCGRTPw0LJKpB/Gn64ggjrYYLGIFg6qhjgVghOg1xpMVw+xIQSj31LBC/j6WTkEdaCjcvAYHUVdcCsUJ0ChJJC+HWJSCM+upbIFaITkAmaRncuAQEUWedC8QKURmppEVw2yKQQq31LpCoCvGn6Ssil7QErloEEqi57gUS9RBihayHZNIKuGcJiJ/22heI38dSBdGkfNyxBETPBjYoECtExxFOSsf9SkDsbGGLArFCdBTxpGzcrQREziY2KRArRMcQUErGvYpA3uximwKJqhB/mr4MIkrBuFUJyJp9bFQgUQ8hVsgiyCjF4kYlIGh2slOBWCF6GCmlUNymBITMXvYqEH8UogeRU4rETUpAwOxmtwKxQvQQkkqBuEUJCJf97FcgVogeQFYpDjcoAsmyoR0LJKpC/FFINtJKabg/CUiVLe1ZIP40XXcirpSFu5OASNnUpgViheg+BJaScG8SECfb2rZA/FGI7kFkKQd3JgFRsrGNC8QK0fcILaXgvkQgR3a2dYFYIfoOsaUM3JUIZMjeNi8QK0RfI7gUgYuSgPzY3fYF4k/T9RWSSwG4JQkID1kgVoi+QHZpOm5IAoJDFsgNcxGB4FIG0kuTcTsSEBp6ZoHcMBsRiC4lIL80FTcjAomhFxbIb4xHBMJL85FgmolrkYC0ECyQvxiRCMSXZiPCNA9XIgFJoT8skNcYkwT+ND0DIaZZuA8JSAm9YoG8waREsEISEGOag7uQgIjQGxbIO0xLBDJMExFkmoF7kIB40DsWyD+YmAikmKYhyjQedyAC2aD3LJAPMDQRyDFNQphpOC5AAnJB/7JAPsTgRCDJNAVppsEY/gRkgj5igXyC4UngT9MnIs80FJOfgDzQxyyQzzA/EayQaUg0DcTUJyAM9BkL5HPMUAQrZBIyTcMw8RFIAn3KAvkKYxSBQNNYpJoGYdojkAL6ggXyNUYpApGmkcg1jcGoJyAB9CUL5DuMUwRCTeMQbBqBMU/A7dc3LJDvMVIJ/FHIaESbrseMJ+Dm61sWyB2YqghWyFiEm67GfCfg2usOFshdmKwIVshIxJuuxWxH4M7rHhbInRiuCGSbBiDgdCkGOwH3XfexQO7GgEUg3XQ5Ek4XYqgTcNd1LwvkAQxZBPJNFyPjdBkGOgH3XPezQB7CoEUg4XQpUk4XYZgTcMf1CAvkMcxaBH+aPgA5p0swyQm44HqMBfIo5i2CFXI5kk4XYIojcLv1IAvkcYxcBGJOVyHrdD5GOAE3Ww+zQI5g7CIQdLoGYaezMb4JuNU6wAI5htGLQNTpCsSdzsXoJuBG6xAL5CjGLwJhp/MReDoTY5uA26yDLJDDmMAI/jT9KkSezsPMRuAu6ygLpIAhjGCFXIPQ01mY1wjcYx1ngZQwiBFIPJ2K2NNJGNYE3GFVWCBFDGMEMk8nIvd0CgY1AfdXNRZIGQMZgdTTaUg+nYAhTcDdVZUFcgKGMgK5p5OQfSpjQBNwb1VngZyCwUzgT9NPRfqpiOmMwKXVCSyQczCaEayQE5F/qmE0E3BjdQoL5CyMZwQr5DQEoCoYywTcVp3EAjkPIxqB+FMVEajjGMkE3FSdxgI5E2MagQBUDSGooxjHBNxSncgCORejGoEIVAUxqGMYxQTcUJ3KAjkb45rAH4XUEYQ6gjmMwPXUuSyQ0zGwEayQKqJQBzCECbibOpsFcgGGNoIVUkMW6mEMYALupc5ngVyCwY1AEuoQ0lAPYvgScCd1BQvkIgxvBLJQB5CHegiDl4D7qGtYIJdhgCOQhnoYiagHMHQJuIu6igVyIYY4AnmoB5GJuhsDF4GLqMtYIFdijCP40/RDSEXdi3FLwC3UhSyQazHKEayQA4hF3YdRS8AN1KUskKsxzhEIRd2PYNQ9GLME3D5dzAK5HiMdgVjUvYhGfY8RS8DN0+UskBEY6wgEo+5DOOo7jFcErp2uZ4GMwWRHIBp1D+JR32C2EnDlNIIFMgjDHcGfpt+PfNSXGKwE3DeNYYEMw4BHsELuRULqCwxVAu6aRrFABmLII5CP+gYZqU8xUAm4ZxrHAhmKQY9AQupLpKQ+wTAl4I5pJAtkMIY9AhmpL5CT+hCDFIELpqEskOGY9wikpD5FUuojTFECLpcGs0DGY+Qj+NP0bxCV+hcjlICbpeEskBkY+whWyJcIS73H+CTgVmkCC2QORj+CFfIF4lJvMToJuFGawgKZhfGPQFjqXwSmXmNsEnCbNIkFMg9XIAJxqfeITP3FyETgKmkWC2QmbkEEAlNvEZr6g3lJwDXSPBbIXNyEBP4o5COkpsCwJOAKaSYLZDIuQwQr5F/kpl4wKAm4P5rLApmOCxHBCnmP5NQThiQBd0ezWSABuBQRyE2B7JQ/O9cHLJAI3IsIJKdekJ5iOhJwaRTAAgnB3YhAduoJ8bk7JiMBF0YRLJAY3I8IpKcskGdMRQIui0JYIDm4IhH8aTqI0J0xEgm4KYphgSThmkSwQl4QovtiHBJwSxTEAsnCVYlAhO6NGN0VoxCBK6IkFkgabksEQnRnBOmmmIMEXA9lsUDycGMiEKP7Ikm3xAwk4GoojQWSiFsTgSDdFVm6Ic4/AddCeSyQSFycCHv/NJ003Q6Hn4A7oUQWSCguT4SdK4Q83QwHn4D7oEwWSCwuUATSdEMk6lY49AhcBoWyQIJxhyKQp9shU3fCiSfgIiiWBRKNexSBRN0MoboPTjsBl0DBLJBw3KUIZOpWiNVdcNIJuACKZoGk4zpF2PCn6QTrHjjmBEy/wlkg+bhSEbarEKJ1BxxxBEZf6SyQFXCrImxWIYRrfxxvBMZe+SyQNXCzIhCteyBe2+NsEzDyWoEFsgpuVwTCdQfka3OcawLGXWuwQNbBDYtAvPZHwrbGmSZg1LUKC2Ql3LIEu/wohIxtjANNwJhrHRbIUrhoEfaoEFK2LQ4zAkOuhVggi+GuRdihQsjZrjjJBAy4lmKBLIf7FoGUbYyg7YlTTMBwazEWyIK4cxHI2baI2o44wQQMtpZjgSyJexeBpG2KsO2H00vAUGtBFsiiuHsRyNqWiNtuOLkEDLSWZIGsiusXofFP0wncXji2CIyz1mSBrIsbGKFthRC5rXBmCRhlrcoCWRm3MAKB2w2Z2wjnlYAx1roskLVxEyMQub2Qum1wVgkYYa3MAlkdtzECodsJudsE55SA8dXaLJD1cSMjELt9kLwtcEYRmF0tzgJpgDsZodtP08neBjigCAyulmeBtMC9jNCrQkjf9XE6CRhaNWCBNMHdjED2tkD8ro6TScDAqgULpA3uZwTStwECeG2cSgKGVU1YII1wRyOQv8sjglfGiSRgUNWGBdIK9zQCCbw4QnhdnEYEplR9WCC9cFMjtPhpOjG8LM4iASOqTiyQbritERpUCDm8KM4hAeOpXiyQfrixEYjhdZHES+IMEjCa6sYC6YhbG4EgXhVZvCD2PwFjqX4skJ64uRGI4jWRxsth7xMwkurIAumK2xuBMF4RebwY9j0C86iWLJC2uL8R1v1pOom8FnY9AcOopiyQxrjDEVatECJ5Jex4AgZRbVkgrXGPI6xZIYTyOtjtBAyhGrNAmuMuRyCTl0Isr4KdTsAAqjULpD3ucwRSeSEE8xrY5QQMn5qzQDbAnY5ALi+DaF4BOxyByVN3FsgWuNYJFvtRCOG8APY3AVOn/iyQPXCzIyxVIaRzPPY2ASOnHVggu+B2R1ioQsjncOxrAsZNe7BA9sENj0A85yOho7GnCRg17cIC2Qm3PAIBnY6MDsZ+RmDOtA0LZC9c9AhEdDZSOhebmYAZ00YskN1w2SMQ0smI6VRsZALmS1uxQLbDfY+Q/9N0gjoTu5iA4dJmLJANcecjpFcIUZ2IHUzAYGk7FsiWuPcRSOpQhHUedi8BQ6UNWSCb4u5HIKsjEddp2LkITJR2ZIFsi+sfgbQORGCHYdsSME3akwWyMSIgAnkdh8SOwpYlYJK0KwtkZ6RAhNCfppPZQdivBIyR9mWB7I0kiBBZIaR2DPYqASOknVkguyMNIhDaScjtEOxTAsZHe7NARCJEILZzkNwR2KMIzI42Z4HICvkC2Z2ADUrA3Gh7FoieEQwRiO4MhPd8bE4CZkayQHRDNkRI+mk68T0bO5OAgZGeWCAC+RAhp0II8LnYlQQMi/TCAtEfZESElAohwmdiRyIwKdKNBaJXiIkIJPhkhPhEbEcCpkT6zQLRG0RFBDJ8KlJ8GrYiARMi/WWB6B3iIgIpPhE5PgnbkIDpkF6zQPQPIiPB9B+FkORTsAcJmAzpLQtE/yI1IkyuELJ8Aj5/AsZCes8C0UdIjghTK4Q0H47PHoGZkP5hgehjhEcEwnwG8nw0PngC5kH6gAWizxAgEYjz8Qj0sfjQCZgF6UMWiD5HiEQg0Ecj0kfiAydgDqRPWCD6CkESgUgfi1Afhw+bgBmQPmWB6EtkSYQZP00n1kfhkyZgAKQvWCD6BnkSYXyFEOxj8CkjcPrSVywQfYtIiUCuD0O0D8FHTMDJS1+zQHQHYiUCyT4I2T4AHy8Bpy59xwLRXYiWCGT7EKT75fhoCThx6XsWiO5EvEQg3Qcg3y/Gx0rAaUv3sEB0LxImwrCfppPwl+IzReCspbtYILofIRNhUIWQ8VfiAyXgnKU7WSB6BEETgYi/FiF/HT5MAs5YupsFoscQNhEI+SsR81fhgyTgfKUHWCB6FIETgZi/DkF/DT5EAs5WeogFoscROhEI+qsQ9VfgAyTgXKUHWSA6gNyJcO1P0wn787H6CJyq9CgLRIcQPRGurBDi/nQsPQEnKj3OAtFBxE+E6yqEvD8Zy07AaUpHWCA6jAiKQN6fjsQ/FUtOwElKx1ggKiCGIpD4JyPzT8RyE3CK0lEWiEqIoghk/qlI/dOw1AScoHScBaIa0ijCBT8KIfdPwjojcH5SgQWiKgIpwukVQvKfg0Um4OykEgtEdYRShJMrhOg/AwtMwLlJRRaIzkAwRSD6z0H417G4BJyZVGaB6ByEUwTC/wzEfxULS8B5SSewQHQWAioC8V9HAdSwqASclXQKC0TnIaQiUABVVEAJK0rAQUnnsEB0ImIqwjk/TacDClhOAk5JOosFolMRVRHOqBBa4DCWkoATks5jgehkxFUEWqCAHjiIZSTgdKQzWSA6HZEVgR44jCY4hCUk4GSkc1kgugCxFYEmOIguOIAvH4FjkU5mgegSJFcEuuAQ2uBxfO0EHIl0OgtE1yC8IhR+mk4dPIovnIDzkC5ggegqBFiEwxVCITyGL5qAs5AuYYHoOoRYBArhUVTCI/iCCTgH6SIWiK5EkEWgEh5DKdyPL5aAM5AuY4HoWoRZBErhEdTCvfhCETgA6ToWiK5GnkWgFu5HMdyJr5KAzZeuZIHockRahEd/mk4z3IUvkYCdl65lgWgAYi3CYxVCN9yBf30Cdl26mgWiIYi2CI9UCO3wLf7VCdhx6XoWiAYh3iLQDnegH77BvzYBuy2NYIFoGCIuAv3wLRria/w7E7DV0hAWiAYi5SLQEN+gIr7Cvy8B2ywNYoFoJIIuwl0/CqEkPse/LAF7LA1jgWgswi7CHRVCTXyGf1EC9lcayALRaARehG8rhKL4GP+SBOytNJQFovEIvQgUxWeoio/wL4jAxkpjWSCagdyLQFV8jLL4AP90AjZVGs0C0RxkXwTK4iO0xT/4JxOwodJ4FogmIf4yUBf/oi/e4Z9KwG5KM1ggmoYIjPDZT9NpjDf4RxKwk9IcFogmIgYjfFwhdMYr/McTsIvSLBaIpiIKI9AZb9Aaf/AfjcAWStNYIJqMNIxAa7xCb/zGfy4B2ydNZIFoOhIxAr3xB8Vxw38mAVsnTWWBKACpGIHmANXxjP97ArZNmswCUQKCMcKbn6ZTHtaH9AELRBkIxwivKsT6kD5ngSgFARmB+qBA+F9GYLOkBBaIcpCREV4VCP+bBGyUlMECURJyMgIFwv+UgE2SUlggykJWRngqEP5fCdggKYcFojDEpd5id6QkFojiEJl6ha2RolggCkRqCmyLFMYCUSSSU0/YEimOBaJQpOf22A4pkAWiWCTo1tgKKZIFolyE6L7YBymUBaJkBOmm2AQplQWibGTphtgAKZcFonTk6Wb48FIyC0T5yNSN8MGlbBaIVkCuboIPLaWzQLQEonUHfGIpnwWiRRCv7fFxpQVYIFoGCdsaH1VaggWihZCybfExpUVYIFoKSdsSH1FahgWixZC27fDxpIVYIFoOidsLn01aiQWi9ZC5jfDBpLVYIFoRudsEH0pajQWiNZG9DfCBpPVYIFoV+bs4Poy0IgtE6yKDF8YHkdZkgWhl5PCq+BTSoiwQLY0kXhIfQVqWBaLFkcbLYfnSwiwQLY9EXgpLl5ZmgagBUnkZLFtanAWiFkjmJbBkaXkWiJognfOxXml9Foi6IJ/DsVipAwtEfZDRwVio1IMFok7I6VAsUurCAlEvZHUgFij1YYGoG/I6DIuTOrFA1A+ZnYSVSa1YIGqI1I7BsqRmLBC1RHJHYElSOxaImiK9p2M5UkMWiNoiwadiKVJLFogaI8XnYR1STxaIWiPI52ANUlcWiHojyydgAVJfFoi6I88H44tLnVkg6o9MH4gvLPVmgWgH5PogfFGpOwtEeyDbR+ArSu1ZINoF8X41vpq0AQtE+yDir8RXkrZggWgjpPxl+DLSJiwQbYWkvwRfQtqGBaLNkPan418vbcQC0XZI/HPx75Z2YoFoQ4T+efj3SnuxQLQlgv8c/Dul3Vgg2hPZfwL+hdJ+LBDtivwv4l8m7cgC0b7ogAr+TdKWLBDtjBo4in+LtCkLRHujCo7g3yBtywLR7qiDR/FPSxuzQLQ9GuEh/KPS1iwQ6eEK4R+TNmeBSE9ohvvwz0i7s0CkF5TD9/jPS7JAJFAQX+M/K8kCkV6hJD7Hf07SMwtE+oue+AT/IUk3Foj0Gl3xAf4Dkn6zQKS36Iv3+L9K+sMCkd6jMl7j/yLpFQtE+he18Rv/W0lvWCDSR6iOZ/xvJL1jgUgfsz6kb1gg0ifsD+lrFoj0KetD+ooFIkk6xAKRJB1igUiSDrFAJEmHWCCSpEMsEEnSIRaIJOkQC0SSdIgFIkk6xAKRJB1igUiSDrFAJEmHWCCSpEMsEEnSIRaIJOkQC0SSdIgFIkk6xAKRJB1igUiSDrFAJEmHWCCSpEMsEEnSIRaIJOkQC0SSdIgFIkk6xAKRJB1igUiSDrFAJEmHWCCSpEMsEEnSIRaIJOkQC0SSdIgFIkk6xAKRJB1igUiSDrFAJEmHWCCSpEMsEEnSIRaIJOkQC0SSdIgFIkk6xAKRJB1igUiSDrFAJEmHWCCSpEMsEEnSIRaIJOkQC0SSdIgFIkk6xAKRJB1igUiSDrFAJEmHWCCSpEMsEEnSIRaIJOkQC0SSdIgFIkk6xAKRJB1igUiSDrFAJEmHWCCSpEMsEEnSIRaIJOkQC0SSdIgFIkk6xAKRJB3w//7f/wcbFPBCx+S1SAAAAABJRU5ErkJggg==;" vertex="1" parent="xbgkux6oHdEF29ycn-ZW-33">
          <mxGeometry x="35" y="20" width="40" height="40" as="geometry" />
        </mxCell>
      </root>
    </mxGraphModel>
  </diagram>
</mxfile>
